<svg id="Layer_1" data-name="Layer 1" xmlns="http://www.w3.org/2000/svg" viewBox="0 0 653.36 238.4"><defs><style>.cls-1{fill:none;stroke:#fff;stroke-linecap:round;stroke-miterlimit:10;stroke-width:3.69px;}.cls-2,.cls-3,.cls-4{fill:#fff;}.cls-3{font-size:95.4px;}.cls-3,.cls-4{font-family:AlmoniTzarDL4.0AAA-Bold, "Almoni Tzar DL 4.0 AAA";font-weight:700;}.cls-4{font-size:94.88px;}</style></defs><line class="cls-1" x1="2.68" y1="134.52" x2="650.68" y2="134.52"/><path class="cls-2" d="M19.9,71.35c0-10.17-1.88-13.7-8.74-13.7H1.88V44.49H15.81c18.35,0,21.77,7.41,21.77,26.2v40.12H19.9Z"/><path class="cls-2" d="M47.2,110.81V44.49H64.88v66.32Z"/><path class="cls-2" d="M75.27,110.81V44.49H93v66.32Z"/><path class="cls-2" d="M102.9,83.51v-39h17.69v39Z"/><path class="cls-2" d="M176.19,44.49V83.62c0,17.91-6.74,23-21.56,26.75l-23.65,6-3.65-12.6,7.74-2-6.63-57.26h17.68l5.64,53c5.42-1.44,6.74-3.87,6.74-10.83V44.49Z"/><path class="cls-2" d="M255.11,70.14v40.67H237.42V67.15c0-7.18-1.21-9.5-6.74-9.5h-3v53.16H203.27V97.22h7.62V57.65h-5V44.49h27.19C249.36,44.49,255.11,50.13,255.11,70.14Z"/><path class="cls-2" d="M298,67.26V88c0,17.91-7,22.77-20.9,22.77h-15V97.66h7.85c8.51,0,10.39-2,10.39-10.94V68.59c0-9-1.88-10.94-10.39-10.94h-7.85V44.49h15C291,44.49,298,49.36,298,67.26Z"/><path class="cls-2" d="M323.2,57.65h-20V33.44H320V44.49h24.1L328.5,110.81H311.15Z"/><path class="cls-2" d="M350.5,110.81V44.49h17.69v66.32Z"/><path class="cls-2" d="M422.57,110.81H404.88V57.65H377.8V44.49h44.77Zm-27-41.34v41.34H377.91V69.47Z"/><path class="cls-2" d="M501.93,70.14v40.67H484.24V67.15c0-7.18-1.21-9.5-6.74-9.5h-3v53.16H450.09V97.22h7.63V57.65h-5V44.49h27.19C496.18,44.49,501.93,50.13,501.93,70.14Z"/><path class="cls-2" d="M507.35,110.81V97.66h4.53c4.53,0,5.75-2,5.75-7.74V57.65h-7V44.49h24.65V93.24c0,12.93-4.42,17.57-16.25,17.57Z"/><path class="cls-2" d="M591.13,69.58v41.23H573.45V69c0-9.28-1.66-11.38-7.41-11.38H563v53.16H545.26V44.49h24.87C585.16,44.49,591.13,50,591.13,69.58Z"/><path class="cls-2" d="M648.94,70.14v40.67H631.25V67.15c0-7.18-1.21-9.5-6.74-9.5h-3v53.16H597.1V97.22h7.63V57.65h-5V44.49h27.19C643.19,44.49,648.94,50.13,648.94,70.14Z"/><text class="cls-3" transform="translate(608.2 213.93)"><tspan xml:space="preserve">  </tspan></text><text class="cls-4" transform="translate(608.7 212.06)"><tspan xml:space="preserve">  </tspan></text></svg>