<svg id="Layer_1" data-name="Layer 1" xmlns="http://www.w3.org/2000/svg" viewBox="0 0 653.36 238.4"><defs><style>.cls-1{fill:none;stroke:#fff;stroke-linecap:round;stroke-miterlimit:10;stroke-width:3.69px;}.cls-2{fill:#fff;}.cls-3{fill:#f7ae6d;}.cls-4{fill:#40b2a7;}.cls-5{fill:#ee726d;}.cls-6{fill:#edda9d;}.cls-7{fill:#8ccdc8;}.cls-8{fill:#f29597;}</style></defs><line class="cls-1" x1="2.68" y1="134.52" x2="650.68" y2="134.52"/><path class="cls-2" d="M37.58,70.69v40.12H19.9V71.35c0-10.17-1.88-13.7-8.74-13.7H1.88V44.49H15.81C34.16,44.49,37.58,51.9,37.58,70.69Zm9.62,40.12H64.88V44.49H47.2Zm28.07,0H93V44.49H75.27Zm27.63-27.3h17.69v-39H102.9Zm55.6,3.1c0,7-1.32,9.39-6.74,10.83l-5.64-52.95H128.44l6.63,57.26-7.74,2,3.65,12.6,23.65-6c14.82-3.76,21.56-8.84,21.56-26.75V44.49H158.5Zm74.61-42.12H205.92V57.65h5V97.22h-7.62v13.59H227.7V57.65h3c5.53,0,6.74,2.32,6.74,9.5v43.66h17.69V70.14C255.11,50.13,249.36,44.49,233.11,44.49Zm44,0h-15V57.65h7.85c8.51,0,10.39,2,10.39,10.94V86.72c0,9-1.88,10.94-10.39,10.94h-7.85v13.15h15C291,110.81,298,106,298,88V67.26C298,49.36,291,44.49,277.1,44.49ZM320,33.44h-16.8V57.65h20l-12.05,53.16H328.5l15.59-66.32H320Zm30.51,77.37h17.69V44.49H350.5Zm27.3-53.16h27.08v53.16h17.69V44.49H377.8Zm.11,53.16H395.6V69.47H377.91Zm102-66.32H452.74V57.65h5V97.22h-7.63v13.59h24.43V57.65h3c5.53,0,6.74,2.32,6.74,9.5v43.66h17.69V70.14C501.93,50.13,496.18,44.49,479.93,44.49Zm30.73,13.16h7V89.92c0,5.75-1.22,7.74-5.75,7.74h-4.53v13.15h11.71c11.83,0,16.25-4.64,16.25-17.57V44.49H510.66Zm59.47-13.16H545.26v66.32H563V57.65H566c5.75,0,7.41,2.1,7.41,11.38v41.78h17.68V69.58C591.13,50,585.16,44.49,570.13,44.49Zm56.81,0H599.75V57.65h5V97.22H597.1v13.59h24.43V57.65h3c5.53,0,6.74,2.32,6.74,9.5v43.66h17.69V70.14C648.94,50.13,643.19,44.49,626.94,44.49Z"/><path class="cls-3" d="M71.75,194.24V176c0-14.34,5.43-20.35,18-20.35s18.12,6,18.12,20.35v18.28c0,14.42-5.44,20.44-18.12,20.44S71.75,208.66,71.75,194.24Zm22.65,1.65V174.31c0-6.59-1.23-8.9-4.61-8.9s-4.53,2.31-4.53,8.9v21.58c0,6.59,1.23,9,4.53,9S94.4,202.48,94.4,195.89Z"/><path class="cls-3" d="M147.37,168.62v45.31H134.52v-2.55a10.89,10.89,0,0,1-8,3.05c-8.24,0-12.61-4.62-12.61-16.64V168.62h12.86V198.2c0,4.53,1.31,6.43,3.79,6.43,2.88,0,4-2,4-6.51v-29.5Z"/><path class="cls-3" d="M175,204.46v9.47h-4.78c-10.55,0-14.17-3.13-14.17-12.85V177.44h-3.87v-8.82H156V156.27h12.85v12.35h5.69v8.82h-5.69v22.65c0,3.3.74,4.37,3.87,4.37Z"/><path class="cls-4" d="M230.33,185.1c0,24.06-4.54,28.83-20.6,28.83H195.64V156.27h14.09C225.79,156.27,230.33,161.13,230.33,185.1Zm-13.19,0c0-16.72-.9-19-7.16-19h-1.16v38.06H210C216.24,204.13,217.14,201.82,217.14,185.1Z"/><path class="cls-4" d="M235.35,191.36c0-16.39,4.86-23.31,17.13-23.31s17.31,6.92,17.31,23.31-5,23.23-17.31,23.23S235.35,207.67,235.35,191.36Zm21.17,0c0-10.46-.9-13.92-4-13.92-3,0-3.95,3.46-3.95,13.92s1,13.84,3.95,13.84C255.62,205.2,256.52,201.91,256.52,191.36Z"/><path class="cls-4" d="M274.15,191.36c0-16.39,4.86-23.31,17.14-23.31s17.3,6.92,17.3,23.31-4.95,23.23-17.3,23.23S274.15,207.67,274.15,191.36Zm21.17,0c0-10.46-.9-13.92-4-13.92-3,0-4,3.46-4,13.92s1,13.84,4,13.84C294.42,205.2,295.32,201.91,295.32,191.36Z"/><path class="cls-4" d="M314.27,168.62h12.11v9.31l.08.09c1.48-5.44,4.28-9.4,11-9.4h.82v12.11h-.82c-6.18,0-10.47,2.23-10.47,12.94l.17,20.26H314.27Z"/><path class="cls-5" d="M388.91,166.4h-10v47.53H365.76V166.4h-10V156.27h33.12Z"/><path class="cls-5" d="M390.06,168.62h12.11v9.31l.08.09c1.48-5.44,4.28-9.4,11-9.4H414v12.11h-.82c-6.18,0-10.47,2.23-10.47,12.94l.17,20.26H390.06Z"/><path class="cls-5" d="M446.9,185.43v28.5H434.13v-4c-1.73,3-4.61,4.28-8.65,4.28-6.51,0-10.79-4.45-11-12-.24-9.72,6.26-16.73,19.61-20.19-.41-3.79-1.56-4.61-4.78-4.61-3.87,0-7.58.91-11.61,1.81l-1.73-8.81a65.68,65.68,0,0,1,15.24-2.31C440.89,168.13,446.9,172.25,446.9,185.43Zm-12.69,12v-6.92c-5.43,2.3-7.08,5.68-7.08,9.31,0,3,1.32,4.28,3.46,4.28C433.14,204.13,434.21,201.91,434.21,197.46Z"/><path class="cls-5" d="M453.16,163.6V152.15H466V163.6ZM466,213.93H453.16V168.62H466Z"/><path class="cls-5" d="M506.38,184.19v29.74H493.53V184.36c0-4.45-1.24-6.43-3.79-6.43-2.72,0-4,2-4,6.43v29.57H472.93V168.62h12.85v2.89a11.06,11.06,0,0,1,8.16-3.22C502.75,168.29,506.38,173.24,506.38,184.19Z"/><path class="cls-5" d="M512.64,163.6V152.15h12.85V163.6Zm12.85,50.33H512.64V168.62h12.85Z"/><path class="cls-5" d="M565.86,184.19v29.74H553V184.36c0-4.45-1.23-6.43-3.79-6.43-2.71,0-4,2-4,6.43v29.57H532.41V168.62h12.85v2.89a11.06,11.06,0,0,1,8.16-3.22C562.23,168.29,565.86,173.24,565.86,184.19Z"/><path class="cls-5" d="M604.74,168.62V212.2c0,14-6,18.7-17.63,18.7A46.39,46.39,0,0,1,574.59,229l1.48-9.06a31.06,31.06,0,0,0,8.9,1.48c5.93,0,6.92-2.64,6.92-10.63v-1.89c-1.9,1.81-4.45,2.72-7.91,2.72-10.38,0-13.1-7.66-13.1-21.75s2.72-21.67,13.1-21.67c3.54,0,6.09.91,7.91,2.72v-2.31ZM592.3,190c0-9.55-1.07-12.77-4.2-12.77s-4.2,3.22-4.2,12.77,1.15,12.77,4.2,12.77S592.3,199.68,592.3,190Z"/><path class="cls-6" d="M93.08,154.05c-12.54,0-17.94,6-17.94,20.24v18.19c0,14.34,5.4,20.32,17.94,20.32s18-6,18-20.32V174.29C111.11,160,105.7,154.05,93.08,154.05Zm4.59,40.06c0,6.56-1.23,8.94-4.59,8.94s-4.5-2.38-4.5-8.94V172.65c0-6.56,1.22-8.85,4.5-8.85s4.59,2.29,4.59,8.85ZM137.57,167h12.79v45.07H137.57v-2.54a10.81,10.81,0,0,1-7.95,3c-8.19,0-12.53-4.59-12.53-16.55V167h12.78v29.42c0,4.51,1.31,6.39,3.77,6.39,2.87,0,3.93-2,3.93-6.47Zm40.23,35.65v9.42h-4.75c-10.49,0-14.09-3.11-14.09-12.78V175.76h-3.85V167H159V154.7h12.78V167h5.65v8.77h-5.65v22.53c0,3.28.74,4.35,3.85,4.35Z"/><path class="cls-7" d="M212.38,154.7h-14v57.36h14c16,0,20.49-4.75,20.49-28.68S228.36,154.7,212.38,154.7Zm.25,47.61h-1.15V164.45h1.15c6.22,0,7.12,2.3,7.12,18.93S218.85,202.31,212.63,202.31Zm42.27-35.89c-12.2,0-17,6.88-17,23.19s4.84,23.11,17,23.11,17.21-6.89,17.21-23.11S267.2,166.42,254.9,166.42Zm0,37c-3,0-3.93-3.27-3.93-13.76s1-13.85,3.93-13.85c3.12,0,4,3.44,4,13.85S258,203.37,254.9,203.37Zm38.6-37c-12.21,0-17.05,6.88-17.05,23.19s4.84,23.11,17.05,23.11,17.2-6.89,17.2-23.11S305.79,166.42,293.5,166.42Zm0,37c-2.95,0-3.94-3.27-3.94-13.76s1-13.85,3.94-13.85c3.11,0,4,3.44,4,13.85S296.61,203.37,293.5,203.37ZM340.2,167v12h-.82c-6.14,0-10.4,2.21-10.4,12.86l.16,20.16H316.36V167h12v9.26l.08.08c1.48-5.4,4.26-9.34,10.9-9.34Z"/><path class="cls-8" d="M357.65,154.7h32.94v10.08h-9.91v47.28H367.57V164.78h-9.92Zm46.21,21.63-.08-.08V167h-12v45.07h12.78l-.16-20.16c0-10.65,4.26-12.86,10.4-12.86h.82V167h-.82C408.12,167,405.34,170.93,403.86,176.33Zm44.42,7.38v28.35h-12.7v-3.93c-1.72,3-4.59,4.26-8.61,4.26-6.47,0-10.73-4.43-11-12-.24-9.66,6.23-16.63,19.5-20.07-.41-3.77-1.55-4.59-4.75-4.59-3.85,0-7.54.9-11.55,1.8l-1.72-8.76a65.61,65.61,0,0,1,15.16-2.3C442.29,166.5,448.28,170.6,448.28,183.71Zm-12.62,5.08c-5.41,2.29-7.05,5.65-7.05,9.26,0,2.95,1.31,4.26,3.44,4.26,2.54,0,3.61-2.21,3.61-6.64ZM454.5,162h12.78V150.6H454.5Zm0,50.07h12.78V167H454.5Zm40.56-45.39a11,11,0,0,0-8.11,3.19V167H474.16v45.07H487V182.64c0-4.42,1.23-6.39,3.93-6.39,2.54,0,3.77,2,3.77,6.39v29.42h12.78V182.48C507.43,171.58,503.83,166.67,495.06,166.67Zm18.6-4.68h12.78V150.6H513.66Zm0,50.07h12.78V167H513.66Zm40.56-45.39a11,11,0,0,0-8.12,3.19V167H533.32v45.07H546.1V182.64c0-4.42,1.23-6.39,3.94-6.39,2.54,0,3.77,2,3.77,6.39v29.42h12.78V182.48C566.59,171.58,563,166.67,554.22,166.67Zm51,.32v43.35c0,13.93-6,18.6-17.53,18.6a46.34,46.34,0,0,1-12.46-1.88l1.48-9a30.77,30.77,0,0,0,8.85,1.48c5.9,0,6.88-2.63,6.88-10.57v-1.89c-1.88,1.8-4.42,2.71-7.86,2.71-10.33,0-13-7.62-13-21.64s2.7-21.55,13-21.55c3.52,0,6.06.9,7.86,2.71V167ZM592.89,188.3c0-9.51-1.06-12.7-4.18-12.7s-4.18,3.19-4.18,12.7,1.15,12.7,4.18,12.7S592.89,197.88,592.89,188.3Z"/></svg>