<svg id="Layer_1" data-name="Layer 1" xmlns="http://www.w3.org/2000/svg" xmlns:xlink="http://www.w3.org/1999/xlink" viewBox="0 0 84.64 84.66"><defs><style>.cls-1{stroke-width:2px;fill:url(#linear-gradient);stroke:url(#linear-gradient-2);}</style><linearGradient id="linear-gradient" x1="1" y1="42.33" x2="83.64" y2="42.33" gradientUnits="userSpaceOnUse"><stop offset="0" stop-color="#008ccf"/><stop offset="0.13" stop-color="#1999d6"/><stop offset="0.41" stop-color="#47b1e3"/><stop offset="0.66" stop-color="#6ac2ed"/><stop offset="0.86" stop-color="#7ecdf3"/><stop offset="1" stop-color="#86d1f5"/></linearGradient><linearGradient id="linear-gradient-2" x1="0" y1="42.33" x2="84.64" y2="42.33" xlink:href="#linear-gradient"/></defs><path class="cls-1" d="M72.07,83.33,42.74,54a.61.61,0,0,0-.86,0L12.52,83.36a1,1,0,0,1-1.44,0L1.3,73.58a1,1,0,0,1,0-1.44l29.41-29.4a.63.63,0,0,0,0-.87Q16,27.13,1.34,12.51a1,1,0,0,1,0-1.43L11,1.4a1,1,0,0,1,1.43,0L41.73,30.67a.61.61,0,0,0,.86,0L72,1.3a1,1,0,0,1,1.43,0L83.14,11a1,1,0,0,1,0,1.44L53.88,41.74a.6.6,0,0,0,0,.86L83.34,72.06a1,1,0,0,1,0,1.43L73.5,83.33A1,1,0,0,1,72.07,83.33Z"/></svg>