<svg id="Layer_1" data-name="Layer 1" xmlns="http://www.w3.org/2000/svg" viewBox="0 0 651.69 238.4"><defs><style>.cls-1{fill:none;stroke:#fff;stroke-linecap:round;stroke-miterlimit:10;stroke-width:3.69px;}.cls-2{fill:#fff;}.cls-3{fill:#f7ae6d;}.cls-4{fill:#40b2a7;}.cls-5{fill:#ee726d;}.cls-6{fill:#edda9d;}.cls-7{fill:#8ccdc8;}.cls-8{fill:#f29597;}</style></defs><line class="cls-1" x1="1.85" y1="134.52" x2="649.85" y2="134.52"/><path class="cls-2" d="M149.94,68.14v40.67H132.25V65.15c0-7.18-1.21-9.5-6.74-9.5h-3v53.16H98.1V95.22h7.62V55.65h-5V42.49h27.19C144.19,42.49,149.94,48.13,149.94,68.14Zm5.19-12.49h16.58v53.16H189.4V55.65h6.19V42.49H155.13Zm62.56-24.21h-16.8V55.65h20l-12.05,53.16h17.36l15.58-66.32h-24.1Zm29.63,24.21h28.29V87.81c0,6.41-1.43,7.85-5.52,7.85h-1v13.15h5.2c12.6,0,19-6.08,19-19.78V42.49h-46Zm.22,67.53h17.68V67.47H247.54ZM327,42.49H300.59V55.65h6l-5.64,53.16h17.14l5.3-53.61h1.77c5.2,0,6.63,2.32,6.63,9.73V95.66h-7.07v13.15h24.43V70C349.12,49.68,344.25,42.49,327,42.49Zm78.59,0H378.41V55.65h5V95.22h-7.62v13.59h24.42V55.65h3c5.53,0,6.74,2.32,6.74,9.5v43.66H427.6V68.14C427.6,48.13,421.85,42.49,405.6,42.49Zm30.73,13.16h7V87.92c0,5.75-1.21,7.74-5.74,7.74H433v13.15h11.72c11.83,0,16.25-4.64,16.25-17.57V42.49H436.33ZM495.8,42.49H470.93v66.32h17.68V55.65h3.1c5.75,0,7.4,2.1,7.4,11.38v41.78H516.8V67.58C516.8,48,510.83,42.49,495.8,42.49Zm56.81,0H525.42V55.65h5V95.22h-7.62v13.59h24.42V55.65h3c5.53,0,6.74,2.32,6.74,9.5v43.66h17.69V68.14C574.61,48.13,568.86,42.49,552.61,42.49Z"/><path class="cls-3" d="M70.91,194.24V176c0-14.34,5.44-20.35,18-20.35s18.13,6,18.13,20.35v18.28c0,14.42-5.44,20.44-18.13,20.44S70.91,208.66,70.91,194.24Zm22.66,1.65V174.31c0-6.59-1.24-8.9-4.62-8.9s-4.53,2.31-4.53,8.9v21.58c0,6.59,1.24,9,4.53,9S93.57,202.48,93.57,195.89Z"/><path class="cls-3" d="M146.54,168.62v45.31H133.69v-2.55a10.91,10.91,0,0,1-8,3.05c-8.23,0-12.6-4.62-12.6-16.64V168.62h12.85V198.2c0,4.53,1.32,6.43,3.79,6.43,2.88,0,4-2,4-6.51v-29.5Z"/><path class="cls-3" d="M174.13,204.46v9.47h-4.78c-10.54,0-14.16-3.13-14.16-12.85V177.44h-3.88v-8.82h3.88V156.27H168v12.35h5.68v8.82H168v22.65c0,3.3.74,4.37,3.87,4.37Z"/><path class="cls-4" d="M229.49,185.1c0,24.06-4.53,28.83-20.59,28.83H194.81V156.27H208.9C225,156.27,229.49,161.13,229.49,185.1Zm-13.18,0c0-16.72-.91-19-7.17-19H208v38.06h1.15C215.4,204.13,216.31,201.82,216.31,185.1Z"/><path class="cls-4" d="M234.52,191.36c0-16.39,4.86-23.31,17.13-23.31S269,175,269,191.36s-4.94,23.23-17.3,23.23S234.52,207.67,234.52,191.36Zm21.17,0c0-10.46-.91-13.92-4-13.92-3,0-4,3.46-4,13.92s1,13.84,4,13.84C254.78,205.2,255.69,201.91,255.69,191.36Z"/><path class="cls-4" d="M273.32,191.36c0-16.39,4.86-23.31,17.13-23.31s17.3,6.92,17.3,23.31-4.94,23.23-17.3,23.23S273.32,207.67,273.32,191.36Zm21.17,0c0-10.46-.91-13.92-4-13.92-3,0-3.95,3.46-3.95,13.92s1,13.84,3.95,13.84C293.58,205.2,294.49,201.91,294.49,191.36Z"/><path class="cls-4" d="M313.43,168.62h12.11v9.31l.09.09c1.48-5.44,4.28-9.4,10.95-9.4h.83v12.11h-.83c-6.18,0-10.46,2.23-10.46,12.94l.17,20.26H313.43Z"/><path class="cls-5" d="M388.07,166.4h-10v47.53H364.92V166.4H355V156.27h33.12Z"/><path class="cls-5" d="M389.22,168.62h12.11v9.31l.09.09c1.48-5.44,4.28-9.4,10.95-9.4h.83v12.11h-.83c-6.18,0-10.46,2.23-10.46,12.94l.16,20.26H389.22Z"/><path class="cls-5" d="M446.07,185.43v28.5H433.3v-4c-1.73,3-4.61,4.28-8.65,4.28-6.51,0-10.79-4.45-11-12-.25-9.72,6.26-16.73,19.61-20.19-.42-3.79-1.57-4.61-4.78-4.61-3.87,0-7.58.91-11.62,1.81l-1.73-8.81a65.84,65.84,0,0,1,15.24-2.31C440.05,168.13,446.07,172.25,446.07,185.43Zm-12.69,12v-6.92c-5.44,2.3-7.08,5.68-7.08,9.31,0,3,1.31,4.28,3.46,4.28C432.31,204.13,433.38,201.91,433.38,197.46Z"/><path class="cls-5" d="M452.33,163.6V152.15h12.85V163.6Zm12.85,50.33H452.33V168.62h12.85Z"/><path class="cls-5" d="M505.54,184.19v29.74H492.69V184.36c0-4.45-1.23-6.43-3.79-6.43-2.72,0-3.95,2-3.95,6.43v29.57H472.1V168.62H485v2.89a11.06,11.06,0,0,1,8.15-3.22C501.92,168.29,505.54,173.24,505.54,184.19Z"/><path class="cls-5" d="M511.8,163.6V152.15h12.85V163.6Zm12.85,50.33H511.8V168.62h12.85Z"/><path class="cls-5" d="M565,184.19v29.74H552.17V184.36c0-4.45-1.24-6.43-3.79-6.43-2.72,0-4,2-4,6.43v29.57H531.57V168.62h12.86v2.89a11.06,11.06,0,0,1,8.15-3.22C561.4,168.29,565,173.24,565,184.19Z"/><path class="cls-5" d="M603.9,168.62V212.2c0,14-6,18.7-17.63,18.7A46.39,46.39,0,0,1,573.75,229l1.48-9.06a31.18,31.18,0,0,0,8.9,1.48c5.93,0,6.92-2.64,6.92-10.63v-1.89c-1.89,1.81-4.45,2.72-7.91,2.72-10.38,0-13.1-7.66-13.1-21.75s2.72-21.67,13.1-21.67c3.55,0,6.1.91,7.91,2.72v-2.31ZM591.46,190c0-9.55-1.07-12.77-4.2-12.77s-4.2,3.22-4.2,12.77,1.15,12.77,4.2,12.77S591.46,199.68,591.46,190Z"/><path class="cls-6" d="M92.25,154.05c-12.54,0-18,6-18,20.24v18.19c0,14.34,5.41,20.32,18,20.32s18-6,18-20.32V174.29C110.27,160,104.87,154.05,92.25,154.05Zm4.59,40.06c0,6.56-1.23,8.94-4.59,8.94s-4.51-2.38-4.51-8.94V172.65c0-6.56,1.23-8.85,4.51-8.85s4.59,2.29,4.59,8.85ZM136.74,167h12.78v45.07H136.74v-2.54a10.84,10.84,0,0,1-8,3c-8.19,0-12.54-4.59-12.54-16.55V167H129v29.42c0,4.51,1.31,6.39,3.77,6.39,2.86,0,3.93-2,3.93-6.47ZM177,202.64v9.42h-4.75c-10.49,0-14.1-3.11-14.1-12.78V175.76h-3.85V167h3.85V154.7H170.9V167h5.66v8.77H170.9v22.53c0,3.28.74,4.35,3.86,4.35Z"/><path class="cls-7" d="M211.55,154.7h-14v57.36h14c16,0,20.48-4.75,20.48-28.68S227.52,154.7,211.55,154.7Zm.24,47.61h-1.14V164.45h1.14c6.23,0,7.13,2.3,7.13,18.93S218,202.31,211.79,202.31Zm42.28-35.89c-12.21,0-17,6.88-17,23.19s4.83,23.11,17,23.11,17.21-6.89,17.21-23.11S266.36,166.42,254.07,166.42Zm0,37c-2.95,0-3.93-3.27-3.93-13.76s1-13.85,3.93-13.85c3.11,0,4,3.44,4,13.85S257.18,203.37,254.07,203.37Zm38.59-37c-12.21,0-17,6.88-17,23.19s4.83,23.11,17,23.11,17.21-6.89,17.21-23.11S305,166.42,292.66,166.42Zm0,37c-3,0-3.93-3.27-3.93-13.76s1-13.85,3.93-13.85c3.12,0,4,3.44,4,13.85S295.78,203.37,292.66,203.37ZM339.37,167v12h-.82c-6.15,0-10.41,2.21-10.41,12.86l.16,20.16H315.52V167h12.05v9.26l.08.08c1.47-5.4,4.26-9.34,10.9-9.34Z"/><path class="cls-8" d="M356.82,154.7h32.94v10.08h-9.92v47.28H366.73V164.78h-9.91ZM403,176.33l-.08-.08V167H390.9v45.07h12.79l-.17-20.16c0-10.65,4.26-12.86,10.41-12.86h.82V167h-.82C407.29,167,404.5,170.93,403,176.33Zm44.41,7.38v28.35h-12.7v-3.93c-1.72,3-4.59,4.26-8.6,4.26-6.48,0-10.74-4.43-11-12-.25-9.66,6.23-16.63,19.5-20.07-.41-3.77-1.56-4.59-4.75-4.59-3.85,0-7.54.9-11.56,1.8l-1.72-8.76a65.61,65.61,0,0,1,15.16-2.3C441.46,166.5,447.44,170.6,447.44,183.71Zm-12.62,5.08c-5.4,2.29-7,5.65-7,9.26,0,2.95,1.31,4.26,3.44,4.26,2.54,0,3.6-2.21,3.6-6.64ZM453.67,162h12.78V150.6H453.67Zm0,50.07h12.78V167H453.67Zm40.56-45.39a11,11,0,0,0-8.12,3.19V167H473.33v45.07h12.78V182.64c0-4.42,1.23-6.39,3.94-6.39,2.54,0,3.77,2,3.77,6.39v29.42H506.6V182.48C506.6,171.58,503,166.67,494.23,166.67ZM512.82,162h12.79V150.6H512.82Zm0,50.07h12.79V167H512.82Zm40.56-45.39a11,11,0,0,0-8.11,3.19V167H532.49v45.07h12.78V182.64c0-4.42,1.23-6.39,3.93-6.39,2.54,0,3.77,2,3.77,6.39v29.42h12.79V182.48C565.76,171.58,562.15,166.67,553.38,166.67Zm51,.32v43.35c0,13.93-6,18.6-17.54,18.6a46.32,46.32,0,0,1-12.45-1.88l1.47-9a30.83,30.83,0,0,0,8.85,1.48c5.9,0,6.89-2.63,6.89-10.57v-1.89c-1.89,1.8-4.43,2.71-7.87,2.71-10.32,0-13-7.63-13-21.64s2.71-21.55,13-21.55c3.52,0,6.06.9,7.87,2.71V167ZM592.06,188.3c0-9.51-1.07-12.7-4.18-12.7s-4.18,3.19-4.18,12.7,1.15,12.7,4.18,12.7S592.06,197.88,592.06,188.3Z"/></svg>