<svg id="Layer_1" data-name="Layer 1" xmlns="http://www.w3.org/2000/svg" xmlns:xlink="http://www.w3.org/1999/xlink" viewBox="0 0 1036.37 1536.61"><defs><style>.cls-1,.cls-16,.cls-26,.cls-27,.cls-37,.cls-38,.cls-39,.cls-7,.cls-8,.cls-9{fill:none;}.cls-2{fill:#b8ad92;}.cls-2,.cls-27{stroke:#706f6f;}.cls-10,.cls-16,.cls-2,.cls-26,.cls-27,.cls-29,.cls-36,.cls-37,.cls-38,.cls-39,.cls-4,.cls-45,.cls-5,.cls-6,.cls-7,.cls-8,.cls-9{stroke-miterlimit:10;}.cls-10,.cls-2,.cls-27,.cls-4,.cls-5,.cls-6,.cls-7,.cls-8{stroke-width:6px;}.cls-3{fill:#878787;}.cls-4{fill:#364a9a;}.cls-4,.cls-5,.cls-6,.cls-7{stroke:#12100b;}.cls-5{fill:#17672e;}.cls-6{fill:#e52421;}.cls-8{stroke:#f6f6f6;stroke-opacity:0.47;}.cls-10,.cls-38,.cls-8{stroke-linecap:round;}.cls-10,.cls-29,.cls-36,.cls-37,.cls-38,.cls-39,.cls-45,.cls-9{stroke:#fff;}.cls-9{stroke-width:14px;}.cls-10,.cls-11,.cls-29,.cls-36,.cls-45{fill:#fff;}.cls-12{fill:url(#linear-gradient);}.cls-13{fill:url(#linear-gradient-2);}.cls-14{fill:#e94e1b;}.cls-15{fill:#dadada;opacity:0.79;}.cls-16{stroke:#1d1d1b;stroke-width:0.05px;}.cls-17,.cls-19{fill:#fff5b2;}.cls-17{opacity:0.57;}.cls-18{fill:#282f6a;}.cls-20{clip-path:url(#clip-path);}.cls-21{fill:#020101;}.cls-22{clip-path:url(#clip-path-2);}.cls-23{clip-path:url(#clip-path-3);}.cls-24{fill:#35aa4b;}.cls-25{fill:#b2b2b2;}.cls-26{stroke:#878787;}.cls-26,.cls-39{stroke-width:3px;}.cls-28{fill:url(#radial-gradient);}.cls-30{fill:url(#radial-gradient-2);}.cls-31{fill:url(#radial-gradient-3);}.cls-32{fill:url(#radial-gradient-4);}.cls-33{fill:url(#radial-gradient-5);}.cls-34{fill:url(#radial-gradient-6);}.cls-35{fill:url(#radial-gradient-7);}.cls-36{stroke-width:2px;}.cls-37{stroke-width:5px;}.cls-38{stroke-width:4px;}.cls-40{fill:url(#radial-gradient-8);}.cls-41{fill:url(#radial-gradient-9);}.cls-42{fill:url(#radial-gradient-10);}.cls-43{fill:url(#radial-gradient-11);}.cls-44{fill:url(#radial-gradient-12);}.cls-45{stroke-width:0.5px;}</style><linearGradient id="linear-gradient" x1="35.49" y1="386.66" x2="167.63" y2="386.66" gradientUnits="userSpaceOnUse"><stop offset="0" stop-color="#008ccf"/><stop offset="0.13" stop-color="#1999d6"/><stop offset="0.41" stop-color="#47b1e3"/><stop offset="0.66" stop-color="#6ac2ed"/><stop offset="0.86" stop-color="#7ecdf3"/><stop offset="1" stop-color="#86d1f5"/></linearGradient><linearGradient id="linear-gradient-2" x1="72.28" y1="386.73" x2="135.18" y2="386.73" xlink:href="#linear-gradient"/><clipPath id="clip-path"><rect class="cls-1" x="4" y="921" width="129" height="166"/></clipPath><clipPath id="clip-path-2"><rect class="cls-1" x="933" y="322" width="100" height="116"/></clipPath><clipPath id="clip-path-3"><rect class="cls-1" x="990" y="715" width="43" height="165"/></clipPath><radialGradient id="radial-gradient" cx="245.75" cy="1133.97" r="174.51" gradientUnits="userSpaceOnUse"><stop offset="0" stop-color="#edda9d"/><stop offset="0.31" stop-color="#eed79a"/><stop offset="0.58" stop-color="#f0cd8f"/><stop offset="0.83" stop-color="#f4bd7e"/><stop offset="1" stop-color="#f7ae6d"/></radialGradient><radialGradient id="radial-gradient-2" cx="520" cy="451.5" r="106.41" xlink:href="#radial-gradient"/><radialGradient id="radial-gradient-3" cx="487" cy="604.5" r="127.29" gradientUnits="userSpaceOnUse"><stop offset="0" stop-color="#7fcad2"/><stop offset="0.28" stop-color="#7cc9d0"/><stop offset="0.52" stop-color="#71c5c9"/><stop offset="0.74" stop-color="#60bebd"/><stop offset="0.95" stop-color="#47b5ac"/><stop offset="1" stop-color="#40b2a7"/></radialGradient><radialGradient id="radial-gradient-4" cx="449.5" cy="770" r="153.06" xlink:href="#radial-gradient-3"/><radialGradient id="radial-gradient-5" cx="500" cy="1052.5" r="121.96" xlink:href="#radial-gradient-3"/><radialGradient id="radial-gradient-6" cx="505" cy="1211.42" r="117.2" gradientUnits="userSpaceOnUse"><stop offset="0" stop-color="#f29597"/><stop offset="0.33" stop-color="#f29294"/><stop offset="0.62" stop-color="#f18989"/><stop offset="0.88" stop-color="#ef7b78"/><stop offset="1" stop-color="#ee726d"/></radialGradient><radialGradient id="radial-gradient-7" cx="422.5" cy="911" r="165.87" xlink:href="#radial-gradient-3"/><radialGradient id="radial-gradient-8" cx="800.5" cy="1210.5" r="82.44" xlink:href="#radial-gradient-6"/><radialGradient id="radial-gradient-9" cx="800" cy="1052" r="87.21" xlink:href="#radial-gradient-3"/><radialGradient id="radial-gradient-10" cx="800" cy="766" r="89.09" xlink:href="#radial-gradient-3"/><radialGradient id="radial-gradient-11" cx="799.5" cy="601.5" r="85.42" xlink:href="#radial-gradient-3"/><radialGradient id="radial-gradient-12" cx="798.5" cy="448" r="82.77" xlink:href="#radial-gradient-3"/></defs><rect class="cls-2" x="1.02" width="1035.35" height="1543.5"/><path class="cls-3" d="M1033,1399.43H874.06a7.22,7.22,0,0,0-7.16,7.19L865,1541H739l-10-35-22-23.06L671,1456l-59-20.93L538,1429l-1.94-19.09a11.5,11.5,0,0,0-11.36-10.44H0V1321H1033Z"/><path class="cls-4" d="M536.57,1412.82V1541H1V1398.19H525.37C531.56,1398.19,536.57,1404.74,536.57,1412.82Z"/><rect class="cls-5" x="707.25" width="328.75" height="278.41"/><rect class="cls-6" x="1" width="651.13" height="278.41"/><line class="cls-7" x1="1033" y1="1321.6" x2="1" y2="1321.3"/><polyline class="cls-3" points="1 278.41 470.42 278.41 21.36 1288 1 1288"/><line class="cls-8" x1="974.3" y1="1363.53" x2="1016.86" y2="1363.53"/><line class="cls-8" x1="866.19" y1="1363.53" x2="908.75" y2="1363.53"/><line class="cls-8" x1="758.08" y1="1363.53" x2="800.64" y2="1363.53"/><line class="cls-9" x1="735" y1="1522" x2="865" y2="1521.53"/><line class="cls-8" x1="566.86" y1="1363.53" x2="609.42" y2="1363.53"/><line class="cls-8" x1="458.75" y1="1363.53" x2="501.3" y2="1363.53"/><line class="cls-8" x1="350.63" y1="1363.53" x2="393.19" y2="1363.53"/><line class="cls-8" x1="242.52" y1="1363.53" x2="285.08" y2="1363.53"/><line class="cls-8" x1="134.41" y1="1363.53" x2="176.97" y2="1363.53"/><line class="cls-8" x1="26.3" y1="1363.53" x2="68.86" y2="1363.53"/><line class="cls-8" x1="251.32" y1="365.5" x2="373.82" y2="488"/><line class="cls-8" x1="316.5" y1="279.5" x2="421" y2="384"/><line class="cls-8" x1="207.39" y1="466.5" x2="329.89" y2="589"/><line class="cls-8" x1="161.46" y1="570.5" x2="283.96" y2="693"/><line class="cls-8" x1="111.54" y1="681.5" x2="234.04" y2="804"/><line class="cls-8" x1="63.61" y1="794.5" x2="186.11" y2="917"/><line class="cls-8" x1="16.68" y1="900.5" x2="139.18" y2="1023"/><line class="cls-8" x1="1" y1="1046" x2="87" y2="1132"/><line class="cls-10" x1="666.3" y1="1443.7" x2="708.86" y2="1443.7"/><line class="cls-10" x1="680.23" y1="1460.57" x2="708.86" y2="1460.57"/><line class="cls-10" x1="666.3" y1="1426.41" x2="708.86" y2="1426.41"/><line class="cls-10" x1="666.3" y1="1409.12" x2="708.86" y2="1409.12"/><line class="cls-10" x1="666.3" y1="1391.82" x2="708.86" y2="1391.82"/><line class="cls-10" x1="666.3" y1="1374.53" x2="708.86" y2="1374.53"/><line class="cls-10" x1="666.3" y1="1357.24" x2="708.86" y2="1357.24"/><line class="cls-10" x1="666.3" y1="1339.95" x2="708.86" y2="1339.95"/><path class="cls-7" d="M738.71,1542.09c0-63.89-90.41-115.58-202.14-115.58"/><path class="cls-4" d="M1036,1398.19V1541H865V1412.24c0-7.76,3.35-14,7.47-14Z"/><path class="cls-7" d="M1,278.41H470.42L23.36,1283.5a7.56,7.56,0,0,1-6.92,4.5H1"/><rect class="cls-11" x="44" y="332" width="113" height="110"/><path class="cls-12" d="M101.6,321.32h45.5a19.92,19.92,0,0,1,20,15.71,22.38,22.38,0,0,1,.5,5.11c0,29.67-.07,59.34.07,89a20.47,20.47,0,0,1-15.95,20.4,20.76,20.76,0,0,1-4.16.43q-46,0-91.94,0a19.87,19.87,0,0,1-20-19.73c-.12-20-.05-39.92-.05-59.88,0-10.66,0-21.32.05-32,.07-9,7.81-17.64,16.77-18.79a32.28,32.28,0,0,1,4.05-.27Q79,321.31,101.6,321.32Zm-.13,117.37c15.13,0,30.25-.07,45.37.05a7.25,7.25,0,0,0,7.5-7.43q-.1-44.65,0-89.3a7.27,7.27,0,0,0-7.5-7.43q-45.3.14-90.59,0a7.3,7.3,0,0,0-7.51,7.57c.08,29.67,0,59.35,0,89a9.71,9.71,0,0,0,.18,2.29c.8,3.27,3.43,5.22,7,5.23Z"/><path class="cls-13" d="M92,399.57V401c0,6.44,0,12.88,0,19.32,0,4.25-1.77,7.53-5.64,9.49a9.74,9.74,0,0,1-13.87-7.7c-.12-1.21-.19-2.43-.19-3.66q0-34,0-68c0-4.35,1.83-6.45,6.08-7a31.82,31.82,0,0,1,3.23-.32c7.15-.2,14.3-.61,21.43-.5,6.91.1,13.7,1.29,19.79,4.86a24.08,24.08,0,0,1,11.86,17.34,30.54,30.54,0,0,1-2.39,18.55c-3.05,6.58-8.36,10.7-14.92,13.29-8,3.14-16.25,3.63-24.67,2.89Zm.08-15.44a38.27,38.27,0,0,0,11.1.08c7.91-1.15,12.5-6.65,12.26-14.64a11.46,11.46,0,0,0-9.21-11.26A32.68,32.68,0,0,0,93.31,358c-1,.16-1.34.5-1.33,1.53,0,7.76,0,15.52,0,23.28C92,383.22,92.05,383.62,92.08,384.13Z"/><path class="cls-14" d="M336.21,534.44l-11.92,8.41c-5,3.51-9.62,3.86-14.78-.21-9.07-7.15-18-14.29-23.62-24.72a8.65,8.65,0,0,0-1.32-1.85Q269,499.17,253.36,482.31c-.13-.15-.37-.2-.84-.43l-4.33,5c-1.86-2.81-2.59-1.89,2-8.68-3.15-2.72-6.62-5.28-9.54-8.35-4.14-4.36-7.89-9.09-11.8-13.68-1.19-1.4-2.3-2.86-3.52-4.23-2.55-2.83-3-6.5-.66-9.59,3.62-4.87,7-10,11.31-14.23,5.24-5.09,11.34-9.3,17.13-13.81,1.52-1.2,3.32-2,4.89-3.18,4.14-3,7.73-2.63,11.3.95,4.86,4.86,10.17,9.3,14.81,14.36,3.37,3.66,6,8,8.84,12,3.34-1.06,5.59-4.84,9.12-1.34l-5.84,4.18,2.58,2.78c7.52,8.14,14.94,16.39,22.62,24.38a160.71,160.71,0,0,0,13.79,12.82c8.41,6.88,14.22,15.71,19.23,25.1a8,8,0,0,1-.17,6.66c-2.34,4.1-5.48,7.74-8.33,11.55-1,1.28-2,2.47-3.06,3.7ZM298.68,459c-3.54-5.8-6.79-11.24-10.17-16.6-1.77-2.79-4.42-2.83-7.18-1.71a11.94,11.94,0,0,0-3.4,1.86c-7.06,6.24-14.17,12.43-21,18.91a18.45,18.45,0,0,0-4.17,6.84,5.54,5.54,0,0,0,.79,4.71c4.59,5.29,10.72,8.46,16.95,11.85A73.76,73.76,0,0,1,298.68,459Zm2.6,59.94c4,4.28,7.33,8.17,11,11.73a4.79,4.79,0,0,0,4.14.63,43.21,43.21,0,0,0,24.42-22.58,4.45,4.45,0,0,0-.17-3.9c-3.36-4-7-7.77-11.11-12.18C322.34,504.26,313.21,512.42,301.28,518.93ZM280.8,497,276,501.45c7.62,9.53,21.39,21.7,26.6,23Zm53.85-3,.71-.71C330,482.9,322.12,474.5,314.2,466.05l-4.81,4.45Zm-22-29.88L295.8,445.92c3.31,7.89,6.62,15.72,12.1,22.6Zm-54.95,16.7-.33.54,16.89,18.27,5.16-4.77Z"/><path class="cls-15" d="M298.68,459a73.76,73.76,0,0,0-28.18,25.86c-6.23-3.39-12.36-6.56-16.95-11.85a5.54,5.54,0,0,1-.79-4.71,18.45,18.45,0,0,1,4.17-6.84c6.83-6.48,13.94-12.67,21-18.91a11.94,11.94,0,0,1,3.4-1.86c2.76-1.12,5.41-1.08,7.18,1.71C291.89,447.75,295.14,453.19,298.68,459Z"/><path class="cls-15" d="M301.28,518.93c11.93-6.51,21.06-14.67,28.29-26.3,4.08,4.41,7.75,8.17,11.11,12.18a4.45,4.45,0,0,1,.17,3.9,43.21,43.21,0,0,1-24.42,22.58,4.79,4.79,0,0,1-4.14-.63C308.61,527.1,305.23,523.21,301.28,518.93Z"/><path class="cls-15" d="M280.8,497l21.81,27.47c-5.21-1.33-19-13.5-26.6-23Z"/><path class="cls-15" d="M334.65,494,309.39,470.5l4.81-4.45c7.92,8.45,15.82,16.85,21.16,27.26Z"/><path class="cls-15" d="M312.64,464.14l-4.74,4.38c-5.48-6.88-8.79-14.71-12.1-22.6Z"/><path class="cls-15" d="M257.69,480.84l21.72,14-5.16,4.77-16.89-18.27Z"/><line class="cls-16" x1="265.06" y1="463.53" x2="283.59" y2="459.9"/><line class="cls-16" x1="268.69" y1="461.72" x2="280.42" y2="459.25"/><line class="cls-16" x1="267.62" y1="464.07" x2="280.78" y2="461.48"/><line class="cls-16" x1="316.79" y1="521.87" x2="325.09" y2="520.86"/><line class="cls-16" x1="313.81" y1="520.87" x2="328.36" y2="519.04"/><line class="cls-16" x1="316.82" y1="518.94" x2="327.08" y2="517.83"/><path class="cls-17" d="M228.13,437.65c1.14,1.1,4.43,5.5,4.36,7.33s-5.89,8.35-5.89,8.35-4.73-4.71-3.35-8.25A30.33,30.33,0,0,1,228.13,437.65Z"/><path class="cls-17" d="M254.4,413.38c1,1.21,5.24,4.79,7.07,4.84s8.71-5.34,8.71-5.34-4.39-5-8-3.87A30.77,30.77,0,0,0,254.4,413.38Z"/><path class="cls-18" d="M150.91,626l11.93-8.42c5-3.5,9.61-3.86,14.78.21,9.07,7.15,18,14.3,23.61,24.73a9.06,9.06,0,0,0,1.33,1.85q15.58,16.89,31.2,33.76c.13.15.37.2.85.43l4.32-5c1.87,2.81,2.6,1.88-2,8.68,3.14,2.72,6.61,5.27,9.53,8.35,4.15,4.36,7.9,9.09,11.81,13.68,1.19,1.39,2.29,2.86,3.52,4.23,2.54,2.83,3,6.5.65,9.59-3.62,4.86-7,10-11.3,14.23-5.25,5.08-11.35,9.3-17.13,13.81-1.53,1.19-3.33,2-4.9,3.18-4.13,3-7.73,2.62-11.3-.95-4.86-4.87-10.16-9.31-14.81-14.36-3.37-3.66-6-8-8.84-12-3.33,1.06-5.58,4.84-9.12,1.34l5.84-4.18-2.57-2.78c-7.53-8.14-14.94-16.39-22.63-24.38a157.57,157.57,0,0,0-13.78-12.82c-8.42-6.89-14.23-15.71-19.24-25.1a8.07,8.07,0,0,1,.17-6.66c2.34-4.1,5.48-7.75,8.34-11.55,1-1.28,2-2.47,3.06-3.71Zm37.53,75.45c3.54,5.79,6.79,11.24,10.18,16.6,1.76,2.79,4.42,2.83,7.18,1.71a11.54,11.54,0,0,0,3.39-1.87c7.07-6.23,14.17-12.43,21-18.91a18.43,18.43,0,0,0,4.16-6.83,5.54,5.54,0,0,0-.79-4.71c-4.58-5.29-10.72-8.46-16.95-11.85A73.91,73.91,0,0,1,188.44,701.44Zm-2.6-60c-4-4.27-7.32-8.16-11-11.72a4.73,4.73,0,0,0-4.13-.63,43.21,43.21,0,0,0-24.42,22.58,4.45,4.45,0,0,0,.17,3.9c3.36,4,7,7.77,11.1,12.18C164.79,656.16,173.91,648,185.84,641.49Zm20.48,21.92,4.79-4.43c-7.61-9.53-21.39-21.7-26.59-23Zm-53.84,3-.71.71c5.33,10.41,13.23,18.81,21.15,27.25l4.82-4.45Zm22,29.88,16.84,18.21c-3.32-7.88-6.63-15.71-12.1-22.59Zm54.95-16.7.33-.55-16.9-18.27-5.16,4.78Z"/><path class="cls-15" d="M188.44,701.44a73.91,73.91,0,0,0,28.18-25.86c6.23,3.39,12.37,6.56,16.95,11.85a5.54,5.54,0,0,1,.79,4.71A18.43,18.43,0,0,1,230.2,699c-6.84,6.48-13.94,12.68-21,18.91a11.54,11.54,0,0,1-3.39,1.87c-2.76,1.12-5.42,1.08-7.18-1.71C195.23,712.68,192,707.23,188.44,701.44Z"/><path class="cls-15" d="M185.84,641.49c-11.93,6.52-21.05,14.67-28.29,26.31-4.07-4.41-7.74-8.17-11.1-12.18a4.45,4.45,0,0,1-.17-3.9,43.21,43.21,0,0,1,24.42-22.58,4.73,4.73,0,0,1,4.13.63C178.52,633.33,181.89,637.22,185.84,641.49Z"/><path class="cls-15" d="M206.32,663.41,184.52,636c5.2,1.33,19,13.5,26.59,23Z"/><path class="cls-15" d="M152.48,666.41l25.26,23.51-4.82,4.45c-7.92-8.44-15.82-16.84-21.15-27.25Z"/><path class="cls-15" d="M174.49,696.29l4.74-4.38c5.47,6.88,8.78,14.71,12.1,22.59Z"/><path class="cls-15" d="M229.44,679.59l-21.73-14,5.16-4.78L229.77,679Z"/><line class="cls-16" x1="222.06" y1="696.9" x2="203.53" y2="700.53"/><line class="cls-16" x1="218.44" y1="698.71" x2="206.7" y2="701.18"/><line class="cls-16" x1="219.51" y1="696.35" x2="206.35" y2="698.95"/><line class="cls-16" x1="170.33" y1="638.56" x2="162.03" y2="639.56"/><line class="cls-16" x1="173.31" y1="639.56" x2="158.76" y2="641.39"/><line class="cls-16" x1="170.31" y1="641.49" x2="160.05" y2="642.59"/><path class="cls-19" d="M259,722.77c-1.13-1.09-4.43-5.49-4.36-7.32s5.9-8.35,5.9-8.35,4.72,4.7,3.34,8.25A29.88,29.88,0,0,1,259,722.77Z"/><path class="cls-19" d="M232.73,747c-1-1.2-5.24-4.79-7.08-4.83s-8.71,5.34-8.71,5.34,4.39,5,8,3.87A30.81,30.81,0,0,0,232.73,747Z"/><g class="cls-20"><path class="cls-21" d="M96.21,1072.44l-11.92,8.41c-5,3.51-9.62,3.86-14.78-.21-9.07-7.15-18-14.29-23.62-24.72a8.65,8.65,0,0,0-1.32-1.85q-15.58-16.9-31.21-33.76c-.13-.15-.37-.2-.84-.43l-4.33,5c-1.86-2.81-2.59-1.89,2-8.68-3.15-2.72-6.62-5.28-9.54-8.35-4.14-4.36-7.89-9.09-11.8-13.68-1.19-1.4-2.3-2.86-3.52-4.23-2.55-2.83-3-6.5-.66-9.59,3.62-4.87,7-10.05,11.31-14.23,5.24-5.09,11.34-9.3,17.13-13.81,1.52-1.2,3.32-2,4.89-3.18,4.14-3,7.73-2.63,11.3,1,4.86,4.86,10.17,9.3,14.81,14.36,3.37,3.66,6,8,8.84,12,3.34-1.06,5.59-4.84,9.12-1.34l-5.84,4.18L58.84,982c7.52,8.14,14.94,16.39,22.62,24.38a160.71,160.71,0,0,0,13.79,12.82c8.41,6.88,14.22,15.71,19.23,25.1a8,8,0,0,1-.17,6.66c-2.34,4.1-5.48,7.74-8.33,11.55-1,1.28-2,2.47-3.06,3.7ZM58.68,997c-3.54-5.8-6.79-11.24-10.17-16.6-1.77-2.79-4.42-2.83-7.18-1.71a11.94,11.94,0,0,0-3.4,1.86c-7.06,6.24-14.17,12.43-21,18.91a18.45,18.45,0,0,0-4.17,6.84,5.54,5.54,0,0,0,.79,4.71c4.59,5.29,10.72,8.46,17,11.85A73.76,73.76,0,0,1,58.68,997Zm2.6,59.94c4,4.28,7.33,8.17,11,11.73a4.79,4.79,0,0,0,4.14.63,43.21,43.21,0,0,0,24.42-22.58,4.45,4.45,0,0,0-.17-3.9c-3.36-4-7-7.77-11.11-12.18C82.34,1042.26,73.21,1050.42,61.28,1056.93ZM40.8,1035,36,1039.45c7.62,9.53,21.39,21.7,26.6,23Zm53.85-3,.71-.71C90,1020.9,82.12,1012.5,74.2,1004.05l-4.81,4.45Zm-22-29.88L55.8,983.92c3.31,7.89,6.62,15.72,12.1,22.6Zm-54.95,16.7-.33.54,16.89,18.27,5.16-4.77Z"/><path class="cls-15" d="M58.68,997a73.76,73.76,0,0,0-28.18,25.86c-6.23-3.39-12.36-6.56-16.95-11.85a5.54,5.54,0,0,1-.79-4.71,18.45,18.45,0,0,1,4.17-6.84c6.83-6.48,13.94-12.67,21-18.91a11.94,11.94,0,0,1,3.4-1.86c2.76-1.12,5.41-1.08,7.18,1.71C51.89,985.75,55.14,991.19,58.68,997Z"/><path class="cls-15" d="M61.28,1056.93c11.93-6.51,21.06-14.67,28.29-26.3,4.08,4.41,7.75,8.17,11.11,12.18a4.45,4.45,0,0,1,.17,3.9,43.21,43.21,0,0,1-24.42,22.58,4.79,4.79,0,0,1-4.14-.63C68.61,1065.1,65.23,1061.21,61.28,1056.93Z"/><path class="cls-15" d="M40.8,1035l21.81,27.47c-5.21-1.33-19-13.5-26.6-23Z"/><path class="cls-15" d="M94.65,1032,69.39,1008.5l4.81-4.45c7.92,8.45,15.82,16.85,21.16,27.26Z"/><path class="cls-15" d="M72.64,1002.14l-4.74,4.38c-5.48-6.88-8.79-14.71-12.1-22.6Z"/><path class="cls-15" d="M17.69,1018.84l21.72,14-5.16,4.77-16.89-18.27Z"/><line class="cls-16" x1="25.06" y1="1001.53" x2="43.59" y2="997.9"/><line class="cls-16" x1="28.69" y1="999.72" x2="40.42" y2="997.25"/><line class="cls-16" x1="27.62" y1="1002.07" x2="40.78" y2="999.48"/><line class="cls-16" x1="76.79" y1="1059.87" x2="85.09" y2="1058.86"/><line class="cls-16" x1="73.81" y1="1058.87" x2="88.36" y2="1057.04"/><line class="cls-16" x1="76.82" y1="1056.94" x2="87.08" y2="1055.83"/><path class="cls-19" d="M14.4,951.38c1,1.21,5.24,4.79,7.07,4.84s8.71-5.34,8.71-5.34-4.39-5-8-3.87A30.77,30.77,0,0,0,14.4,951.38Z"/></g><path class="cls-3" d="M1036,302H921.71V590s59.74-9.16,61.29,19-4,280.62-4,280.62h57.21Z"/><line class="cls-7" x1="964.98" y1="1289.65" x2="1036" y2="1289.65"/><g class="cls-22"><path class="cls-11" d="M1083.69,395.34q-1.25,7.19-2.48,14.38c-1,6-4.07,9.53-10.6,10.3-11.47,1.36-22.85,2.64-34.18-.78a9,9,0,0,0-2.25-.37q-23-.93-45.94-1.81a3.47,3.47,0,0,0-.89.29c.15,2.14.3,4.35.46,6.59-3.3-.67-3.16.5-4.7-7.57-4.15.3-8.41.95-12.65.84-6-.15-12-.85-18-1.33-1.83-.14-3.65-.4-5.48-.5-3.8-.2-6.69-2.5-7.24-6.32-.88-6-2.17-12.05-2.08-18.05.12-7.31,1.45-14.6,2.35-21.88.24-1.93.92-3.79,1.22-5.71.78-5.06,3.61-7.32,8.66-7.32,6.88,0,13.77-.61,20.63-.32,5,.21,9.9,1.45,14.71,2.21,1.61-3.1.53-7.37,5.51-7.39l-1.18,7.08,3.79.15c11.07.44,22.15,1,33.23,1.24a159.76,159.76,0,0,0,18.82-.68c10.82-1.09,21.16,1.05,31.34,4.14a8.06,8.06,0,0,1,4.6,4.84c1.24,4.55,1.6,9.35,2.26,14.05.23,1.59.32,3.19.46,4.79Zm-79.89-26.82c-6.6-1.59-12.75-3.14-18.93-4.54-3.22-.72-5.13,1.12-6.29,3.87a11.83,11.83,0,0,0-1.08,3.72c-.59,9.4-1.23,18.81-1.48,28.22a18.41,18.41,0,0,0,1.89,7.78,5.51,5.51,0,0,0,3.88,2.77c7,.5,13.57-1.6,20.37-3.61A73.93,73.93,0,0,1,1003.8,368.52ZM1048,409.08c5.81.22,11,.59,16.08.5a4.76,4.76,0,0,0,3.36-2.48,43.19,43.19,0,0,0,1.31-33.23,4.49,4.49,0,0,0-2.88-2.64c-5.22-.46-10.47-.53-16.47-.76C1052.54,383.81,1051.86,396,1048,409.08Zm-30-1-.26,6.53c12.13,1.35,30.47.22,35.1-2.52Zm36-40.19v-1c-11.13-3.58-22.66-3.94-34.23-4.31l-.26,6.55Zm-36.69-5.56-24.79-1c7.92,3.22,15.8,6.42,24.54,7.42Zm-27,50.66.15.62,24.86,1,.28-7Z"/><path class="cls-15" d="M1003.8,368.52a73.93,73.93,0,0,0-1.64,38.21c-6.8,2-13.38,4.11-20.37,3.61a5.51,5.51,0,0,1-3.88-2.77,18.41,18.41,0,0,1-1.89-7.78c.25-9.41.89-18.82,1.48-28.22a11.83,11.83,0,0,1,1.08-3.72c1.16-2.75,3.07-4.59,6.29-3.87C991.05,365.38,997.2,366.93,1003.8,368.52Z"/><path class="cls-15" d="M1018.05,408.05l34.84,4c-4.63,2.74-23,3.87-35.1,2.52Z"/><path class="cls-15" d="M1054,367.86l-34.49,1.24.26-6.55c11.57.37,23.1.73,34.23,4.31Z"/><path class="cls-15" d="M1017.31,362.3l-.25,6.45c-8.74-1-16.62-4.2-24.54-7.42Z"/><path class="cls-15" d="M990.27,413l25.29-5.43-.28,7-24.86-1Z"/><line class="cls-16" x1="983.24" y1="395.51" x2="993.78" y2="379.84"/><line class="cls-16" x1="984.52" y1="391.66" x2="991.07" y2="381.62"/><line class="cls-16" x1="985.43" y1="394.09" x2="992.9" y2="382.95"/><path class="cls-19" d="M938.83,403.32c1.57,0,7,.76,8.26,2.1s1.74,10.07,1.74,10.07-6.67,0-8.2-3.47A30.08,30.08,0,0,1,938.83,403.32Z"/><path class="cls-19" d="M940.24,367.59c1.57.13,7.09-.32,8.42-1.58s2.38-9.94,2.38-9.94-6.65-.44-8.4,2.94A31,31,0,0,0,940.24,367.59Z"/></g><g class="cls-23"><path class="cls-24" d="M1040.19,725.31l14.38,2.48c6,1,9.53,4.07,10.3,10.6,1.36,11.47,2.64,22.85-.79,34.18a9.53,9.53,0,0,0-.37,2.25q-.92,23-1.81,45.94a4.19,4.19,0,0,0,.3.89l6.59-.46c-.67,3.3.5,3.16-7.57,4.7.3,4.15,1,8.41.84,12.65-.15,6-.85,12-1.33,18-.14,1.83-.4,3.65-.5,5.48-.2,3.8-2.5,6.69-6.32,7.24-6,.88-12.05,2.17-18.06,2.08-7.3-.12-14.59-1.45-21.87-2.35-1.93-.24-3.79-.92-5.71-1.22-5.07-.78-7.32-3.61-7.32-8.66,0-6.88-.61-13.77-.32-20.63.21-5,1.45-9.9,2.21-14.71-3.11-1.61-7.37-.53-7.39-5.51l7.08,1.18c.06-1.44.11-2.62.15-3.79.43-11.07,1-22.15,1.24-33.23a159.76,159.76,0,0,0-.68-18.82c-1.09-10.82,1-21.16,4.14-31.34a8.07,8.07,0,0,1,4.83-4.6c4.56-1.24,9.36-1.6,14.06-2.26,1.59-.23,3.19-.32,4.79-.46Zm-26.82,79.89c-1.59,6.6-3.15,12.75-4.54,18.93-.73,3.22,1.12,5.13,3.87,6.29a11.83,11.83,0,0,0,3.72,1.08c9.4.59,18.81,1.23,28.22,1.48a18.41,18.41,0,0,0,7.78-1.89,5.51,5.51,0,0,0,2.77-3.88c.5-7-1.6-13.57-3.61-20.37A73.93,73.93,0,0,1,1013.37,805.2ZM1053.92,761c.23-5.81.59-11,.51-16.08a4.76,4.76,0,0,0-2.48-3.36,43.22,43.22,0,0,0-33.24-1.31,4.47,4.47,0,0,0-2.63,2.88c-.46,5.22-.53,10.47-.76,16.47C1028.66,756.46,1040.88,757.14,1053.92,761Zm-1,30,6.53.26c1.35-12.13.22-30.47-2.52-35.1C1055.53,768.08,1054.24,779.35,1052.9,791Zm-40.19-36h-1c-3.59,11.13-3.94,22.66-4.31,34.23l6.54.26C1013.53,777.81,1013.12,766.41,1012.71,755Zm-5.57,36.69-1,24.79c3.23-7.92,6.43-15.8,7.43-24.54Zm50.67,27,.62-.15,1-24.86-7-.28Z"/><path class="cls-15" d="M1013.37,805.2a73.93,73.93,0,0,0,38.21,1.64c2,6.8,4.11,13.38,3.61,20.37a5.51,5.51,0,0,1-2.77,3.88,18.41,18.41,0,0,1-7.78,1.89c-9.41-.25-18.82-.89-28.22-1.48a11.83,11.83,0,0,1-3.72-1.08c-2.75-1.16-4.6-3.07-3.87-6.29C1010.22,818,1011.78,811.8,1013.37,805.2Z"/><path class="cls-15" d="M1053.92,761c-13-3.83-25.26-4.51-38.6-1.4.23-6,.3-11.25.76-16.47a4.47,4.47,0,0,1,2.63-2.88,43.22,43.22,0,0,1,33.24,1.31,4.76,4.76,0,0,1,2.48,3.36C1054.51,750,1054.15,755.16,1053.92,761Z"/><path class="cls-15" d="M1012.71,755c.41,11.41.82,22.81,1.23,34.49l-6.54-.26c.37-11.57.72-23.1,4.31-34.23Z"/><path class="cls-15" d="M1007.14,791.69l6.46.25c-1,8.74-4.2,16.62-7.43,24.54Z"/><line class="cls-16" x1="1040.36" y1="825.76" x2="1024.69" y2="815.22"/><line class="cls-16" x1="1036.51" y1="824.48" x2="1026.47" y2="817.93"/><line class="cls-16" x1="1038.94" y1="823.57" x2="1027.79" y2="816.1"/><line class="cls-16" x1="1046.43" y1="750.75" x2="1034.85" y2="741.75"/><line class="cls-16" x1="1042.94" y1="749.98" x2="1034.9" y2="743.51"/><path class="cls-19" d="M1012.44,868.76c.13-1.57-.32-7.09-1.58-8.42s-9.94-2.38-9.94-2.38-.44,6.65,2.94,8.4A31,31,0,0,0,1012.44,868.76Z"/></g><rect class="cls-25" x="950" y="929" width="83" height="331"/><polyline class="cls-26" points="1036 908 938 908 937.27 1286.77"/><path class="cls-7" d="M1036,302H928.44a6.73,6.73,0,0,0-6.73,6.73v974a6.94,6.94,0,0,0,6.94,6.94H940"/><rect class="cls-27" x="1" width="1035.21" height="1541"/><path d="M497.27,450.42v-1.07h0v1.07Z"/><path class="cls-28" d="M62,1291.94,353.54,1290a5.8,5.8,0,0,0,5.09-3.08l76.05-142.82a5.81,5.81,0,0,0-4.87-8.53l-70.93-3.19a5.81,5.81,0,0,1-4.94-8.38L432,976H196.78a5.79,5.79,0,0,0-5.31,3.46L56.64,1283.78A5.81,5.81,0,0,0,62,1291.94Z"/><path class="cls-29" d="M156,1210.28h1.48v1.55l-1.48.09Z"/><path class="cls-29" d="M191,1193.78l4.54,1.81c-.17,1-.35,1.87-.48,2.8a.78.78,0,0,0,.23.65,19,19,0,0,1,3.95,3.86.81.81,0,0,0,.66.23c.79-.12,1.56-.31,2.34-.49.29-.07.5-.07.64.28.51,1.24,1,2.47,1.58,3.69.15.33.07.48-.2.66-.78.53-1.55,1.08-2.34,1.64a15.35,15.35,0,0,1,.14,6c0,.14.15.36.29.46.8.54,1.62,1.05,2.48,1.61l-1.82,4.55c-.91-.17-1.79-.32-2.67-.5a.69.69,0,0,0-.85.3,15.85,15.85,0,0,1-3.77,3.85.59.59,0,0,0-.28.72c.23.91.41,1.84.61,2.79l-4.45,1.92c-.56-.79-1.11-1.56-1.64-2.33a.59.59,0,0,0-.72-.3,13.07,13.07,0,0,1-5.25.09.72.72,0,0,0-.87.38c-.46.76-1,1.47-1.49,2.26l-4.56-1.82c.18-1,.37-1.92.51-2.87a.73.73,0,0,0-.21-.55,18.92,18.92,0,0,1-4-4,.68.68,0,0,0-.56-.18c-.76.13-1.52.3-2.27.49-.4.1-.64.05-.82-.4-.53-1.31-1.11-2.61-1.69-4,.8-.56,1.58-1.08,2.32-1.66a.81.81,0,0,0,.3-.64,15,15,0,0,1-.08-5.38.66.66,0,0,0-.38-.79c-.66-.41-1.31-.84-1.93-1.3a.58.58,0,0,1-.21-.48c.55-1.42,1.13-2.83,1.71-4.28.9.17,1.76.33,2.62.51a.79.79,0,0,0,.94-.37,15.72,15.72,0,0,1,3.65-3.72.73.73,0,0,0,.33-.89c-.21-.75-.32-1.52-.52-2.27-.08-.31,0-.45.28-.57l4.1-1.76c.49.73,1,1.45,1.45,2.19a.77.77,0,0,0,1,.41,12.15,12.15,0,0,1,4.88-.09,1,1,0,0,0,1.21-.54C190,1195.14,190.47,1194.49,191,1193.78Zm-12.67,3.1c.17.89.36,1.75.49,2.62a.63.63,0,0,1-.23.53,14.46,14.46,0,0,0-4.76,4.86.63.63,0,0,1-.77.33c-.68-.15-1.36-.25-2-.43-.41-.11-.56,0-.69.38a10.09,10.09,0,0,1-.52,1.28.45.45,0,0,0,.21.7c.65.39,1.28.8,1.89,1.25a.7.7,0,0,1,.23.59,15.57,15.57,0,0,0,.11,6.86.57.57,0,0,1-.29.72c-.72.45-1.42,1-2.12,1.43.28.63.57,1.17.77,1.73a.53.53,0,0,0,.73.37c.69-.15,1.39-.27,2.08-.44a.53.53,0,0,1,.67.28c.34.53.71,1,1.1,1.54a14.15,14.15,0,0,0,4.11,3.47l-.59,3,2.19.9c.51-.78,1-1.53,1.48-2.24a.81.81,0,0,1,.65-.26,14.3,14.3,0,0,0,6.79-.1.58.58,0,0,1,.76.3c.45.7.93,1.38,1.43,2.09l2.18-1c-.18-.94-.36-1.8-.5-2.67a.57.57,0,0,1,.18-.49,14.6,14.6,0,0,0,4.84-5,.56.56,0,0,1,.72-.28c.7.16,1.39.31,2.09.43.17,0,.47,0,.52-.15.3-.64.55-1.3.82-2-.79-.51-1.5-1-2.22-1.45a.55.55,0,0,1-.3-.7,14.88,14.88,0,0,0-.09-6.8.56.56,0,0,1,.29-.71c.72-.47,1.41-1,2.12-1.44-.28-.62-.56-1.16-.77-1.73-.16-.41-.39-.45-.77-.36a20.22,20.22,0,0,1-2,.4.81.81,0,0,1-.65-.27,14.51,14.51,0,0,0-4.9-4.8.68.68,0,0,1-.25-.57c.13-.88.32-1.75.49-2.64l-2.18-.88c-.48.72-1,1.41-1.38,2.13a.73.73,0,0,1-.93.37,13.43,13.43,0,0,0-6.24,0,1,1,0,0,1-1.36-.55c-.35-.61-.78-1.5-1.32-1.62s-1.31.5-2,.8Z"/><path class="cls-29" d="M203.83,1188.65l.95-1.25a29.72,29.72,0,0,1,9.93,13.3,30.62,30.62,0,0,1,1.58,16.64l3.39-2.18.83,1.32-5.57,3.65-3.64-5.57,1.22-.82,2.07,3.17c1.29-1.11.51-10.77-1.3-15.53A29,29,0,0,0,203.83,1188.65Z"/><path class="cls-29" d="M157.65,1208.37a3.82,3.82,0,0,1-.48,0c-.31,0-.62-.1-.92-.15.34-7,5.67-19.73,19.69-25.13l-3.55-1.79.71-1.34,5.87,2.94-2.94,6-1.33-.71,1.74-3.51C168.2,1187.3,158.9,1196.18,157.65,1208.37Z"/><path class="cls-29" d="M197.4,1238.55l.33,1.39c-11.54,4-22,2.14-31.57-5.48,0,.68.1,1.32.12,2s0,1.25,0,1.94l-1.46.14-.2-6.7,6.67-.21.1,1.54-4,.23a29.18,29.18,0,0,0,14.27,6.81A28.5,28.5,0,0,0,197.4,1238.55Z"/><path class="cls-29" d="M194.86,1183.92l.53-1.45,1.43.52-.52,1.43Z"/><path class="cls-29" d="M156.35,1217.28l1.47-.2c.41,1.52.59,1.47-1.17,1.66Z"/><path class="cls-29" d="M199.83,1239.1l-.72-1.32,1.32-.72.74,1.32Z"/><path class="cls-29" d="M202.34,1187.45l-1.23-.69.72-1.36,1.35.81Z"/><path class="cls-29" d="M156.14,1215.38l-.08-1.53,1.49-.09.11,1.41Z"/><path class="cls-29" d="M204.83,1234.11l1.13-.91.92,1.1-1.11,1Z"/><path class="cls-29" d="M200,1184.41l-.71,1.22L198,1185l.58-1.29Z"/><path class="cls-29" d="M204.08,1236.45l-1.23.8L202,1236l1.23-.81Z"/><path class="cls-29" d="M178.28,1196.88l.07-.08c.67-.3,1.41-.93,2-.8s1,1,1.32,1.62a1,1,0,0,0,1.36.55,13.43,13.43,0,0,1,6.24,0,.73.73,0,0,0,.93-.37c.42-.72.9-1.41,1.38-2.13l2.18.88c-.17.89-.36,1.76-.49,2.64a.68.68,0,0,0,.25.57,14.51,14.51,0,0,1,4.9,4.8.81.81,0,0,0,.65.27,20.22,20.22,0,0,0,2-.4c.38-.09.61-.05.77.36.21.57.49,1.11.77,1.73-.71.48-1.4,1-2.12,1.44a.56.56,0,0,0-.29.71,14.88,14.88,0,0,1,.09,6.8.55.55,0,0,0,.3.7c.72.46,1.43.94,2.22,1.45-.27.66-.52,1.32-.82,2-.05.11-.35.18-.52.15-.7-.12-1.39-.27-2.09-.43a.56.56,0,0,0-.72.28,14.6,14.6,0,0,1-4.84,5,.57.57,0,0,0-.18.49c.14.87.32,1.73.5,2.67l-2.18,1c-.5-.71-1-1.39-1.43-2.09a.58.58,0,0,0-.76-.3,14.3,14.3,0,0,1-6.79.1.81.81,0,0,0-.65.26c-.51.71-1,1.46-1.48,2.24l-2.19-.9.59-3a14.15,14.15,0,0,1-4.11-3.47c-.39-.5-.76-1-1.1-1.54a.53.53,0,0,0-.67-.28c-.69.17-1.39.29-2.08.44a.53.53,0,0,1-.73-.37c-.2-.56-.49-1.1-.77-1.73.7-.48,1.4-1,2.12-1.43a.57.57,0,0,0,.29-.72,15.57,15.57,0,0,1-.11-6.86.7.7,0,0,0-.23-.59c-.61-.45-1.24-.86-1.89-1.25a.45.45,0,0,1-.21-.7,10.09,10.09,0,0,0,.52-1.28c.13-.36.28-.49.69-.38.67.18,1.35.28,2,.43a.63.63,0,0,0,.77-.33,14.46,14.46,0,0,1,4.76-4.86.63.63,0,0,0,.23-.53C178.64,1198.63,178.45,1197.77,178.28,1196.88Zm7.81,25.75a10.46,10.46,0,1,0-10.43-10.51A10.48,10.48,0,0,0,186.09,1222.63Z"/><path class="cls-29" d="M186.09,1222.63a10.42,10.42,0,0,1-10.43-10.51,10.55,10.55,0,1,1,10.43,10.51Zm9.09-10.36a9,9,0,1,0-9.06,8.94A9,9,0,0,0,195.18,1212.27Z"/><path class="cls-29" d="M195.1,1050.57h1.47v1.55l-1.47.09Z"/><path class="cls-29" d="M230.08,1034.07l4.54,1.82c-.17.95-.35,1.87-.48,2.79a.82.82,0,0,0,.23.66,18.82,18.82,0,0,1,4,3.86.85.85,0,0,0,.66.23c.78-.13,1.56-.32,2.33-.5.3-.07.5-.06.64.28q.76,1.86,1.59,3.69a.44.44,0,0,1-.21.66c-.78.53-1.54,1.09-2.33,1.65a15.49,15.49,0,0,1,.13,6c0,.14.15.36.3.46.79.54,1.61,1.06,2.47,1.61l-1.82,4.56c-.9-.17-1.79-.33-2.66-.51a.72.72,0,0,0-.86.3,15.85,15.85,0,0,1-3.77,3.85.59.59,0,0,0-.27.73c.22.91.4,1.83.6,2.78l-4.44,1.92c-.57-.79-1.12-1.55-1.65-2.33a.58.58,0,0,0-.71-.3,12.73,12.73,0,0,1-5.25.09.72.72,0,0,0-.88.39c-.45.75-1,1.47-1.49,2.26l-4.55-1.83c.17-1,.36-1.92.5-2.87a.66.66,0,0,0-.21-.55,18.64,18.64,0,0,1-4-4,.71.71,0,0,0-.57-.18c-.76.14-1.52.31-2.27.49-.4.1-.64.05-.81-.39-.53-1.32-1.12-2.62-1.69-4,.79-.56,1.57-1.09,2.32-1.66a.84.84,0,0,0,.3-.64,14.75,14.75,0,0,1-.08-5.38.69.69,0,0,0-.39-.8c-.65-.41-1.3-.84-1.93-1.29a.55.55,0,0,1-.2-.49c.54-1.42,1.12-2.83,1.71-4.28.89.17,1.76.33,2.61.51a.81.81,0,0,0,1-.37,15.68,15.68,0,0,1,3.64-3.72.73.73,0,0,0,.33-.89c-.2-.75-.32-1.52-.51-2.27-.08-.31,0-.45.28-.57,1.35-.57,2.69-1.15,4.09-1.76.49.73,1,1.45,1.46,2.19a.74.74,0,0,0,1,.41,12.15,12.15,0,0,1,4.88-.09,1,1,0,0,0,1.22-.54C229.11,1035.43,229.6,1034.78,230.08,1034.07Zm-12.66,3.11c.17.88.35,1.74.48,2.61a.62.62,0,0,1-.23.53,14.46,14.46,0,0,0-4.76,4.86.63.63,0,0,1-.77.33c-.67-.14-1.36-.24-2-.43-.4-.11-.56,0-.68.38a9.57,9.57,0,0,1-.53,1.28.46.46,0,0,0,.21.71,21.18,21.18,0,0,1,1.89,1.24.74.74,0,0,1,.24.59,15.42,15.42,0,0,0,.11,6.86.57.57,0,0,1-.3.72c-.72.46-1.41,1-2.12,1.43.29.63.57,1.17.78,1.74.14.39.37.44.72.37.7-.15,1.4-.28,2.09-.45a.53.53,0,0,1,.66.29,18.52,18.52,0,0,0,1.1,1.53,14.07,14.07,0,0,0,4.12,3.47l-.59,3,2.18.9c.51-.78,1-1.53,1.48-2.24a.81.81,0,0,1,.65-.26,14.3,14.3,0,0,0,6.79-.1.58.58,0,0,1,.76.3c.46.7.94,1.38,1.43,2.1l2.18-1c-.18-.94-.36-1.8-.5-2.66a.59.59,0,0,1,.18-.5,14.51,14.51,0,0,0,4.84-5,.58.58,0,0,1,.73-.28c.69.16,1.39.31,2.09.43a.63.63,0,0,0,.52-.15c.3-.63.54-1.29.81-2-.78-.51-1.49-1-2.22-1.45a.54.54,0,0,1-.3-.7,14.84,14.84,0,0,0-.09-6.79.57.57,0,0,1,.29-.72c.72-.46,1.42-1,2.12-1.44-.28-.62-.56-1.16-.77-1.73-.15-.41-.39-.45-.77-.36a20.27,20.27,0,0,1-2,.41.79.79,0,0,1-.64-.28,14.54,14.54,0,0,0-4.91-4.8.71.71,0,0,1-.25-.57c.14-.88.32-1.75.49-2.64l-2.17-.88c-.48.73-1,1.41-1.39,2.13a.73.73,0,0,1-.93.37,13.38,13.38,0,0,0-6.23,0,1,1,0,0,1-1.36-.54c-.36-.62-.78-1.51-1.32-1.63s-1.32.5-2,.81C217.47,1037.1,217.46,1037.13,217.42,1037.18Z"/><path class="cls-29" d="M243,1029l.94-1.26a29.87,29.87,0,0,1,9.94,13.3,30.72,30.72,0,0,1,1.57,16.64l3.39-2.18.83,1.32-5.56,3.65-3.65-5.57,1.23-.82,2.06,3.17c1.29-1.11.51-10.77-1.3-15.53A29,29,0,0,0,243,1029Z"/><path class="cls-29" d="M196.78,1048.66a3.82,3.82,0,0,1-.48,0c-.31,0-.61-.1-.92-.15.34-7,5.67-19.72,19.7-25.12l-3.56-1.8.71-1.34,5.87,2.94-2.93,6-1.34-.71,1.74-3.51C207.33,1027.59,198,1036.48,196.78,1048.66Z"/><path class="cls-29" d="M236.54,1078.84l.32,1.39c-11.53,4-22,2.15-31.56-5.48,0,.69.09,1.32.11,2s0,1.26,0,1.94l-1.47.14-.19-6.7,6.66-.21.1,1.54-4,.23a29.17,29.17,0,0,0,14.28,6.81A28.5,28.5,0,0,0,236.54,1078.84Z"/><path class="cls-29" d="M234,1024.22l.52-1.46,1.44.52-.53,1.43Z"/><path class="cls-29" d="M195.48,1057.57l1.47-.2c.41,1.53.59,1.48-1.17,1.66Z"/><path class="cls-29" d="M239,1079.39l-.72-1.32,1.32-.72.74,1.32Z"/><path class="cls-29" d="M241.48,1027.74l-1.23-.69.72-1.36,1.34.82Z"/><path class="cls-29" d="M195.28,1055.67l-.08-1.53,1.49-.08.1,1.41Z"/><path class="cls-29" d="M244,1074.41l1.13-.92.92,1.1-1.11,1Z"/><path class="cls-29" d="M239.17,1024.7l-.7,1.23-1.33-.62.58-1.3Z"/><path class="cls-29" d="M243.21,1076.74l-1.23.81-.83-1.22,1.23-.82Z"/><path class="cls-29" d="M217.42,1037.18s.05-.08.07-.08c.66-.31,1.41-.94,2-.81s1,1,1.32,1.63a1,1,0,0,0,1.36.54,13.38,13.38,0,0,1,6.23,0,.73.73,0,0,0,.93-.37c.42-.72.91-1.4,1.39-2.13l2.17.88c-.17.89-.35,1.76-.49,2.64a.71.71,0,0,0,.25.57,14.54,14.54,0,0,1,4.91,4.8.79.79,0,0,0,.64.28,20.27,20.27,0,0,0,2-.41c.38-.09.62,0,.77.36.21.57.49,1.11.77,1.73-.7.48-1.4,1-2.12,1.44a.57.57,0,0,0-.29.72,14.84,14.84,0,0,1,.09,6.79.54.54,0,0,0,.3.7c.73.46,1.44.94,2.22,1.45-.27.67-.51,1.33-.81,2a.63.63,0,0,1-.52.15c-.7-.12-1.4-.27-2.09-.43a.58.58,0,0,0-.73.28,14.51,14.51,0,0,1-4.84,5,.59.59,0,0,0-.18.5c.14.86.32,1.72.5,2.66l-2.18,1c-.49-.72-1-1.4-1.43-2.1a.58.58,0,0,0-.76-.3,14.3,14.3,0,0,1-6.79.1.81.81,0,0,0-.65.26c-.51.71-1,1.46-1.48,2.24l-2.18-.9.59-3a14.07,14.07,0,0,1-4.12-3.47,18.52,18.52,0,0,1-1.1-1.53.53.53,0,0,0-.66-.29c-.69.17-1.39.3-2.09.45-.35.07-.58,0-.72-.37-.21-.57-.49-1.11-.78-1.74.71-.48,1.4-1,2.12-1.43a.57.57,0,0,0,.3-.72,15.42,15.42,0,0,1-.11-6.86.74.74,0,0,0-.24-.59,21.18,21.18,0,0,0-1.89-1.24.46.46,0,0,1-.21-.71,9.57,9.57,0,0,0,.53-1.28c.12-.36.28-.49.68-.38.67.19,1.36.29,2,.43a.63.63,0,0,0,.77-.33,14.46,14.46,0,0,1,4.76-4.86.62.62,0,0,0,.23-.53C217.77,1038.92,217.59,1038.06,217.42,1037.18Zm7.8,25.74a10.45,10.45,0,1,0-10.42-10.51A10.46,10.46,0,0,0,225.22,1062.92Z"/><path class="cls-29" d="M225.22,1062.92a10.41,10.41,0,0,1-10.42-10.51,10.54,10.54,0,1,1,10.42,10.51Zm9.09-10.35a9,9,0,1,0-9.05,8.93A8.94,8.94,0,0,0,234.31,1052.57Z"/><polygon class="cls-30" points="391 529 649 529 649 374 465 374 391 529"/><polygon class="cls-31" points="325 683 649 681 649 526 396.54 526 325 683"/><polygon class="cls-32" points="250 854 649 851.87 649 687 326 686 250 854"/><polygon class="cls-33" points="348 1134 652 1131.94 652 971.97 432.62 971 348 1134"/><polygon class="cls-34" points="358 1288 652 1286.06 652 1135.75 439.84 1134.84 358 1288"/><polygon class="cls-35" points="196 972 649 970.46 649 850.73 250 850 196 972"/><line class="cls-7" x1="395.34" y1="529.06" x2="652.13" y2="529.06"/><path class="cls-7" d="M652.13,278.42V1260l-.12,28.78a1.24,1.24,0,0,1-1.23,1.23H60.18a5.84,5.84,0,0,1-5.32-8.25l402.52-896,4.23-8.42a6.73,6.73,0,0,1,6.23-4.17H652.13"/><path class="cls-36" d="M460.76,444.49h1.48V446l-1.48.09Z"/><path class="cls-29" d="M495.75,428l4.54,1.81c-.17.95-.36,1.87-.48,2.8a.78.78,0,0,0,.23.65,19,19,0,0,1,3.95,3.86.8.8,0,0,0,.66.23c.79-.12,1.56-.31,2.34-.49.29-.07.5-.07.64.28.51,1.24,1,2.47,1.58,3.69.15.33.07.48-.2.66-.78.53-1.55,1.08-2.34,1.64a15.35,15.35,0,0,1,.14,6c0,.14.15.36.29.46.8.54,1.62,1.05,2.48,1.61l-1.82,4.55c-.91-.17-1.79-.32-2.67-.5a.69.69,0,0,0-.85.3,15.85,15.85,0,0,1-3.77,3.85.59.59,0,0,0-.28.72c.22.91.41,1.84.61,2.79l-4.45,1.92c-.56-.79-1.11-1.55-1.64-2.33a.59.59,0,0,0-.72-.3,12.89,12.89,0,0,1-5.25.09.72.72,0,0,0-.87.38c-.46.76-1,1.47-1.49,2.26l-4.56-1.82c.18-1,.37-1.92.51-2.87a.73.73,0,0,0-.21-.55,18.92,18.92,0,0,1-4-3.95.68.68,0,0,0-.56-.18c-.76.13-1.52.3-2.27.49-.4.1-.64,0-.82-.4-.53-1.31-1.11-2.61-1.69-3.95.8-.56,1.58-1.08,2.32-1.66a.81.81,0,0,0,.3-.64,15,15,0,0,1-.08-5.38.66.66,0,0,0-.38-.79c-.66-.41-1.31-.84-1.93-1.3a.58.58,0,0,1-.21-.48c.55-1.42,1.13-2.83,1.71-4.28.9.17,1.76.33,2.62.51a.79.79,0,0,0,.94-.37,15.87,15.87,0,0,1,3.64-3.72.72.72,0,0,0,.34-.89c-.21-.75-.33-1.52-.52-2.27-.08-.31,0-.45.28-.57l4.1-1.76c.49.73,1,1.45,1.45,2.19a.77.77,0,0,0,1,.41,12.15,12.15,0,0,1,4.88-.09,1,1,0,0,0,1.21-.54C494.78,429.35,495.27,428.7,495.75,428Zm-12.67,3.11c.17.88.36,1.74.49,2.61a.66.66,0,0,1-.23.53,14.37,14.37,0,0,0-4.76,4.86.63.63,0,0,1-.77.33c-.68-.15-1.36-.25-2-.43-.41-.11-.56,0-.69.38a10.09,10.09,0,0,1-.52,1.28.45.45,0,0,0,.21.7c.65.39,1.28.8,1.89,1.25a.7.7,0,0,1,.23.59,15.57,15.57,0,0,0,.11,6.86.57.57,0,0,1-.29.72c-.72.45-1.42,1-2.12,1.43.28.63.57,1.17.77,1.73a.53.53,0,0,0,.73.37c.69-.15,1.39-.27,2.08-.44a.53.53,0,0,1,.67.28,18.68,18.68,0,0,0,1.1,1.54,14,14,0,0,0,4.11,3.47l-.59,3,2.19.9c.51-.78,1-1.53,1.48-2.24a.81.81,0,0,1,.65-.26,14.3,14.3,0,0,0,6.79-.1.58.58,0,0,1,.76.3c.45.7.93,1.38,1.43,2.09l2.18-1c-.18-.94-.36-1.8-.5-2.67a.57.57,0,0,1,.18-.49,14.48,14.48,0,0,0,4.83-4.95.58.58,0,0,1,.73-.28c.7.16,1.39.31,2.09.43.17,0,.47,0,.52-.15.3-.64.55-1.3.82-2-.79-.51-1.5-1-2.22-1.45a.55.55,0,0,1-.3-.7,14.88,14.88,0,0,0-.09-6.8.56.56,0,0,1,.29-.71c.72-.47,1.41-1,2.12-1.44-.28-.62-.56-1.16-.77-1.73-.16-.41-.39-.45-.77-.36a19.87,19.87,0,0,1-2,.4.79.79,0,0,1-.64-.27,14.51,14.51,0,0,0-4.9-4.8.68.68,0,0,1-.25-.57c.13-.88.32-1.75.49-2.64l-2.18-.88c-.48.72-1,1.41-1.38,2.13a.73.73,0,0,1-.93.37,13.43,13.43,0,0,0-6.24,0,1,1,0,0,1-1.36-.55c-.35-.61-.78-1.5-1.32-1.62s-1.31.5-2,.8Z"/><path class="cls-36" d="M508.63,422.86l.95-1.25a29.72,29.72,0,0,1,9.93,13.3,30.62,30.62,0,0,1,1.58,16.64l3.39-2.18.83,1.32-5.57,3.65-3.64-5.57,1.22-.82,2.07,3.17c1.29-1.11.51-10.77-1.3-15.53A29,29,0,0,0,508.63,422.86Z"/><path class="cls-36" d="M462.45,442.58a3.82,3.82,0,0,1-.48,0c-.31,0-.62-.1-.92-.15.34-7,5.67-19.73,19.69-25.13l-3.55-1.79.71-1.34,5.87,2.94-2.94,6-1.33-.71,1.74-3.51C473,421.51,463.7,430.39,462.45,442.58Z"/><path class="cls-36" d="M502.2,472.76l.33,1.39c-11.54,4-22,2.14-31.57-5.48,0,.68.1,1.32.12,1.95s0,1.25,0,1.94l-1.46.14-.2-6.7,6.67-.21.1,1.54-4,.23a29.18,29.18,0,0,0,14.27,6.81A28.5,28.5,0,0,0,502.2,472.76Z"/><path class="cls-36" d="M499.66,418.13l.53-1.45,1.43.52-.52,1.43Z"/><path class="cls-36" d="M461.15,451.49l1.47-.2c.41,1.52.59,1.47-1.17,1.66Z"/><path class="cls-36" d="M504.62,473.31l-.71-1.32,1.32-.72.73,1.32Z"/><path class="cls-36" d="M507.14,421.66l-1.23-.69.72-1.36,1.35.81Z"/><path class="cls-36" d="M460.94,449.59l-.08-1.53,1.49-.09.11,1.41Z"/><path class="cls-36" d="M509.63,468.32l1.13-.91.92,1.1-1.11,1Z"/><path class="cls-36" d="M504.84,418.62l-.71,1.22-1.33-.62.58-1.29Z"/><path class="cls-36" d="M508.88,470.66l-1.23.8-.83-1.22,1.23-.81Z"/><path class="cls-29" d="M483.08,431.1l.07-.09c.67-.3,1.41-.93,2-.8s1,1,1.32,1.62a1,1,0,0,0,1.36.55,13.43,13.43,0,0,1,6.24,0A.73.73,0,0,0,495,432c.42-.72.9-1.41,1.38-2.13l2.18.88c-.17.89-.36,1.76-.49,2.64a.68.68,0,0,0,.25.57,14.51,14.51,0,0,1,4.9,4.8.79.79,0,0,0,.64.27,19.87,19.87,0,0,0,2-.4c.38-.09.61-.05.77.36.21.57.49,1.11.77,1.73-.71.48-1.4,1-2.12,1.44a.56.56,0,0,0-.29.71,14.88,14.88,0,0,1,.09,6.8.55.55,0,0,0,.3.7c.72.46,1.43.94,2.22,1.45-.27.66-.52,1.32-.82,2-.05.11-.35.18-.52.15-.7-.12-1.39-.27-2.09-.43a.58.58,0,0,0-.73.28,14.48,14.48,0,0,1-4.83,4.95.57.57,0,0,0-.18.49c.14.87.32,1.73.5,2.67l-2.18,1c-.5-.71-1-1.39-1.43-2.09a.58.58,0,0,0-.76-.3,14.3,14.3,0,0,1-6.79.1.81.81,0,0,0-.65.26c-.51.71-1,1.46-1.48,2.24l-2.19-.9.59-3a14,14,0,0,1-4.11-3.47,18.68,18.68,0,0,1-1.1-1.54.53.53,0,0,0-.67-.28c-.69.17-1.39.29-2.08.44a.53.53,0,0,1-.73-.37c-.2-.56-.49-1.1-.77-1.73.7-.48,1.4-1,2.12-1.43a.57.57,0,0,0,.29-.72,15.57,15.57,0,0,1-.11-6.86.7.7,0,0,0-.23-.59c-.61-.45-1.24-.86-1.89-1.25a.45.45,0,0,1-.21-.7,10.09,10.09,0,0,0,.52-1.28c.13-.36.28-.49.69-.38.67.18,1.35.28,2,.43a.63.63,0,0,0,.77-.33,14.37,14.37,0,0,1,4.76-4.86.66.66,0,0,0,.23-.53C483.44,432.84,483.25,432,483.08,431.1Zm7.81,25.74a10.46,10.46,0,1,0-10.43-10.51A10.48,10.48,0,0,0,490.89,456.84Z"/><path class="cls-29" d="M490.89,456.84a10.42,10.42,0,0,1-10.43-10.51,10.55,10.55,0,1,1,10.43,10.51ZM500,446.48a9,9,0,1,0-9.06,8.94A9,9,0,0,0,500,446.48Z"/><path class="cls-11" d="M458.1,583.07c4.28-.69,7.49,2,6.67,6.17a3.69,3.69,0,0,1-.94,2.06c-1.43,1.11-1.11,2.42-.81,3.82.9,4.24,1.84,8.48,2.63,12.74.15.83,0,2.18-.52,2.55a3.16,3.16,0,0,1-2.74.05,5.6,5.6,0,0,0-5.69,0,2.91,2.91,0,0,1-2.56-.15c-.5-.35-.65-1.58-.51-2.35.74-4.15,1.62-8.28,2.45-12.42-1.22-.34-1.86.2-2.21,1.3a2.61,2.61,0,0,1-.51.94c-2.33,2.48-2.27,5.52-2.22,8.65.11,5.84,0,11.69,0,17.53v2h-26v-7.77c-3.72,0-7.29,0-10.07-2.82s-3.13-6.28-2.85-10c-.37-.17-.68-.34-1-.45-3.73-1.35-5.15-4.85-3.33-8.33.47-.89,1-1.64.54-2.79-.2-.49.24-1.39.63-1.94a12,12,0,0,0,2.33-8.55,2.08,2.08,0,0,1,1.6-2.44,1.92,1.92,0,0,0,1-1c3.86-8.72,10.49-13.47,20.07-13.4s16.57,4.48,20.48,13.42a3.42,3.42,0,0,0,.86,1C456.19,581.49,457,582.11,458.1,583.07Zm-10.85,38.87c0-6.6,0-13,0-19.46,0-1.85.1-3.51,1.56-4.87a10.72,10.72,0,0,0,1.33-2.12h-2.24c-10.66,0-21.33.1-32-.07a4.14,4.14,0,0,0-4.43,2.8c-.76,1.71-.18,2.85,1.67,2.95.93.05,1.87,0,3,0,0,2.35,0,4.54,0,6.73,0,3.86,2.41,6.21,6.25,6.23h6.72v7.8Zm3.15-41.19c-1.31-5.89-9.16-10.49-17.23-10.39-6.81.09-13.53,5.07-14.86,10.39Z"/><line class="cls-7" x1="325.31" y1="683.26" x2="652.13" y2="683.26"/><line class="cls-7" x1="249.98" y1="851.3" x2="652.13" y2="851.3"/><path class="cls-11" d="M458.1,747.07c4.28-.69,7.49,2,6.67,6.17a3.65,3.65,0,0,1-.94,2.06c-1.43,1.11-1.11,2.42-.81,3.83.9,4.24,1.84,8.47,2.63,12.74.15.82,0,2.17-.52,2.54a3.1,3.1,0,0,1-2.74.05,5.6,5.6,0,0,0-5.69,0,2.91,2.91,0,0,1-2.56-.14,2.85,2.85,0,0,1-.51-2.36c.74-4.15,1.62-8.27,2.45-12.42-1.22-.34-1.86.2-2.21,1.3a2.53,2.53,0,0,1-.51.94c-2.33,2.48-2.27,5.53-2.22,8.66.11,5.84,0,11.68,0,17.52v2h-26v-7.77c-3.72.05-7.29,0-10.07-2.82s-3.13-6.28-2.85-10c-.37-.17-.68-.33-1-.45-3.73-1.35-5.15-4.85-3.33-8.33.47-.89,1-1.63.54-2.79-.2-.49.24-1.39.63-1.94a12,12,0,0,0,2.33-8.55,2.07,2.07,0,0,1,1.6-2.43,2,2,0,0,0,1-1c3.86-8.71,10.49-13.47,20.07-13.4s16.57,4.49,20.48,13.42a3.17,3.17,0,0,0,.86,1C456.19,745.49,457,746.11,458.1,747.07Zm-10.85,38.87c0-6.6,0-13,0-19.46,0-1.84.1-3.51,1.56-4.87a10.72,10.72,0,0,0,1.33-2.12h-2.24c-10.66,0-21.33.1-32-.07a4.14,4.14,0,0,0-4.43,2.8c-.76,1.71-.18,2.85,1.67,2.95.93.06,1.87,0,3,0,0,2.36,0,4.55,0,6.73,0,3.86,2.41,6.21,6.25,6.24h6.72v7.79Zm3.15-41.18c-1.31-5.9-9.16-10.5-17.23-10.4-6.81.09-13.53,5.08-14.86,10.4Z"/><path class="cls-11" d="M463.26,905,481,914.66l3,1.64a6.46,6.46,0,0,0-2.81,2.05,4.93,4.93,0,0,0-4.3-2.23c-.13-.81-.73-1.19-1.39-1.55-5.81-3.14-11.62-6.31-17.56-9.54a11.08,11.08,0,0,1,1.45-.74A10.11,10.11,0,0,1,461,904"/><path class="cls-11" d="M457.78,916.3a6.51,6.51,0,0,0-3.45,3,6.64,6.64,0,0,0-.69,4.54l-.49-.23-18.33-10c-.94-.51-1.87-1-2.83-1.54a3.71,3.71,0,0,1-1.89-3.82,4.8,4.8,0,0,1,2.23-3.6,3.52,3.52,0,0,1,3.78-.17l15.21,8.28Z"/><path class="cls-11" d="M440.54,905.06a3.76,3.76,0,0,1,4.22-.6c.89.45,1.77,1,2.66,1.44l15.7,8.54c1.12.6,2.23,1.21,3.41,1.86a6.69,6.69,0,0,0-2.79,2c-.23-.26-.43-.52-.66-.76a4.75,4.75,0,0,0-3.38-1.44c-.21,0-.29,0-.35-.27a1.59,1.59,0,0,0-.83-1l-13.18-7.16Z"/><path class="cls-11" d="M498.77,918.35a5.25,5.25,0,0,0-1.86-1.68,5,5,0,0,0-2.45-.55c-.11-.86-.78-1.21-1.46-1.58q-7.17-3.88-14.34-7.8l-3.05-1.66a3.85,3.85,0,0,1,2-1,3.59,3.59,0,0,1,2.41.44l20.53,11.17,1.05.59A6.46,6.46,0,0,0,498.77,918.35Z"/><path class="cls-11" d="M490,918.35a5,5,0,0,0-3.22-2.15l-.23,0c-.48,0-.93,0-1.08-.64-.06-.28-.44-.53-.73-.69q-6.4-3.51-12.83-7l-5-2.75a3.62,3.62,0,0,1,4.16-.64l8.88,4.84,10.29,5.59,2.61,1.42A6.59,6.59,0,0,0,490,918.35Z"/><path class="cls-11" d="M475.23,916.27c-.52.3-1,.55-1.49.88s-.85.75-1.29,1.15a4.89,4.89,0,0,0-4.27-2.18,2,2,0,0,0-1.29-1.49l-17.34-9.43-.22-.13a4.06,4.06,0,0,1,2-1,3.68,3.68,0,0,1,2.44.49q7.81,4.27,15.66,8.53Z"/><path class="cls-11" d="M481.57,922.46a4.84,4.84,0,0,1,2.94-4.44,3.33,3.33,0,0,1,4.62,2.46,4.79,4.79,0,0,1-3.19,5.48,3.34,3.34,0,0,1-4.37-3.14Z"/><path class="cls-11" d="M455.27,922.5a4.86,4.86,0,0,1,2.89-4.44,3.34,3.34,0,0,1,4.71,2.46,5,5,0,0,1-2.34,5.07A3.41,3.41,0,0,1,455.27,922.5Z"/><path class="cls-11" d="M480.46,921.39a4.8,4.8,0,0,1-3.2,4.54,3.31,3.31,0,0,1-4.37-2.48,4.84,4.84,0,0,1,3.16-5.53A3.37,3.37,0,0,1,480.46,921.39Z"/><path class="cls-11" d="M498,921.37a4.84,4.84,0,0,1-2.55,4.28,3.33,3.33,0,0,1-5.07-2.46,4.73,4.73,0,0,1,3.64-5.37,3.34,3.34,0,0,1,3.93,3C498,921,498,921.18,498,921.37Z"/><path class="cls-11" d="M471.7,921.31a4.78,4.78,0,0,1-3.47,4.7,3.33,3.33,0,0,1-4.16-3.11,4.84,4.84,0,0,1,1.59-4,3.62,3.62,0,0,1,4.53-.54A3.45,3.45,0,0,1,471.7,921.31Z"/><path class="cls-11" d="M506.76,921.41a4.8,4.8,0,0,1-3.55,4.61,3.24,3.24,0,0,1-3.91-2.21.71.71,0,0,1,0-.41,6.33,6.33,0,0,0,.26-2.83.5.5,0,0,1,.05-.3,4.29,4.29,0,0,1,3.87-2.5,3.27,3.27,0,0,1,3.16,2.69C506.7,920.78,506.73,921.09,506.76,921.41Z"/><line class="cls-7" x1="194.35" y1="973.69" x2="652.13" y2="973.69"/><path class="cls-11" d="M503.49,1068.61c.14-1.55.33-3.09.41-4.64.81-14.73-9.9-28.43-24.51-31.4-14.87-3-30.17,5.51-34.23,20.25-3.05,11.1-.38,20.87,8.15,28.77a24.85,24.85,0,0,0,15.08,6.46,25.28,25.28,0,0,0,19-5.64,24.73,24.73,0,0,0,9.09-17.18A23.42,23.42,0,0,0,478.64,1040a21.73,21.73,0,0,0-27,17.4,19.59,19.59,0,0,0,15.09,22.94c9.84,2.18,19.13-3,21.83-12.47,2.29-8-1.55-16.62-8.84-19.88a15.17,15.17,0,0,0-19.41,6.15c-3.68,6.56-1.21,15.08,5.3,18.26a11.34,11.34,0,0,0,15-4.27,9.76,9.76,0,0,0-.93-11.3c-2.95-3.27-8.45-3.78-11.55-1.08s-3,7.64,0,9.86a4.49,4.49,0,0,0,5.86-.43,3,3,0,0,0,.29-3.8c-.67.68-1.63,1-2,2-.23.67-1.28.89-2.17.59a3.42,3.42,0,0,1-1.89-3.66,4.56,4.56,0,0,1,5.12-3.91c4.71.32,7.37,4.67,5.7,9.33a8.61,8.61,0,0,1-9.38,5.44,10.2,10.2,0,0,1-8.68-9.83,11.8,11.8,0,0,1,9.48-12c7.19-1.62,14.6,2.84,16.08,11.23a15.14,15.14,0,0,1-12.35,17.56,17.11,17.11,0,0,1-20.15-13.59,19.23,19.23,0,0,1,15.18-22.47c11.31-2.29,22.79,5.74,24.64,17.26a22.85,22.85,0,0,1-18.7,26.12,24.43,24.43,0,0,1-27.94-18,26.33,26.33,0,0,1,19.89-32.44c15.9-3.58,30.43,7,33.7,21.43a30.05,30.05,0,0,1-20.44,35.16c-10.65,3.35-20.36,1.13-29.09-5.55a30.61,30.61,0,0,1-11.49-17.56c-3.06-12.91.37-24,10.13-33a30.73,30.73,0,0,1,17.29-7.92,33,33,0,0,1,37,28A30.59,30.59,0,0,1,503.49,1068.61Z"/><line class="cls-7" x1="123.49" y1="1134.48" x2="652.13" y2="1134.48"/><line class="cls-7" x1="433.25" y1="973.69" x2="347.79" y2="1134.48"/><path class="cls-37" d="M479.25,1191.38h19.5a3.45,3.45,0,0,1,3.45,3.44v35.62a3.46,3.46,0,0,1-3.45,3.45H433.37a3.45,3.45,0,0,1-3.45-3.45v-35.62a3.44,3.44,0,0,1,3.45-3.44h19.29"/><line class="cls-38" x1="436.13" y1="1208.48" x2="495.99" y2="1208.48"/><line class="cls-38" x1="436.13" y1="1217.23" x2="495.99" y2="1217.23"/><line class="cls-38" x1="436.13" y1="1225.97" x2="495.99" y2="1225.97"/><path class="cls-39" d="M466.05,1203.15H447.79a2.69,2.69,0,0,1-.7-.07,1.1,1.1,0,0,1-.74-1.45,2.57,2.57,0,0,1,.27-.52q8.72-14.46,17.45-28.92a3.2,3.2,0,0,1,.3-.45,1.11,1.11,0,0,1,1.71-.06,4.48,4.48,0,0,1,.32.44l19,28.91a5,5,0,0,1,.29.5,1.11,1.11,0,0,1-.76,1.57,3.18,3.18,0,0,1-.62.05Zm-.69-10.36c1.13,0,1.47-.26,1.54-1.12.23-2.73.47-5.46.7-8.19a2,2,0,0,0-1.17-2.15,2.29,2.29,0,0,0-3.21,1.27,3.87,3.87,0,0,0,0,1.36c.11,1.51.25,3,.38,4.53.1,1.1.18,2.19.3,3.28.07.72.42,1,1.13,1Zm2.23,4.49a2.23,2.23,0,0,0-2.17-2.25,2.26,2.26,0,0,0-2.28,2.14,2.23,2.23,0,0,0,4.45.11Z"/><line class="cls-7" x1="439.99" y1="1134.48" x2="358.2" y2="1288.37"/><rect class="cls-40" x="710" y="1137" width="181" height="147"/><rect class="cls-41" x="707" y="971" width="186" height="162"/><rect class="cls-42" x="707" y="681" width="186" height="170"/><rect class="cls-43" x="706" y="525" width="187" height="153"/><rect class="cls-44" x="707" y="375" width="183" height="146"/><path class="cls-7" d="M707.25,275.31V1230l.7,52.89a3.16,3.16,0,0,0,3.16,3.12L889,1286a4,4,0,0,0,4-4l-.17-37V373.19H707.25"/><line class="cls-7" x1="707.25" y1="522.66" x2="892.81" y2="522.66"/><line class="cls-7" x1="707.25" y1="680.82" x2="892.81" y2="680.82"/><line class="cls-7" x1="707.25" y1="851.3" x2="892.81" y2="851.3"/><line class="cls-7" x1="707.25" y1="970.34" x2="892.81" y2="970.34"/><line class="cls-7" x1="707.25" y1="1134.48" x2="892.81" y2="1134.48"/><path class="cls-29" d="M800.86,1251H742.17c-6.17,0-9.24-3-9.24-9.17q0-14.26,0-28.53c0-5.25,3.3-8.55,8.55-8.57,6.4,0,12.8,0,19.2,0a2.38,2.38,0,0,0,2.47-1.3,6.4,6.4,0,0,1,5.92-3.29,2.9,2.9,0,0,0,2-1q13.27-17.89,26.44-35.88a4.51,4.51,0,0,0,.72-2.13c.17-1.71,1.21-2.87,2.73-2.83a2.76,2.76,0,0,1,2.58,2.78,4.49,4.49,0,0,0,.7,2.14q13.17,18,26.44,35.89a3,3,0,0,0,2,1.05,6.38,6.38,0,0,1,5.7,3.36,2.19,2.19,0,0,0,2.32,1.21q9.78,0,19.56,0c5.29,0,8.57,3.27,8.57,8.53q0,14.45,0,28.89c0,5.67-3.18,8.85-8.82,8.85Zm-36-41.64H741.49c-2.74,0-3.91,1.14-3.92,3.86q0,14.64,0,29.26c0,2.71,1.2,3.88,3.92,3.88H860.33c2.82,0,3.94-1.16,3.95-4q0-14.44,0-28.89c0-3-1.09-4.09-4.06-4.09H836.6c.95-2.52.69-4.51-1.26-6a4.25,4.25,0,0,0-5-.22c-2.32,1.5-2.46,3.7-1.69,6.15H772.81c.84-2.38.7-4.45-1.39-6a4.35,4.35,0,0,0-5-.12C764.59,1204.33,764.1,1206.07,764.82,1209.36Zm7.78-8.31a9.91,9.91,0,0,1,1.84,2.19c.6,1.42,1.61,1.52,2.91,1.51,4.69,0,9.38,0,14.07,0,11.08,0,22.17,0,33.26,0a2.81,2.81,0,0,0,1.86-.65,33.7,33.7,0,0,0,2.52-3.22c-.23-.34-.53-.79-.85-1.22-8.44-11.47-16.91-22.92-25.3-34.44-1.4-1.93-2.5-2.06-4,0-5.55,7.71-11.22,15.33-16.84,23Zm28.3-42.23c-.69,1-1.48,1.61-1.4,2.09s.93,1.11,1.44,1.66c.5-.56,1.3-1.07,1.4-1.69S801.6,1159.77,800.9,1158.82Z"/><path class="cls-29" d="M829,1226v14.41h-3.7v-25.35a39.91,39.91,0,0,1,4.39.06,1.82,1.82,0,0,1,1.14,1.21c1,4.88,2,9.78,2.94,14.68a3.14,3.14,0,0,0,.69,1.54c.88-4.61,1.78-9.22,2.64-13.83.69-3.71.67-3.72,4.43-3.66.41,0,.83,0,1.33.09v25.23h-3.5v-14.32l-.4-.1c-.14.45-.31.89-.41,1.35-.83,3.93-1.7,7.85-2.43,11.8-.21,1.16-.66,1.44-1.78,1.47s-1.71-.35-2-1.53c-.91-4.16-1.91-8.3-2.87-12.45,0-.21-.12-.42-.17-.63Z"/><path class="cls-29" d="M752.33,1215.22h3.93l1.89,12.42.34,0c.36-2.52.73-5,1.09-7.56.09-.66.16-1.33.27-2,.52-3.35.52-3.35,4.3-2.81-1.3,8.33-2.6,16.66-3.92,25.09h-3.59l-2.06-12.74h-.37l-1.93,12.8h-3.6l-4.21-25.14a4.31,4.31,0,0,1,.69-.16c3.12-.27,3.14-.27,3.63,2.8a86.9,86.9,0,0,0,1.83,9.64Z"/><path class="cls-29" d="M821.74,1227.9c0,2.25,0,4.5,0,6.75a6,6,0,0,1-6,6.2,5.91,5.91,0,0,1-6-6.16q-.06-6.84,0-13.69a5.88,5.88,0,0,1,6-6.19,5.94,5.94,0,0,1,6.07,6.15C821.77,1223.28,821.74,1225.59,821.74,1227.9Zm-3.93-.21v-6.57c0-1.5-.66-2.54-2.22-2.56s-2.27,1-2.27,2.5q0,6.66,0,13.33c0,1.49.64,2.48,2.22,2.56,1.4.07,2.24-1,2.26-2.68C817.83,1232.07,817.81,1229.88,817.81,1227.69Z"/><path class="cls-29" d="M802.5,1231.41h3.8a31,31,0,0,1,0,4.73,6,6,0,0,1-11.89-.91q-.12-7.31,0-14.61a6,6,0,0,1,12,.09c0,.9,0,1.81,0,2.86h-3.91c0-.87,0-1.77,0-2.66a2.14,2.14,0,0,0-2.24-2.35,2.08,2.08,0,0,0-2.22,2.19q-.1,7,0,14.06a2.06,2.06,0,0,0,2.21,2.19,2.11,2.11,0,0,0,2.26-2.31C802.51,1233.66,802.5,1232.64,802.5,1231.41Z"/><path class="cls-29" d="M855.33,1229.73h-4.92v7h6.91v3.66H846.7V1215.2h10.61v3.7H850.4v7h4.93Z"/><path class="cls-29" d="M778.34,1240.42H767.67V1215.2h10.62v3.66h-6.88v7h5v3.78h-4.94v7h6.91Z"/><path class="cls-29" d="M781.29,1215.2h3.56v21.59h6.59v3.6H781.29Z"/><path class="cls-11" d="M719.3,1042.1a7.54,7.54,0,0,1,1.47-1.14,18.33,18.33,0,0,0,11.61-14.8,17.43,17.43,0,0,0-1.33-9.68l-.19-.43a1.49,1.49,0,0,1,2.06-2.07,18.22,18.22,0,0,0,7.78,1.7,18.51,18.51,0,0,0,17-11.57c.33-.82.61-1.69,1.69-1.68s1.28.88,1.61,1.66a18.2,18.2,0,0,0,14.67,11.41,17.31,17.31,0,0,0,10-1.45c.71-.32,1.4-.5,2,.11a1.62,1.62,0,0,1,.15,2A18.43,18.43,0,0,0,798.11,1041c.66.26,1.18.54,1.21,1.4a1.49,1.49,0,0,1-1.16,1.6,17.16,17.16,0,0,0-7.41,5.16c-4.87,5.91-5.82,12.45-3,19.55.05.12.11.23.16.35a1.48,1.48,0,0,1-.21,1.74,1.45,1.45,0,0,1-1.8.25,18.14,18.14,0,0,0-7.38-1.73,18.56,18.56,0,0,0-17.67,11.89,8.45,8.45,0,0,1-.79,1.22h-1.41a7.37,7.37,0,0,1-.79-1.21A18.47,18.47,0,0,0,733.06,1071a1.62,1.62,0,0,1-2-.15,1.65,1.65,0,0,1-.11-2,17.45,17.45,0,0,0,1.45-10c-1.12-7.09-5.06-12-11.68-14.83a6.33,6.33,0,0,1-1.4-1.11Zm18.19-23.71c0,.06,0,.12,0,.15,2,2.05,4.07,4.1,6.12,6.13a.89.89,0,0,0,.62.17,27.34,27.34,0,0,0,13.15-5.43,1.35,1.35,0,0,0,.48-.94c0-2,0-4.05,0-6.08v-2.53C752.55,1016.48,745.79,1019.3,737.49,1018.39Zm43.94,0c-8.47.93-15.23-1.89-20.5-8.41a1,1,0,0,0-.07.25c0,2.81,0,5.62,0,8.43a1.1,1.1,0,0,0,.42.74,27.46,27.46,0,0,0,13.21,5.46.81.81,0,0,0,.62-.18C777.19,1022.62,779.24,1020.56,781.43,1018.37Zm-23.53,56.82v-.81c0-2.6,0-5.21,0-7.81a1.19,1.19,0,0,0-.57-1.08,28,28,0,0,0-12.79-5.31,1.22,1.22,0,0,0-1.22.41c-1.79,1.81-3.6,3.61-5.4,5.41-.17.17-.33.36-.59.65a21.67,21.67,0,0,1,11.45,1.39A22,22,0,0,1,757.9,1075.19Zm3-.23A23.28,23.28,0,0,1,770,1068a21.94,21.94,0,0,1,11.43-1.38c-2.23-2.23-4.3-4.3-6.38-6.36a.77.77,0,0,0-.56-.14,27.53,27.53,0,0,0-13.22,5.46,1.33,1.33,0,0,0-.43.89c0,1.35,0,2.7,0,4ZM726.74,1041c3,0,5.76,0,8.55,0a1.22,1.22,0,0,0,1.09-.55,27.12,27.12,0,0,0,5.27-12.9,1.38,1.38,0,0,0-.29-1c-1.87-1.92-3.78-3.81-5.68-5.7a3.69,3.69,0,0,0-.43-.32C736.17,1028.92,733.37,1035.67,726.74,1041Zm56.77-20.6c-2.21,2.21-4.29,4.28-6.35,6.37a.76.76,0,0,0-.12.56,27.14,27.14,0,0,0,5.4,13.17,1.34,1.34,0,0,0,.95.47c2.29,0,4.58,0,6.87,0H792C785.37,1035.67,782.58,1028.92,783.51,1020.42ZM726.73,1044c6.66,5.35,9.44,12.13,8.51,20.58,2.2-2.19,4.27-4.25,6.31-6.32a.76.76,0,0,0,.17-.55,27.44,27.44,0,0,0-5.52-13.37.89.89,0,0,0-.56-.33C732.74,1044,729.83,1044,726.73,1044Zm56.78,20.6c-.94-8.49,1.86-15.27,8.49-20.6-3.1,0-6,0-9,0a.86.86,0,0,0-.53.37,27.53,27.53,0,0,0-5.47,13.32.88.88,0,0,0,.21.6C779.27,1060.33,781.32,1062.37,783.51,1064.57Zm-37.1-37.12c1.75,1.75,3.37,3.4,5,5a.91.91,0,0,0,.8.15c1.3-.46,2.55-1,3.85-1.45a2.35,2.35,0,0,0,1.85-2.85c-.17-1.82,0-3.66,0-5.64A31.31,31.31,0,0,1,746.41,1027.45Zm14.44-4.77c0,2.48,0,4.79,0,7.1a1,1,0,0,0,.52.72c1.46.67,3,1.25,4.42,1.92a1.55,1.55,0,0,0,2.07-.46c1.41-1.53,2.92-3,4.47-4.51A31.34,31.34,0,0,1,760.85,1022.68Zm-3,39.63c0-2.5,0-4.81,0-7.13a1,1,0,0,0-.53-.71c-1.43-.66-2.91-1.22-4.34-1.89a1.55,1.55,0,0,0-2.19.52,9.46,9.46,0,0,1-1,1.06l-3.4,3.37A31.38,31.38,0,0,1,757.9,1062.31Zm3,0a31.25,31.25,0,0,1,11.51-4.79c-1.77-1.77-3.44-3.44-5.13-5.09a.79.79,0,0,0-.69-.09c-1.76.7-3.5,1.42-5.24,2.17a.86.86,0,0,0-.43.62C760.84,1057.48,760.85,1059.82,760.85,1062.32Zm-16.52-32.81a31.52,31.52,0,0,1-4.76,11.51c2.5,0,4.86,0,7.22,0a.68.68,0,0,0,.51-.36q1.16-2.67,2.24-5.38a.78.78,0,0,0-.16-.67C747.75,1032.92,746.09,1031.27,744.33,1029.51Zm30.09,0c-1.76,1.76-3.42,3.41-5,5.08a.75.75,0,0,0-.16.67c.71,1.78,1.43,3.56,2.2,5.31a1,1,0,0,0,.7.43c2.24,0,4.48,0,6.71,0a1.21,1.21,0,0,0,.3-.09A31.11,31.11,0,0,1,774.42,1029.51ZM739.55,1044a31.33,31.33,0,0,1,4.79,11.48c1.75-1.74,3.4-3.37,5-5a.81.81,0,0,0,.17-.73c-.7-1.78-1.44-3.55-2.2-5.31a.84.84,0,0,0-.64-.39C744.36,1044,742.05,1044,739.55,1044Zm34.87,11.51a31.4,31.4,0,0,1,4.75-11.51c-2.48,0-4.82,0-7.16,0a.85.85,0,0,0-.61.44q-1.12,2.61-2.17,5.24a.83.83,0,0,0,.1.69C771,1052.05,772.65,1053.71,774.42,1055.48Zm-16.56-21.92-3.58,1.49,3.58,3.59Zm3,0v5.12l3.62-3.62Zm-8.95,3.75-1.51,3.64h5.16Zm14.86.07-3.57,3.57h5ZM755.63,1044h-5.19l1.52,3.67Zm12.67,0h-5.1l3.61,3.6Zm-14.15,5.87,3.68,1.53v-5.22Zm10.26.08-3.52-3.53v5Z"/><path class="cls-45" d="M784.58,775.32c1.08,0,2.08,0,3.08,0a1,1,0,0,1,1.1,1c0,.61-.38,1-1.07,1h-.47c-1.24,0-2.47,0-3.71,0a1.48,1.48,0,0,0-.88.34,13.79,13.79,0,0,1-8.33,3.5c-3.15.31-6.09-.6-9-1.43-1.53-.43-3-.9-4.58-1.32a1.36,1.36,0,0,0-.89.06,31.27,31.27,0,0,1-12.45,2.76,18.9,18.9,0,0,1-7-1.6,123.84,123.84,0,0,0-12.87-4.46c-1.43-.37-2.87-.69-4.31-1-.81-.19-1.16-.62-1-1.29s.65-.9,1.47-.74A92.6,92.6,0,0,1,739.06,777c1.61.63,3.24,1.18,4.87,1.73a13.07,13.07,0,0,0,6.27.32c1.94-.3,3.84-.82,5.76-1.24a.69.69,0,0,0,.4-.28c-1.14-.11-2.29-.2-3.43-.33a28.72,28.72,0,0,1-7.22-1.49,10.11,10.11,0,0,1-2-1,4,4,0,0,1-1.87-4.53,4.18,4.18,0,0,1,3.62-3.32,15.63,15.63,0,0,1,5.74.33c1.71.33,3.43.63,5.17.87-1.5-1.41-3-2.86-5.16-3.09a1.93,1.93,0,0,0-.78.12,20.22,20.22,0,0,1-5.62.93,5.3,5.3,0,0,1-.8,0,1.06,1.06,0,0,1-1.08-1.07,1,1,0,0,1,1.19-1,14.92,14.92,0,0,0,5.31-.71,19.88,19.88,0,0,0,3.43-1.35,14.23,14.23,0,0,1,6.79-1.59c.85,0,1.7-.08,2.68-.13-.71-1.71-1.29-3.43-2.75-4.47a6.41,6.41,0,0,0-2.8-.77c-1.81-.25-3.66-.32-5.48-.56a3.32,3.32,0,0,0-1.79.13,8,8,0,0,1-5.35.06,7.27,7.27,0,0,0-2.77-.32A21.33,21.33,0,0,0,734,755.8a8.52,8.52,0,0,0-5,5,1,1,0,0,1-1.37.73,1.07,1.07,0,0,1-.55-1.46c.13-.38.29-.75.48-1.22l-1.86-.25c-.48-.07-1-.15-1.45-.25-.74-.16-1.11-.61-1-1.19a1.1,1.1,0,0,1,1.38-.85c1.19.16,2.4.31,3.59.49a1.2,1.2,0,0,0,1.25-.42,3.86,3.86,0,0,1,1-.87,14.37,14.37,0,0,0,4-4.19c1-1.44,2.09-2.86,3.14-4.29a6.08,6.08,0,0,1,7.33-2.45,13.45,13.45,0,0,0,7.23.08,13.24,13.24,0,0,1,7.58.7c1.68.62,3.33,1.32,5,1.89a14,14,0,0,0,2.5.42,12.22,12.22,0,0,1,4.7,1.53A8.22,8.22,0,0,1,774.8,752a2,2,0,0,0,.69.68A9.26,9.26,0,0,1,779,756a3,3,0,0,0,.65.64c.72.63,1.45,1.26,2.18,1.87a1.67,1.67,0,0,0,.76.45c1.4.18,2.81.29,4.21.42.29,0,.59,0,.88,0a1,1,0,0,1,1.08,1.05,1,1,0,0,1-1.09,1c-1.07,0-2.15-.09-3.23-.14-.42,0-.84-.08-1.23-.12.15,1.33.34,2.6.42,3.89a8.11,8.11,0,0,1-.17,2.2,3,3,0,0,1-3.33,2.59.89.89,0,0,0-.91.47,3.16,3.16,0,0,1-4.16,1.25.94.94,0,0,0-.92,0,4,4,0,0,1-4.73-1.18,3.32,3.32,0,0,0-2.28-1.36,4.66,4.66,0,0,1-3.74-4.3c-.1-.91-.26-1.81-.4-2.81-3,.58-6.13-.22-8.88,1.53l5.2,3.81a1.74,1.74,0,0,0,1.7.29,7.17,7.17,0,0,1,1-.25,1,1,0,0,1,1.26.73.94.94,0,0,1-.71,1.24A34.54,34.54,0,0,1,759,770c-2.81.34-5.53-.34-8.26-.86a13.37,13.37,0,0,0-4.8-.34c-1.59.27-2.57,1.57-2,2.91a3.35,3.35,0,0,0,1.28,1.39,12.78,12.78,0,0,0,5.22,1.61c2.24.32,4.53.36,6.74.8,2.76.56,5.46,1.42,8.19,2.12a45.4,45.4,0,0,0,6.13,1.44c4.07.44,7.8-.47,10.55-3.78a13.19,13.19,0,0,0,1.43-2.71c.28-.59.71-.88,1.25-.73a1,1,0,0,1,.72,1.31,9.58,9.58,0,0,1-.39,1.14C784.89,774.65,784.74,774.94,784.58,775.32ZM752.3,752.39l1.13.15c1.83.18,3.65.35,5.48.51a.73.73,0,0,0,.52-.15c.82-.75,1.54-.55,1.92.5a10.67,10.67,0,0,0,.94,2.06,20.1,20.1,0,0,1,3.13,9,3,3,0,0,0,2.15,2.72c1,.24,1.5-.1,1.66-1.08,0-.31.08-.62.1-.93a37.53,37.53,0,0,0-2-12.74,4.4,4.4,0,0,0-2.46-2.83,49.11,49.11,0,0,0-7.73-2.87,11.06,11.06,0,0,0-5.05.13C753.48,748.23,753.84,749.79,752.3,752.39Zm-12.06-.29c-.27-.65-.18-1.19.41-1.49a1.06,1.06,0,0,1,1.45.45,2.16,2.16,0,0,0,.69.62,7.8,7.8,0,0,0,4.57,1.11,4,4,0,0,0,3.83-3c.11-.59,0-1.12-.62-1.31-2.44-.73-4.87-1.47-7.34-2.1a2.66,2.66,0,0,0-2.52.53c-1.93,1.67-3.19,3.84-4.72,5.93Zm30.1,16.39a9.25,9.25,0,0,0,1.23,1.13c1,.67,1.72.4,2.08-.77a26,26,0,0,0,.31-13,7.18,7.18,0,0,0-2.14-4.23,6.56,6.56,0,0,0-3.18-1.52c.36,1.09.73,2.07,1,3.07a38.58,38.58,0,0,1,1.77,11.18C771.42,765.74,771.51,767.23,770.34,768.49Zm5.74-12.76a3.42,3.42,0,0,0,0,.36,27.8,27.8,0,0,1-.34,12.92c-.17.64,0,1,.69.88a1.44,1.44,0,0,0,.89-.49,4.31,4.31,0,0,0,.69-1.51,20,20,0,0,0,.15-8.09A7.59,7.59,0,0,0,776.08,755.73Zm4.58,4.87-.3,7.27a1.07,1.07,0,0,0,1.1-1A12.46,12.46,0,0,0,780.66,760.6Z"/><path class="cls-29" d="M754.55,665.41H721.78a2.48,2.48,0,0,1-2.31-1.15,2.91,2.91,0,0,1-.41-1.57q0-14.33,0-28.65a2.52,2.52,0,0,1,2.68-2.7h65.41a5.06,5.06,0,0,1,1.1.09,2.5,2.5,0,0,1,1.87,2.53c0,.1,0,.21,0,.32v28.22a4.67,4.67,0,0,1-.08,1,2.49,2.49,0,0,1-2.5,1.91h-33Zm0-1.12h32.66a3.82,3.82,0,0,0,.68,0,1.25,1.25,0,0,0,1.11-1.17,4.61,4.61,0,0,0,0-.53q0-14.12,0-28.22c0-1.39-.46-1.84-1.85-1.84H721.93c-1.25,0-1.75.5-1.75,1.73v28.32c0,1.11.42,1.78,1.78,1.78Q738.23,664.27,754.52,664.29Z"/><path class="cls-29" d="M754.49,660.23H736.82c-.63,0-.69-.06-.69-.7v-3c0-.55.08-.64.65-.64h35.34c.71,0,.76.06.76.78v2.86c0,.58-.08.67-.69.67Z"/><path class="cls-29" d="M780.06,653.77h-4.4c-.53,0-.63-.09-.63-.61,0-1,0-2.08,0-3.11,0-.48.12-.6.58-.6h9c.46,0,.59.12.59.56,0,1.07,0,2.13,0,3.19,0,.47-.12.57-.61.57Z"/><path class="cls-29" d="M729,653.77h-4.44c-.46,0-.58-.11-.58-.56q0-1.61,0-3.21c0-.42.14-.55.57-.55h8.93c.44,0,.56.12.56.55v3.25c0,.41-.12.52-.54.52Z"/><path class="cls-29" d="M780.05,660.23h-4.43c-.49,0-.59-.09-.59-.58,0-1,0-2.09,0-3.14,0-.48.09-.58.56-.58h8.95c.45,0,.54.1.54.55q0,1.59,0,3.18c0,.49-.08.57-.59.57Z"/><path class="cls-29" d="M729,660.23H724.6c-.49,0-.6-.09-.6-.57V656.5c0-.48.1-.58.6-.58h8.87c.51,0,.59.08.59.58v3.18c0,.45-.1.54-.55.54Z"/><path class="cls-29" d="M727.64,643h3c.41,0,.53.12.54.53,0,1.09,0,2.19,0,3.28,0,.38-.1.5-.49.5h-6.18c-.39,0-.51-.12-.51-.52,0-1.09,0-2.17,0-3.25,0-.44.12-.54.57-.54Z"/><path class="cls-29" d="M781.85,647.3h-2.68c-.45,0-.54-.09-.54-.55,0-1.08,0-2.15,0-3.22,0-.42.11-.54.52-.54h5.51c.38,0,.52.13.52.52,0,1.09,0,2.17,0,3.26,0,.42-.12.53-.54.53Z"/><path class="cls-29" d="M757.75,653.77h-1.58c-.41,0-.55-.12-.55-.52,0-1.09,0-2.19,0-3.29,0-.37.15-.51.53-.51h3.26c.4,0,.53.14.53.54,0,1.09,0,2.17,0,3.26,0,.39-.13.52-.55.52Z"/><path class="cls-29" d="M770.7,653.77h-1.58c-.43,0-.56-.12-.57-.54V650c0-.37.14-.52.52-.52h3.29c.38,0,.52.14.52.53,0,1.08,0,2.17,0,3.25,0,.41-.13.54-.54.54Z"/><path class="cls-29" d="M738.37,653.77h-1.61c-.41,0-.55-.13-.55-.52V650a.45.45,0,0,1,.51-.51H740a.45.45,0,0,1,.5.51c0,1.1,0,2.2,0,3.29,0,.39-.14.52-.52.52Z"/><path class="cls-29" d="M732.41,640.84h-1.64q-.48,0-.48-.45c0-1.13,0-2.26,0-3.39a.41.41,0,0,1,.47-.46h3.39a.4.4,0,0,1,.46.46c0,1.12,0,2.24,0,3.36a.42.42,0,0,1-.48.48Z"/><path class="cls-29" d="M745,640.84H743.4c-.39,0-.53-.11-.53-.49,0-1.11,0-2.22,0-3.33a.42.42,0,0,1,.49-.47h3.36a.42.42,0,0,1,.48.48c0,1.11,0,2.22,0,3.32,0,.37-.14.49-.51.49Z"/><path class="cls-29" d="M738.77,640.84h-1.71c-.32,0-.48-.16-.48-.45,0-1.13,0-2.27,0-3.4,0-.3.16-.45.47-.45h3.4a.41.41,0,0,1,.46.46v3.36a.43.43,0,0,1-.49.48Z"/><path class="cls-29" d="M751.31,640.84H749.7c-.4,0-.53-.11-.53-.49,0-1.11,0-2.22,0-3.33a.42.42,0,0,1,.49-.47H753c.34,0,.48.17.48.48,0,1.11,0,2.22,0,3.32,0,.37-.14.49-.5.49Z"/><path class="cls-29" d="M747,651.63v1.64c0,.37-.13.5-.5.5h-3.32c-.33,0-.49-.15-.49-.48v-3.36a.42.42,0,0,1,.48-.48h3.33c.38,0,.5.14.5.54Z"/><path class="cls-29" d="M766.4,651.63v1.65c0,.36-.13.49-.5.49h-3.33c-.32,0-.47-.15-.47-.48,0-1.12,0-2.24,0-3.36a.43.43,0,0,1,.49-.48h3.32c.33,0,.51.15.5.5C766.39,650.51,766.4,651.07,766.4,651.63Z"/><path class="cls-29" d="M757.6,640.84H756c-.36,0-.49-.13-.49-.49,0-1.11,0-2.22,0-3.33a.42.42,0,0,1,.48-.47h3.36a.43.43,0,0,1,.48.49c0,1.11,0,2.21,0,3.32,0,.37-.13.49-.5.49Z"/><path class="cls-29" d="M774.3,643H776c.38,0,.52.14.52.52,0,1.09,0,2.19,0,3.29,0,.36-.13.5-.49.5h-3.33c-.34,0-.51-.16-.51-.49,0-1.11,0-2.22,0-3.33,0-.36.14-.48.51-.49Z"/><path class="cls-29" d="M742,647.3h-1.61c-.41,0-.54-.12-.54-.52,0-1.09,0-2.17,0-3.26,0-.41.13-.53.54-.53h3.25c.39,0,.53.13.53.51,0,1.1,0,2.19,0,3.29,0,.38-.13.5-.52.51Z"/><path class="cls-29" d="M735.5,647.3h-1.65c-.39,0-.51-.12-.51-.52v-3.26c0-.4.13-.53.54-.53h3.25c.39,0,.53.12.53.51,0,1.1,0,2.19,0,3.29,0,.39-.12.5-.52.51Z"/><path class="cls-29" d="M763.89,640.84h-1.64c-.36,0-.49-.12-.5-.49V637a.42.42,0,0,1,.48-.47h3.36a.43.43,0,0,1,.48.49c0,1.1,0,2.21,0,3.32,0,.39-.13.49-.53.49Z"/><path class="cls-29" d="M749.15,651.59c0-.55,0-1.1,0-1.64,0-.33.16-.5.48-.5H753a.43.43,0,0,1,.48.49v3.36c0,.32-.17.47-.49.47h-3.33c-.36,0-.49-.13-.49-.5C749.15,652.71,749.15,652.15,749.15,651.59Z"/><path class="cls-29" d="M754.91,647.3H753.3c-.43,0-.56-.12-.56-.55v-3.21c0-.42.13-.55.57-.55h3.22c.4,0,.54.13.54.53,0,1.09,0,2.17,0,3.26,0,.4-.13.52-.55.52Z"/><path class="cls-29" d="M770.19,640.84h-1.64c-.37,0-.5-.12-.5-.49,0-1.1,0-2.21,0-3.32,0-.33.15-.48.47-.48h3.36a.42.42,0,0,1,.48.48v3.36c0,.33-.16.47-.49.47Z"/><path class="cls-29" d="M774.34,638.66v-1.61c0-.39.11-.51.48-.51h3.36c.34,0,.47.16.47.48,0,1.11,0,2.22,0,3.32,0,.38-.12.49-.5.49h-3.32c-.37,0-.48-.12-.49-.49Z"/><path class="cls-29" d="M759.22,645.11c0-.53,0-1.07,0-1.6s.12-.52.52-.52H763c.36,0,.5.13.5.49v3.33c0,.37-.12.49-.5.49h-3.29c-.42,0-.52-.1-.52-.54S759.22,645.66,759.22,645.11Z"/><path class="cls-29" d="M726.15,640.84H724.5c-.33,0-.5-.14-.5-.46V637a.4.4,0,0,1,.47-.45h3.36c.37,0,.49.13.49.51v3.28c0,.38-.13.5-.53.5Z"/><path class="cls-29" d="M765.69,645.13c0-.55,0-1.1,0-1.64,0-.37.13-.5.5-.5h3.32a.43.43,0,0,1,.49.48v3.36c0,.32-.16.47-.49.47h-3.32c-.4,0-.5-.12-.5-.53S765.69,645.68,765.69,645.13Z"/><path class="cls-29" d="M750.59,645.13v1.65c0,.41-.1.52-.5.52H746.8c-.41,0-.51-.11-.51-.51,0-1.1,0-2.2,0-3.29,0-.39.12-.51.52-.51h3.28c.37,0,.49.13.5.5Z"/><path class="cls-29" d="M782.78,640.84h-1.65c-.37,0-.49-.11-.49-.49V637c0-.33.13-.48.46-.48h3.4a.38.38,0,0,1,.44.43v3.43a.39.39,0,0,1-.45.44Z"/><path class="cls-29" d="M753.83,428.5c0,2.39-.05,4.78,0,7.17a5.05,5.05,0,0,0,.6,2.34,2.39,2.39,0,0,0,1.63,1c.34,0,.91-.69,1.08-1.18,2-5.59,3.92-11.21,5.87-16.81.55-1.57.82-1.77,2.45-1.77H771c1.87,0,2.5.89,1.87,2.67q-5.58,15.71-11.18,31.43c-1.15,3.25-2.38,6.44-4.86,9a1,1,0,0,0,0,1.54c3.35,3.68,4.06,8.26,4.41,12.95.19,2.67-.1,2.94-2.75,2.94h-4.82c-1.42,0-1.91-.46-2.12-1.85a54.25,54.25,0,0,0-1-5.56,10,10,0,0,0-1.55-3.08c-.8-1.13-1.75-1-2.42.21-1.66,3-3.34,6-5,9a2.18,2.18,0,0,1-2.19,1.29c-2-.05-4,0-5.95,0-1.76,0-2.46-1.14-1.63-2.69q3.13-5.81,6.29-11.61c.63-1.17.57-1.45-.43-2.33-2.61-2.28-3.63-5.29-3.9-8.62-.12-1.41-.16-2.83-.17-4.24s.6-1.91,1.9-1.92q2.84,0,5.67,0c1.32,0,1.83.54,1.92,1.89a35.07,35.07,0,0,0,.35,3.85,3.53,3.53,0,0,0,2.5,3.13,4,4,0,0,0,4.32-1.43,13.26,13.26,0,0,0,1.6-3c.51-1.18.9-2.41,1.33-3.63.31-.89,0-1.43-.91-1.72-5.11-1.58-7.56-4.73-7.78-10.07s-.38-10.56-.55-15.85c-.06-1.75.46-2.28,2.18-2.28h5.67c1.23,0,1.85.51,1.87,1.74,0,2.51,0,5,0,7.55Z"/><path class="cls-11" d="M276.46,1188.05v16.75h-4.94v-17.54c0-4.14-.88-5.25-3.88-5.25h-1.71v22.79h-8V1201h3.34v-19h-2.07v-3.65h9.13C274.25,1178.36,276.46,1180.38,276.46,1188.05Z"/><path class="cls-11" d="M279.06,1204.8v-3.66h2c2.11,0,2.64-1,2.64-3.61V1182h-3.35v-3.65h8.24v20.09c0,4.58-1.45,6.35-5.59,6.35Z"/><path class="cls-11" d="M309.37,1187.92v16.88h-4.89v-17.06c0-4.62-1.1-5.73-4.1-5.73h-2.11v22.79h-4.89v-26.44h8.06C307,1178.36,309.37,1180.43,309.37,1187.92Z"/><path class="cls-11" d="M330.57,1188.05v16.75h-4.94v-17.54c0-4.14-.88-5.25-3.87-5.25H320v22.79h-8V1201h3.35v-19H313.3v-3.65h9.12C328.37,1178.36,330.57,1180.38,330.57,1188.05Z"/><path class="cls-11" d="M276.19,1226.89h-2.51v22.79h-4.89v-22.79h-7.27v-3.65h14.67Z"/><path class="cls-11" d="M279.85,1249.68v-26.44h4.89v26.44Z"/><path class="cls-11" d="M303.16,1246v3.66H288.4V1246H296v-19.13H288.4v-3.65h12.47V1246Z"/><path class="cls-11" d="M305.5,1238.35v-15.11h4.89v15.11Z"/><path class="cls-11" d="M330.44,1223.24v15.82c0,7-2.21,8.9-7.94,10.35l-7.93,2-1-3.52L317,1247l-2.73-23.75h4.89l2.47,22.56c3.08-.79,3.83-1.94,3.83-5.91v-16.65Z"/><path class="cls-11" d="M301.46,1030v16.74h-4.94v-17.54c0-4.14-.88-5.24-3.88-5.24h-1.71v22.78h-8v-3.79h3.34v-19h-2.07v-3.66h9.13C299.25,1020.29,301.46,1022.32,301.46,1030Z"/><path class="cls-11" d="M304.06,1046.73v-3.65h2c2.11,0,2.64-1,2.64-3.62V1024h-3.35v-3.66h8.24v20.1c0,4.58-1.45,6.34-5.59,6.34Z"/><path class="cls-11" d="M334.37,1029.85v16.88h-4.89v-17c0-4.63-1.1-5.73-4.1-5.73h-2.11v22.78h-4.89v-26.44h8.06C332,1020.29,334.37,1022.36,334.37,1029.85Z"/><path class="cls-11" d="M355.57,1030v16.74h-4.94v-17.54c0-4.14-.88-5.24-3.87-5.24H345v22.78h-8v-3.79h3.35v-19H338.3v-3.66h9.12C353.37,1020.29,355.57,1022.32,355.57,1030Z"/><path class="cls-11" d="M301.19,1068.83h-2.51v22.78h-4.89v-22.78h-7.27v-3.66h14.67Z"/><path class="cls-11" d="M304.85,1091.61v-26.44h4.89v26.44Z"/><path class="cls-11" d="M328.16,1088v3.66H313.4V1088H321v-19.12H313.4v-3.66h12.47V1088Z"/><path class="cls-11" d="M330.5,1080.29v-15.12h4.89v15.12Z"/><path class="cls-11" d="M355.44,1065.17V1081c0,7-2.21,8.9-7.94,10.36l-7.93,2-1-3.52,3.48-.89-2.73-23.75h4.89l2.47,22.56c3.08-.79,3.83-1.93,3.83-5.9v-16.66Z"/><path class="cls-11" d="M574.46,425v16.74h-4.94V424.19c0-4.14-.88-5.24-3.88-5.24h-1.71v22.78h-8v-3.79h3.34V419h-2.07v-3.66h9.13C572.25,415.29,574.46,417.32,574.46,425Z"/><path class="cls-11" d="M577.06,441.73v-3.65h2c2.11,0,2.64-1,2.64-3.62V419h-3.35v-3.66h8.24v20.1c0,4.58-1.45,6.34-5.59,6.34Z"/><path class="cls-11" d="M607.37,424.86v16.87h-4.89V424.68c0-4.63-1.1-5.73-4.1-5.73h-2.11v22.78h-4.89V415.29h8.06C605,415.29,607.37,417.36,607.37,424.86Z"/><path class="cls-11" d="M628.57,425v16.74h-4.94V424.19c0-4.14-.88-5.24-3.87-5.24H618v22.78h-8v-3.79h3.35V419H611.3v-3.66h9.12C626.37,415.29,628.57,417.32,628.57,425Z"/><path class="cls-11" d="M574.19,463.83h-2.51v22.78h-4.89V463.83h-7.27v-3.66h14.67Z"/><path class="cls-11" d="M577.85,486.61V460.17h4.89v26.44Z"/><path class="cls-11" d="M601.16,483v3.65H586.4V483H594V463.83H586.4v-3.66h12.47V483Z"/><path class="cls-11" d="M603.5,475.29V460.17h4.89v15.12Z"/><path class="cls-11" d="M628.44,460.17V476c0,7-2.21,8.9-7.94,10.36l-7.93,2-1-3.52,3.48-.89-2.73-23.75h4.89l2.47,22.56c3.08-.79,3.83-1.93,3.83-5.9V460.17Z"/><path class="cls-11" d="M556.78,1188.05v16.75h-4.93v-17.54c0-4.14-.88-5.25-3.88-5.25h-1.72v22.79h-8V1201h3.35v-19h-2.07v-3.65h9.12C554.58,1178.36,556.78,1180.38,556.78,1188.05Z"/><path class="cls-11" d="M561.5,1204.8v-26.44h4.89v26.44Z"/><path class="cls-11" d="M583.27,1194.48l4.67,10.32h-4.76l-6.44-14.19c-1.14.39-1.36,1.36-1.36,3.08v11.11h-4.8V1195c0-4.58,1.36-6.61,4.8-7.49l-4.14-9.12H576l5.9,13.08c1.15-.53,1.45-1.41,1.45-3.3v-9.78h4.76v8.5C588.11,1192.06,586.44,1193.65,583.27,1194.48Z"/><path class="cls-11" d="M599,1188.27c0-4.67-1-6.26-4.18-6.26h-3.62v-3.65H596c6.39,0,7.84,2.68,7.84,9.73v16.71H599Z"/><path class="cls-11" d="M608.6,1204.8v-26.44h4.89v26.44Z"/><path class="cls-11" d="M633.81,1204.8h-4.89V1182h-10.8v-3.65h15.69Zm-10.62-16.71v16.71H618.3v-16.71Z"/><path class="cls-11" d="M557.58,1232.93v16.75h-4.94v-17.54c0-4.15-.88-5.25-3.88-5.25H547v22.79h-8v-3.79h3.35v-19H540.3v-3.65h9.12C555.37,1223.24,557.58,1225.26,557.58,1232.93Z"/><path class="cls-11" d="M562.29,1249.68v-26.44h4.89v26.44Z"/><path class="cls-11" d="M588.2,1232.8v16.88h-4.89v-17.06c0-4.63-1.1-5.73-4.1-5.73h-2.12v22.79H572.2v-26.44h8.07C585.86,1223.24,588.2,1225.31,588.2,1232.8Z"/><path class="cls-11" d="M592.47,1238.35v-15.11h4.9v15.11Z"/><path class="cls-11" d="M608.16,1249.68H602.7l-1.55-26.44h4.72l1.28,22.78h1.14c3.84,0,4.67-1.76,4.67-7.58l0-11.41h-3.75v-3.79h8.51l0,14.67C617.72,1247,615.08,1249.68,608.16,1249.68Z"/><path class="cls-11" d="M635.53,1246v3.66H620.76V1246h7.58v-19.13h-7.58v-3.65h12.48V1246Z"/><path class="cls-11" d="M581.44,1030v16.74H576.5v-17.54c0-4.14-.88-5.24-3.87-5.24h-1.72v22.78h-8v-3.79h3.35v-19h-2.07v-3.66h9.12C579.24,1020.29,581.44,1022.32,581.44,1030Z"/><path class="cls-11" d="M584,1046.73v-3.65h2c2.12,0,2.64-1,2.64-3.62V1024h-3.34v-3.66h8.24v20.1c0,4.58-1.46,6.34-5.6,6.34Z"/><path class="cls-11" d="M614.35,1029.85v16.88h-4.89v-17c0-4.63-1.1-5.73-4.09-5.73h-2.12v22.78h-4.89v-26.44h8.06C612,1020.29,614.35,1022.36,614.35,1029.85Z"/><path class="cls-11" d="M635.55,1030v16.74h-4.93v-17.54c0-4.14-.89-5.24-3.88-5.24H625v22.78h-8v-3.79h3.35v-19h-2.07v-3.66h9.12C633.35,1020.29,635.55,1022.32,635.55,1030Z"/><path class="cls-11" d="M554.16,1091.61h-4.89v-22.78h-10.8v-3.66h15.69Zm-10.62-16.7v16.7h-4.89v-16.7Z"/><path class="cls-11" d="M565.84,1068.83h-8.38v-8.06h4.72v4.4h9.43l-6.08,26.44h-4.85Z"/><path class="cls-11" d="M581.35,1075.09c0-4.67-1-6.26-4.19-6.26h-3.61v-3.66h4.84c6.39,0,7.85,2.69,7.85,9.74v16.7h-4.89Z"/><path class="cls-11" d="M590.56,1080.29v-15.12h4.89v15.12Z"/><path class="cls-11" d="M615.24,1074.12v8.5c0,6.88-1.72,9-7.94,9H600V1088h6.48c3.12,0,3.74-1.18,3.74-5.19V1074c0-4-.57-5.2-3.61-5.2h-2v10.84H600v-14.46h7.31C613.52,1065.17,615.24,1067.29,615.24,1074.12Z"/><path class="cls-11" d="M635.59,1079.89c0,9-2.38,11.72-9.78,11.72h-5.33l-1.63-26.44h16.74Zm-4.8-11.15h-6.87L625,1088H626c4.1,0,4.76-1.76,4.76-7.36Z"/><path class="cls-11" d="M581.92,884.71v16.75H577V883.92c0-4.14-.88-5.24-3.88-5.24h-1.72v22.78h-8v-3.79h3.35v-19h-2.07V875h9.12C579.72,875,581.92,877.05,581.92,884.71Z"/><path class="cls-11" d="M584.52,901.46V897.8h2c2.12,0,2.65-1,2.65-3.61V878.68H585.8V875H594v20.09c0,4.59-1.45,6.35-5.6,6.35Z"/><path class="cls-11" d="M614.84,884.58v16.88H610V884.41c0-4.63-1.1-5.73-4.1-5.73h-2.12v22.78h-4.89V875h8.07C612.5,875,614.84,877.09,614.84,884.58Z"/><path class="cls-11" d="M636,884.71v16.75H631.1V883.92c0-4.14-.88-5.24-3.88-5.24H625.5v22.78h-8v-3.79h3.35v-19h-2.07V875h9.12C633.83,875,636,877.05,636,884.71Z"/><path class="cls-11" d="M553.68,946.34h-4.89V923.56H538V919.9h15.69Zm-10.62-16.7v16.7h-4.89v-16.7Z"/><path class="cls-11" d="M571.74,923.56h-2.51v22.78h-4.89V923.56h-7.27V919.9h14.67Z"/><path class="cls-11" d="M575.4,946.34V919.9h4.89v26.44Z"/><path class="cls-11" d="M601.13,934.62c0,9-2.38,11.72-9.78,11.72H586l-1.63-26.44h16.74Zm-4.8-11.15h-6.87l1,19.3h1.06c4.1,0,4.76-1.76,4.76-7.36Z"/><path class="cls-11" d="M620.79,928.85v8.5c0,6.87-1.72,9-7.94,9h-7.31v-3.66H612c3.13,0,3.74-1.19,3.74-5.2v-8.77c0-4-.57-5.2-3.61-5.2h-2v10.84h-4.63V919.9h7.31C619.07,919.9,620.79,922,620.79,928.85Z"/><path class="cls-11" d="M631.1,929.81c0-4.67-1-6.25-4.19-6.25H623.3V919.9h4.85c6.39,0,7.84,2.69,7.84,9.74v16.7H631.1Z"/><path class="cls-11" d="M899.72,1487.64v4.65H885.61v-4.65H890v-23.15h-4.16v-4.65c1.89,0,3.13-.32,4-1.19s1.24-2.27,1.4-4.21H896v33.2Z"/><path class="cls-11" d="M921.62,1481.64c0,7.35-3.73,11.08-10,11.08-6.38,0-10.11-3.57-9.68-12.43h5.84c-.11,5.78,1.3,8.11,3.95,8.11s3.79-2.11,3.79-7.09c0-4.43-1.09-6.86-4.82-6.86h-2.11v-4.33h2c3.25,0,4.33-2.16,4.33-6s-1.19-5.79-3.57-5.79-3.68,2.16-3.51,7.14H902.1c-.43-7.63,3.3-11.47,9.19-11.47,6.33,0,9.47,3.74,9.47,9.63,0,4.06-1.46,7.14-4.87,8.17C919.57,1472.61,921.62,1476,921.62,1481.64Z"/><path class="cls-11" d="M952.44,1464.33h-3.08v28h-6v-28h-8.92v-4.49h18Zm3,4.22.06-4.16,2.92-10h3.67l-1.84,14.11Zm7.3,0v-4.16l2.92-10h3.68l-1.84,14.11Zm30.12,23.74h-6v-28H973.64v-4.49h19.25Zm-13-20.49v20.49h-6V1471.8Zm35.63,16v4.49H997.38v-4.49h9.3v-23.47h-9.3v-4.49h15.3v28Z"/><path class="cls-11" d="M779.52,133.28V114.73h6v18.55Z"/><path class="cls-11" d="M799,126.9c0-5.73-1.19-7.68-5.14-7.68h-4.43v-4.49h6c7.84,0,9.62,3.3,9.62,12v20.5h-6Z"/><path class="cls-11" d="M830.45,126.47v20.71h-6V126.25c0-5.68-1.35-7-5-7h-2.59v28h-6V114.73h9.9C827.59,114.73,830.45,117.27,830.45,126.47Z"/><path class="cls-11" d="M855.65,132.79c0,11-2.92,14.39-12,14.39H837.1l-2-32.45h20.55Zm-5.89-13.68h-8.44l1.3,23.69h1.3c5,0,5.84-2.17,5.84-9Z"/><path class="cls-11" d="M880.69,127.22v20H869.87v-4.49h4.87V125.55c0-4.65-.81-6.44-4.54-6.44h-1.41L866,147.18h-5.84l2.87-28H860v-4.49h10.81C878.69,114.73,880.69,118.25,880.69,127.22Z"/><path class="cls-11" d="M909.4,119.22h-4c-1.57,1.57-2.54,4.76-1.3,12.38l2.49,15.58h-6l-2.27-14.71c-1.3-7.84,0-11.57,2.06-13l-.06-.22h-5.51v-4.49H909.4Z"/><path class="cls-11" d="M927.62,125.22v11.47c0,8-2.54,10.49-9.19,10.49h-6.49v-4.49h4.17c4.65,0,5.46-1.52,5.46-6.44v-10.6c0-4.92-.81-6.43-5.46-6.43h-4.17v-4.49h6.49C925.08,114.73,927.62,117.22,927.62,125.22Z"/><path class="cls-11" d="M940.28,126.9c0-5.73-1.19-7.68-5.14-7.68h-4.43v-4.49h5.94c7.85,0,9.63,3.3,9.63,12v20.5h-6Z"/><path class="cls-11" d="M971.43,127.22v20H960.61v-4.49h4.87V125.55c0-4.65-.81-6.44-4.54-6.44h-1.41l-2.76,28.07h-5.84l2.87-28h-3.09v-4.49h10.82C969.42,114.73,971.43,118.25,971.43,127.22Z"/><path class="cls-11" d="M216.83,147.18h-6v-28H197.58v-4.49h19.25Zm-13-20.5v20.5h-6v-20.5Z"/><path class="cls-11" d="M237.54,134.52l5.73,12.66h-5.84l-7.9-17.42c-1.4.49-1.67,1.68-1.67,3.79v13.63H222V135.12c0-5.63,1.68-8.11,5.9-9.2l-5.09-11.19h5.84l7.25,16.06c1.41-.65,1.79-1.73,1.79-4v-12h5.84v10.44C243.49,131.55,241.43,133.5,237.54,134.52Z"/><path class="cls-11" d="M267.49,125.71v10.44c0,8.43-2.1,11-9.73,11h-9v-4.49h8c3.84,0,4.6-1.46,4.6-6.38V125.55c0-4.92-.7-6.38-4.43-6.38h-2.44v13.3h-5.68V114.73h9C265.39,114.73,267.49,117.33,267.49,125.71Z"/><path class="cls-11" d="M280.15,126.9c0-5.73-1.19-7.68-5.14-7.68h-4.43v-4.49h5.94c7.84,0,9.63,3.3,9.63,12v20.5h-6Z"/><path class="cls-11" d="M311.29,127.22v20H300.48v-4.49h4.87V125.55c0-4.65-.82-6.44-4.55-6.44h-1.4l-2.76,28.07H290.8l2.87-28h-3.09v-4.49H301.4C309.29,114.73,311.29,118.25,311.29,127.22Z"/><path class="cls-11" d="M209.85,1459.09H199.09v-4.65h17.68l-8.65,37.85h-6.06Z"/><path class="cls-11" d="M246.78,1464.33H243.7v28h-6v-28h-8.92v-4.49h18Zm3,4.22.06-4.16,2.92-10h3.67l-1.84,14.11Zm7.3,0v-4.16l2.92-10h3.68l-1.84,14.11Zm30.12,23.74h-6v-28H268v-4.49h19.25Zm-13-20.49v20.49h-6V1471.8Zm35.63,16v4.49H291.72v-4.49H301v-23.47h-9.3v-4.49H307v28Z"/><path class="cls-11" d="M581.46,738.63v16.74h-4.94V737.84c0-4.15-.88-5.25-3.87-5.25h-1.72v22.78h-8v-3.79h3.35v-19h-2.08v-3.66h9.13C579.26,728.93,581.46,731,581.46,738.63Z"/><path class="cls-11" d="M584.06,755.37v-3.65h2c2.12,0,2.64-1,2.64-3.62V732.59h-3.34v-3.66h8.24V749c0,4.58-1.46,6.34-5.6,6.34Z"/><path class="cls-11" d="M614.37,738.5v16.87h-4.89v-17c0-4.63-1.1-5.73-4.1-5.73h-2.11v22.78h-4.89V728.93h8.06C612,728.93,614.37,731,614.37,738.5Z"/><path class="cls-11" d="M635.57,738.63v16.74h-4.94V737.84c0-4.15-.88-5.25-3.87-5.25H625v22.78h-8v-3.79h3.35v-19H618.3v-3.66h9.12C633.37,728.93,635.57,731,635.57,738.63Z"/><path class="cls-11" d="M490.33,783.73c0-4.67-1-6.26-4.18-6.26h-3.62v-3.66h4.85c6.39,0,7.84,2.69,7.84,9.74v16.7h-4.89Z"/><path class="cls-11" d="M500,800.25V773.81h4.89v26.44Z"/><path class="cls-11" d="M509.9,800.25V773.81h4.89v26.44Z"/><path class="cls-11" d="M519.59,788.93V773.81h4.89v15.12Z"/><path class="cls-11" d="M544.53,773.81v15.82c0,7-2.2,8.91-7.93,10.36l-7.93,2-1-3.52,3.48-.88-2.73-23.76h4.89l2.47,22.57c3.09-.8,3.83-1.94,3.83-5.91V773.81Z"/><path class="cls-11" d="M574.23,783.51v16.74H569.3V782.72c0-4.15-.89-5.25-3.88-5.25H563.7v22.78h-8v-3.79H559v-19H557v-3.66h9.12C572,773.81,574.23,775.84,574.23,783.51Z"/><path class="cls-11" d="M590.18,782.36v9.35c0,6.52-2.07,8.54-7.49,8.54H577.4V796.6h3.4c3.79,0,4.45-1.24,4.45-5.25v-8.63c0-4-.66-5.25-4.45-5.25h-3.4v-3.66h5.29C588.11,773.81,590.18,775.84,590.18,782.36Z"/><path class="cls-11" d="M601,777.47h-8.37v-8.06h4.71v4.4h9.43l-6.08,26.44h-4.85Z"/><path class="cls-11" d="M610.05,800.25V773.81H615v26.44Z"/><path class="cls-11" d="M635.26,800.25h-4.89V777.47h-10.8v-3.66h15.69Zm-10.62-16.7v16.7h-4.89v-16.7Z"/><path class="cls-11" d="M581.46,575.33v16.75h-4.94V574.54c0-4.14-.88-5.25-3.87-5.25h-1.72v22.79h-8v-3.79h3.35v-19h-2.08v-3.65h9.13C579.26,565.64,581.46,567.66,581.46,575.33Z"/><path class="cls-11" d="M584.06,592.08v-3.66h2c2.12,0,2.64-1,2.64-3.61V569.29h-3.34v-3.65h8.24v20.09c0,4.58-1.46,6.35-5.6,6.35Z"/><path class="cls-11" d="M614.37,575.2v16.88h-4.89V575c0-4.62-1.1-5.73-4.1-5.73h-2.11v22.79h-4.89V565.64h8.06C612,565.64,614.37,567.71,614.37,575.2Z"/><path class="cls-11" d="M635.57,575.33v16.75h-4.94V574.54c0-4.14-.88-5.25-3.87-5.25H625v22.79h-8v-3.79h3.35v-19H618.3v-3.65h9.12C633.37,565.64,635.57,567.66,635.57,575.33Z"/><path class="cls-11" d="M490.33,620.43c0-4.67-1-6.26-4.18-6.26h-3.62v-3.65h4.85c6.39,0,7.84,2.68,7.84,9.74V637h-4.89Z"/><path class="cls-11" d="M500,637V610.52h4.89V637Z"/><path class="cls-11" d="M509.9,637V610.52h4.89V637Z"/><path class="cls-11" d="M519.59,625.63V610.52h4.89v15.11Z"/><path class="cls-11" d="M544.53,610.52v15.82c0,7-2.2,8.9-7.93,10.35l-7.93,2-1-3.52,3.48-.88-2.73-23.75h4.89l2.47,22.56c3.09-.79,3.83-1.94,3.83-5.91V610.52Z"/><path class="cls-11" d="M574.23,620.21V637H569.3V619.42c0-4.14-.89-5.25-3.88-5.25H563.7V637h-8v-3.79H559v-19H557v-3.65h9.12C572,610.52,574.23,612.54,574.23,620.21Z"/><path class="cls-11" d="M590.18,619.07v9.34c0,6.52-2.07,8.55-7.49,8.55H577.4V633.3h3.4c3.79,0,4.45-1.23,4.45-5.25v-8.63c0-4-.66-5.25-4.45-5.25h-3.4v-3.65h5.29C588.11,610.52,590.18,612.54,590.18,619.07Z"/><path class="cls-11" d="M601,614.17h-8.37v-8.06h4.71v4.41h9.43L600.67,637h-4.85Z"/><path class="cls-11" d="M610.05,637V610.52H615V637Z"/><path class="cls-11" d="M635.26,637h-4.89V614.17h-10.8v-3.65h15.69Zm-10.62-16.7V637h-4.89v-16.7Z"/><path class="cls-11" d="M826.68,1000.82v16.74h-4.94V1000c0-4.14-.88-5.24-3.87-5.24h-1.72v22.78h-8v-3.79h3.35v-19H809.4v-3.66h9.13C824.48,991.12,826.68,993.15,826.68,1000.82Z"/><path class="cls-11" d="M829.28,1017.56v-3.66h2c2.12,0,2.64-1,2.64-3.61V994.78h-3.35v-3.66h8.25v20.1c0,4.58-1.46,6.34-5.6,6.34Z"/><path class="cls-11" d="M859.59,1000.68v16.88H854.7v-17c0-4.63-1.1-5.73-4.1-5.73h-2.11v22.78H843.6V991.12h8.06C857.26,991.12,859.59,993.19,859.59,1000.68Z"/><path class="cls-11" d="M880.79,1000.82v16.74h-4.94V1000c0-4.14-.88-5.24-3.87-5.24h-1.72v22.78h-8v-3.79h3.35v-19h-2.07v-3.66h9.12C878.59,991.12,880.79,993.15,880.79,1000.82Z"/><path class="cls-11" d="M829.76,1051.12V1036h4.89v15.12Z"/><path class="cls-11" d="M845.63,1045.92c0-4.67-1-6.26-4.19-6.26h-3.61V1036h4.84c6.39,0,7.85,2.69,7.85,9.74v16.7h-4.89Z"/><path class="cls-11" d="M855.28,1062.44V1036h4.89v26.44Z"/><path class="cls-11" d="M880.79,1054.51c0,5.68-2.12,7.93-7,7.93h-1.67v-3.66h.53c2.51,0,3.26-1,3.26-4.62v-14.5H864.71V1036h16.08Zm-10.93-8.77v22.43h-4.94v-22.43Z"/><path class="cls-11" d="M818.7,1095.69c0,8.41-2.33,11.63-10.22,11.63H798.39l-1.59-26.44h4.76l1.32,22.78h4.67c5.38,0,6.39-2.07,6.39-8.32v-14.46h4.76Zm-13-14.81h4.49v16.83h-4.49Z"/><path class="cls-11" d="M823,1096v-15.12h4.89V1096Z"/><path class="cls-11" d="M846.11,1103.66v3.66H831.35v-3.66h7.58v-19.12h-7.58v-3.66h12.47v22.78Z"/><path class="cls-11" d="M861,1089.43v9.34c0,6.52-2.07,8.55-7.49,8.55h-5.29v-3.66h3.4c3.79,0,4.45-1.23,4.45-5.24v-8.64c0-4-.66-5.24-4.45-5.24h-3.4v-3.66h5.29C858.93,1080.88,861,1082.91,861,1089.43Z"/><path class="cls-11" d="M880.66,1080.88v15.82c0,7-2.21,8.9-7.93,10.36l-7.94,2-1-3.53,3.48-.88-2.73-23.75h4.89l2.47,22.56c3.08-.79,3.83-1.94,3.83-5.9v-16.66Z"/><path class="cls-11" d="M826.68,742.21V759h-4.94V741.42c0-4.14-.88-5.25-3.87-5.25h-1.72V759h-8v-3.79h3.35v-19H809.4v-3.65h9.13C824.48,732.52,826.68,734.54,826.68,742.21Z"/><path class="cls-11" d="M829.28,759V755.3h2c2.12,0,2.64-1,2.64-3.61V736.17h-3.35v-3.65h8.25v20.09c0,4.58-1.46,6.35-5.6,6.35Z"/><path class="cls-11" d="M859.59,742.08V759H854.7V741.9c0-4.62-1.1-5.73-4.1-5.73h-2.11V759H843.6V732.52h8.06C857.26,732.52,859.59,734.59,859.59,742.08Z"/><path class="cls-11" d="M880.79,742.21V759h-4.94V741.42c0-4.14-.88-5.25-3.87-5.25h-1.72V759h-8v-3.79h3.35v-19h-2.07v-3.65h9.12C878.59,732.52,880.79,734.54,880.79,742.21Z"/><path class="cls-11" d="M821.08,781.05h-2.51v22.79h-4.89V781.05h-7.27V777.4h14.67Z"/><path class="cls-11" d="M824.52,792.51V777.4h4.89v15.11Z"/><path class="cls-11" d="M847.65,800.18v3.66H832.89v-3.66h7.58V781.05h-7.58V777.4h12.47v22.78Z"/><path class="cls-11" d="M872.37,781.05h-2.51v22.79H865V781.05H857.7V777.4h14.67Z"/><path class="cls-11" d="M875.81,792.51V777.4h4.89v15.11Z"/><path class="cls-11" d="M817.64,421.26V438H812.7V420.47c0-4.14-.88-5.25-3.88-5.25H807.1V438h-8v-3.79h3.35v-19h-2.07v-3.65h9.12C815.43,411.57,817.64,413.59,817.64,421.26Z"/><path class="cls-11" d="M820.23,438v-3.66h2c2.11,0,2.64-1,2.64-3.61V415.22h-3.35v-3.65h8.24v20.09c0,4.58-1.45,6.35-5.59,6.35Z"/><path class="cls-11" d="M850.55,421.13V438h-4.89V421c0-4.62-1.1-5.73-4.1-5.73h-2.11V438h-4.9V411.57h8.07C848.22,411.57,850.55,413.64,850.55,421.13Z"/><path class="cls-11" d="M871.75,421.26V438h-4.94V420.47c0-4.14-.88-5.25-3.88-5.25h-1.72V438h-8v-3.79h3.35v-19h-2.07v-3.65h9.12C869.54,411.57,871.75,413.59,871.75,421.26Z"/><path class="cls-11" d="M831.47,482.89l-4.14-11.81-4.19,11.81h-5.42L824.55,467,818.38,452h5.42l3.48,10.44L830.76,452h5.47L830.06,467l6.83,15.91Z"/><path class="cls-11" d="M852.62,482.89l-1.85-3.79c-2.42,4.84-8.51,5-11.15,2.29-3.3-3.44-2.11-8.29,1.32-12.38l2.73-3.26L842,462.66c-3.22-5.82-1-10.88,4.72-10.88s7.8,6.12,3.7,11.45l-6.61,8.6c-2,2.68-2.56,5-.8,6.43,1.5,1.23,4.15.71,5.51-3.26l3.62-8.81h4.49l-3.83,8.37,4.27,8.33Zm-6.43-20.14,1.45-1.72c2.12-2.6,1.68-6-.92-6s-3.18,2.69-1.28,6.3Z"/><path class="cls-11" d="M873.77,452l-6.56,18.6v12.25h-4.9V470.64L855.75,452H861l3.74,13.4,3.7-13.4Z"/><path class="cls-11" d="M818,554.18v16.75h-4.94V553.39c0-4.14-.88-5.24-3.87-5.24h-1.72v22.78h-8v-3.79h3.35v-19h-2.08v-3.66h9.13C815.81,544.49,818,546.52,818,554.18Z"/><path class="cls-11" d="M820.61,570.93v-3.66h2c2.12,0,2.64-1,2.64-3.61V548.15h-3.35v-3.66h8.25v20.09c0,4.59-1.46,6.35-5.6,6.35Z"/><path class="cls-11" d="M850.92,554.05v16.88H846V553.87c0-4.62-1.1-5.72-4.1-5.72h-2.11v22.78h-4.89V544.49H843C848.59,544.49,850.92,546.56,850.92,554.05Z"/><path class="cls-11" d="M872.12,554.18v16.75h-4.94V553.39c0-4.14-.88-5.24-3.87-5.24h-1.72v22.78h-8v-3.79h3.35v-19h-2.07v-3.66H864C869.92,544.49,872.12,546.52,872.12,554.18Z"/><path class="cls-11" d="M799,599.06v16.75h-4.93V598.27c0-4.14-.88-5.24-3.88-5.24h-1.72v22.78h-8V612h3.35V593h-2.07v-3.66h9.12C796.81,589.37,799,591.39,799,599.06Z"/><path class="cls-11" d="M816.29,593h-2.51v22.78h-4.9V593h-7.27v-3.66h14.68Z"/><path class="cls-11" d="M827.08,593h-8.37V585h4.72v4.41h9.43l-6.09,26.44h-4.84Z"/><path class="cls-11" d="M851.76,607.88c0,5.68-2.12,7.93-7,7.93h-1.67v-3.66h.53c2.51,0,3.26-1,3.26-4.63V593H835.68v-3.66h16.08Zm-10.93-8.77v22.43H835.9V599.11Z"/><path class="cls-11" d="M872.21,599.55v16.26h-8.82v-3.66h4v-14c0-3.79-.66-5.24-3.7-5.24h-1.15l-2.25,22.87H855.5L857.84,593h-2.51v-3.66h8.81C870.58,589.37,872.21,592.23,872.21,599.55Z"/></svg>