<svg id="Layer_1" data-name="Layer 1" xmlns="http://www.w3.org/2000/svg" xmlns:xlink="http://www.w3.org/1999/xlink" viewBox="0 0 186.39 186.39"><defs><style>.cls-1{fill:#d2ecfb;}.cls-2{fill:url(#linear-gradient);}.cls-3{fill:url(#linear-gradient-2);}</style><linearGradient id="linear-gradient" x1="16.85" y1="117.08" x2="169.54" y2="117.08" gradientUnits="userSpaceOnUse"><stop offset="0" stop-color="#008ccf"/><stop offset="0.13" stop-color="#1999d6"/><stop offset="0.41" stop-color="#47b1e3"/><stop offset="0.66" stop-color="#6ac2ed"/><stop offset="0.86" stop-color="#7ecdf3"/><stop offset="1" stop-color="#86d1f5"/></linearGradient><linearGradient id="linear-gradient-2" x1="117.04" y1="69.43" x2="164.76" y2="69.43" xlink:href="#linear-gradient"/></defs><circle class="cls-1" cx="93.19" cy="93.19" r="93.19"/><path class="cls-2" d="M169.54,136.29q-18.69,9.38-37.4,18.7a2.43,2.43,0,0,1-1.87-.17Q112.48,146,94.73,137.07a2.92,2.92,0,0,0-3,0Q74,146,56.2,154.79a2.63,2.63,0,0,1-2,.16q-18.33-9.07-36.6-18.27c-.22-.11-.42-.24-.74-.43,9.53-19,19-38.06,28.6-57.2l19,19.07c.68-.42,1.15-.69,1.59-1Q79,88.51,91.89,79.85a1.91,1.91,0,0,1,2.57,0c8.64,5.84,17.32,11.6,26,17.38.4.27.83.52,1.33.84l2.39-2.24,4.6,9c-1.48.8-1.3,2-1,3.34,2.35,11.54,4.64,23.1,7,34.82l21.94-11c-2.63-5.26-5.16-10.47-7.84-15.61a3.29,3.29,0,0,1,0-3.52c1.54-2.81,2.94-5.69,4.51-8.77.38.69.65,1.14.89,1.6l14.43,28.88c.24.48.54.94.82,1.4ZM61.87,141.05a2.29,2.29,0,0,0,.56-.09c8.41-4.2,16.84-8.4,25.22-12.66a2,2,0,0,0,.75-1.51c0-10.58,0-21.16,0-31.74a11.73,11.73,0,0,0-.14-1.22c-6.44,4.29-12.72,8.45-19,12.68a2.69,2.69,0,0,0-.87,1.59q-2.38,11.64-4.7,23.3C63.12,134.59,62.5,137.78,61.87,141.05ZM98.07,93.8c0,.44-.09.62-.09.81,0,10.78,0,21.55,0,32.33,0,1,.48,1.27,1.18,1.62q12,6,24.06,12c.38.19.78.35,1.18.53.06-.2.13-.3.11-.38q-3.28-16.53-6.6-33.06a2,2,0,0,0-.8-1.16C110.83,102.29,104.55,98.12,98.07,93.8ZM48.23,95,29.72,132,51.5,142.9a1.28,1.28,0,0,0,.18-.22c2.4-11.9,4.82-23.79,7.16-35.69a2.16,2.16,0,0,0-.63-1.64c-2.7-2.79-5.47-5.5-8.19-8.25C49.44,96.51,48.94,95.83,48.23,95Z"/><path class="cls-3" d="M140.92,107.59c-.34-.58-.6-1-.81-1.41Q129.88,86.11,119.66,66a23.85,23.85,0,1,1,42.38.27Q151.93,86.19,141.78,106C141.54,106.51,141.27,107,140.92,107.59Zm0-66.7c-8,.32-14.16,6-14.23,14.22a14.22,14.22,0,0,0,28.44.16C155.2,47.26,149.2,41.24,140.92,40.89Z"/></svg>