<svg id="Layer_1" data-name="Layer 1" xmlns="http://www.w3.org/2000/svg" viewBox="0 0 659.85 238.4"><defs><style>.cls-1{fill:none;stroke:#fff;stroke-linecap:round;stroke-miterlimit:10;stroke-width:3.69px;}.cls-2{fill:#f7ae6d;}.cls-3{fill:#40b2a7;}.cls-4{fill:#ee726d;}.cls-5{fill:#fff;}.cls-6{fill:#edda9d;}.cls-7{fill:#7fcad2;}.cls-8{fill:#f29597;}.cls-9{fill:#8ccdc8;}</style></defs><line class="cls-1" x1="10" y1="134.52" x2="658" y2="134.52"/><path class="cls-2" d="M26.6,82.68V56.54c0-20.48,7.77-29.07,25.79-29.07s25.89,8.59,25.89,29.07V82.68c0,20.6-7.76,29.19-25.89,29.19S26.6,103.28,26.6,82.68ZM59,85V54.19c0-9.42-1.77-12.71-6.59-12.71s-6.48,3.29-6.48,12.71V85c0,9.42,1.77,12.83,6.48,12.83S59,94.45,59,85Z"/><path class="cls-3" d="M137.85,69.61c0,34.38-6.47,41.2-29.43,41.2H88.29V28.41h20.13C131.38,28.41,137.85,35.35,137.85,69.61Zm-18.83,0c0-23.9-1.3-27.19-10.25-27.19h-1.64V96.8h1.64C117.72,96.8,119,93.51,119,69.61Z"/><path class="cls-4" d="M189.53,42.89H175.29v67.92H156.45V42.89H142.21V28.41h47.32Z"/><path class="cls-5" d="M245.21,40.18H218.49v70.63h48.15V66.08C266.64,47.24,261.34,40.18,245.21,40.18Zm3.54,57.1H236.39V53.72h5.17c5.18,0,7.19,2.71,7.19,11.89Zm77.1-30.38v43.91H307V66.31c0-9.88-1.77-12.12-7.89-12.12h-3.29v56.62H277V40.18h26.49C319.5,40.18,325.85,46.07,325.85,66.9Zm61.57.59v43.32H368.59V64.31c0-7.65-1.3-10.12-7.18-10.12h-3.18v56.62h-26V96.33h8.12V54.19H335v-14h29C381.3,40.18,387.42,46.18,387.42,67.49Zm59.45,2v41.32h-26v-14h7.53V64.08c0-7.89-1.53-10.36-7.06-10.36h-1.89l-5.65,57.09H395.55l6-56.62h-6.36v-14h28.14C441.69,40.18,446.87,47.83,446.87,69.49Zm83.59-2v43.32H511.62V64.31c0-7.65-1.29-10.12-7.18-10.12h-3.18v56.62h-26V96.33h8.13V54.19h-5.3v-14h29C524.33,40.18,530.46,46.18,530.46,67.49ZM587.2,66v19c0,20.37-5.53,25.9-23.78,25.9H540.11v-14h20c6.36,0,7.65-2.12,7.65-11.42V65.49c0-9.42-1-11.54-7.18-11.54h-2.7V79.62H540.11V40.18h23.31C581.67,40.18,587.2,45.83,587.2,66Zm58.74,3.53v41.32h-26v-14h7.53V64.08c0-7.89-1.53-10.36-7.06-10.36h-1.89l-5.65,57.09H594.62l6-56.62h-6.36v-14H622.4C640.76,40.18,645.94,47.83,645.94,69.49Z"/><path class="cls-6" d="M53.92,25.88C36,25.88,28.27,34.42,28.27,54.8v26c0,20.5,7.73,29,25.65,29s25.76-8.54,25.76-29v-26C79.68,34.42,72,25.88,53.92,25.88Zm6.56,57.26c0,9.36-1.76,12.76-6.56,12.76s-6.44-3.4-6.44-12.76V52.46c0-9.37,1.75-12.65,6.44-12.65s6.56,3.28,6.56,12.65Z"/><path class="cls-7" d="M109.79,26.81h-20v82h20c22.83,0,29.27-6.79,29.27-41S132.62,26.81,109.79,26.81Zm.35,68H108.5V40.75h1.64c8.9,0,10.19,3.28,10.19,27.05S119,94.85,110.14,94.85Z"/><polygon class="cls-8" points="143.53 26.81 143.53 41.22 157.7 41.22 157.7 108.78 176.43 108.78 176.43 41.22 190.6 41.22 190.6 26.81 143.53 26.81"/><path class="cls-2" d="M79.07,194.25V176c0-14.34,5.44-20.35,18-20.35s18.12,6,18.12,20.35v18.29c0,14.41-5.43,20.43-18.12,20.43S79.07,208.66,79.07,194.25Zm22.65,1.64V174.31c0-6.59-1.23-8.9-4.61-8.9s-4.53,2.31-4.53,8.9v21.58c0,6.59,1.23,9,4.53,9S101.72,202.48,101.72,195.89Z"/><path class="cls-2" d="M154.69,168.63v45.31H141.84v-2.56a10.83,10.83,0,0,1-8,3.05c-8.24,0-12.6-4.61-12.6-16.64V168.63H134.1V198.2c0,4.53,1.32,6.43,3.79,6.43,2.88,0,4-2,4-6.51V168.63Z"/><path class="cls-2" d="M182.29,204.46v9.48h-4.78c-10.54,0-14.17-3.13-14.17-12.86V177.44h-3.87v-8.81h3.87V156.27h12.85v12.36h5.69v8.81h-5.69V200.1c0,3.29.74,4.36,3.87,4.36Z"/><path class="cls-3" d="M237.65,185.1c0,24.06-4.53,28.84-20.6,28.84H203V156.27h14.09C233.12,156.27,237.65,161.13,237.65,185.1Zm-13.18,0c0-16.72-.91-19-7.17-19h-1.15v38.06h1.15C223.56,204.13,224.47,201.83,224.47,185.1Z"/><path class="cls-3" d="M242.67,191.36c0-16.39,4.86-23.31,17.14-23.31s17.3,6.92,17.3,23.31-4.95,23.23-17.3,23.23S242.67,207.67,242.67,191.36Zm21.17,0c0-10.46-.9-13.92-4-13.92-3,0-4,3.46-4,13.92s1,13.84,4,13.84C262.94,205.2,263.84,201.91,263.84,191.36Z"/><path class="cls-3" d="M281.47,191.36c0-16.39,4.86-23.31,17.14-23.31s17.3,6.92,17.3,23.31-5,23.23-17.3,23.23S281.47,207.67,281.47,191.36Zm21.17,0c0-10.46-.9-13.92-4-13.92-3,0-4,3.46-4,13.92s1,13.84,4,13.84C301.74,205.2,302.64,201.91,302.64,191.36Z"/><path class="cls-3" d="M321.59,168.63H333.7v9.3l.08.09c1.49-5.44,4.29-9.39,11-9.39h.82v12.11h-.82c-6.18,0-10.46,2.22-10.46,12.93l.16,20.27H321.59Z"/><path class="cls-4" d="M396.23,166.4h-10v47.54H373.08V166.4h-10V156.27h33.12Z"/><path class="cls-4" d="M397.38,168.63h12.11v9.3l.08.09c1.49-5.44,4.29-9.39,11-9.39h.82v12.11h-.82c-6.18,0-10.46,2.22-10.46,12.93l.16,20.27H397.38Z"/><path class="cls-4" d="M454.22,185.43v28.51H441.45v-4c-1.73,3-4.61,4.29-8.65,4.29-6.5,0-10.79-4.45-11-12-.25-9.72,6.26-16.73,19.6-20.19-.41-3.79-1.56-4.61-4.78-4.61-3.87,0-7.57.91-11.61,1.81l-1.73-8.81a65.68,65.68,0,0,1,15.24-2.31C448.21,168.13,454.22,172.25,454.22,185.43Zm-12.68,12v-6.92c-5.44,2.31-7.09,5.68-7.09,9.31,0,3,1.32,4.28,3.46,4.28C440.47,204.13,441.54,201.91,441.54,197.46Z"/><path class="cls-4" d="M460.48,163.6V152.15h12.85V163.6Zm12.85,50.34H460.48V168.63h12.85Z"/><path class="cls-4" d="M513.7,184.2v29.74H500.85V184.36c0-4.45-1.24-6.43-3.79-6.43-2.72,0-4,2-4,6.43v29.58H480.25V168.63H493.1v2.88a11.07,11.07,0,0,1,8.16-3.21C510.07,168.3,513.7,173.24,513.7,184.2Z"/><path class="cls-4" d="M520,163.6V152.15h12.85V163.6Zm12.85,50.34H520V168.63h12.85Z"/><path class="cls-4" d="M573.18,184.2v29.74H560.33V184.36c0-4.45-1.24-6.43-3.79-6.43-2.72,0-4,2-4,6.43v29.58H539.73V168.63h12.85v2.88a11.05,11.05,0,0,1,8.16-3.21C569.55,168.3,573.18,173.24,573.18,184.2Z"/><path class="cls-4" d="M612.06,168.63v43.58c0,14-6,18.7-17.63,18.7a46.38,46.38,0,0,1-12.52-1.9l1.48-9.06a31.06,31.06,0,0,0,8.9,1.48c5.93,0,6.92-2.63,6.92-10.62v-1.9c-1.9,1.81-4.45,2.72-7.91,2.72-10.38,0-13.1-7.66-13.1-21.75s2.72-21.67,13.1-21.67c3.54,0,6.1.91,7.91,2.72v-2.3Zm-12.44,21.42c0-9.56-1.07-12.77-4.2-12.77s-4.2,3.21-4.2,12.77,1.15,12.76,4.2,12.76S599.62,199.68,599.62,190.05Z"/><path class="cls-6" d="M100.4,154.05c-12.53,0-17.94,6-17.94,20.24v18.19c0,14.34,5.41,20.32,17.94,20.32s18-6,18-20.32V174.29C118.43,160,113,154.05,100.4,154.05ZM105,194.12c0,6.55-1.23,8.93-4.59,8.93s-4.5-2.38-4.5-8.93V172.65c0-6.56,1.23-8.85,4.5-8.85s4.59,2.29,4.59,8.85Z"/><path class="cls-6" d="M144.89,196.33c0,4.51-1.06,6.47-3.93,6.47-2.46,0-3.77-1.88-3.77-6.39V167H124.41v29c0,12,4.34,16.55,12.54,16.55a10.76,10.76,0,0,0,7.94-3v2.54h12.79V167H144.89Z"/><path class="cls-6" d="M182.91,202.64c-3.11,0-3.85-1.07-3.85-4.34V175.76h5.66V167h-5.66V154.7H166.28V167h-3.85v8.77h3.85v23.52c0,9.67,3.6,12.78,14.09,12.78h4.76v-9.42Z"/><path class="cls-9" d="M219.7,154.7h-14v57.36h14c16,0,20.49-4.75,20.49-28.68S235.68,154.7,219.7,154.7Zm.25,47.61H218.8V164.45H220c6.23,0,7.13,2.3,7.13,18.93S226.18,202.31,220,202.31Z"/><path class="cls-9" d="M262.23,166.42c-12.21,0-17.05,6.88-17.05,23.19s4.84,23.11,17.05,23.11,17.2-6.89,17.2-23.11S274.52,166.42,262.23,166.42Zm0,37c-3,0-3.94-3.28-3.94-13.77s1-13.85,3.94-13.85c3.11,0,4,3.44,4,13.85S265.34,203.38,262.23,203.38Z"/><path class="cls-9" d="M300.82,166.42c-12.21,0-17.05,6.88-17.05,23.19s4.84,23.11,17.05,23.11S318,205.83,318,189.61,313.11,166.42,300.82,166.42Zm0,37c-2.95,0-3.93-3.28-3.93-13.77s1-13.85,3.93-13.85c3.11,0,4,3.44,4,13.85S303.93,203.38,300.82,203.38Z"/><path class="cls-9" d="M346.7,167c-6.63,0-9.42,3.94-10.89,9.35l-.09-.09V167h-12v45.07h12.78l-.16-20.16c0-10.65,4.26-12.86,10.4-12.86h.82V167Z"/><polygon class="cls-8" points="364.97 164.78 374.89 164.78 374.89 212.06 388 212.06 388 164.78 397.91 164.78 397.91 154.7 364.97 154.7 364.97 164.78"/><path class="cls-8" d="M411.19,176.34l-.09-.09V167h-12v45.07h12.78l-.16-20.16c0-10.65,4.26-12.86,10.4-12.86h.82V167h-.82C415.45,167,412.66,170.93,411.19,176.34Z"/><path class="cls-8" d="M440,166.5a65.61,65.61,0,0,0-15.16,2.3l1.72,8.76c4-.9,7.7-1.8,11.55-1.8,3.2,0,4.35.82,4.76,4.59-13.28,3.44-19.75,10.41-19.51,20.08.25,7.53,4.51,12,11,12,4,0,6.89-1.31,8.61-4.26v3.93h12.7V183.71C455.6,170.6,449.62,166.5,440,166.5Zm3,29.17c0,4.43-1.07,6.64-3.61,6.64-2.13,0-3.44-1.31-3.44-4.26,0-3.61,1.64-7,7.05-9.26Z"/><rect class="cls-8" x="461.82" y="150.61" width="12.78" height="11.39"/><rect class="cls-8" x="461.82" y="166.99" width="12.78" height="45.07"/><path class="cls-8" d="M502.38,166.67a11,11,0,0,0-8.11,3.19V167H481.49v45.07h12.78V182.64c0-4.42,1.23-6.39,3.93-6.39,2.54,0,3.77,2,3.77,6.39v29.42h12.78V182.48C514.75,171.58,511.15,166.67,502.38,166.67Z"/><rect class="cls-8" x="520.98" y="166.99" width="12.78" height="45.07"/><rect class="cls-8" x="520.98" y="150.61" width="12.78" height="11.39"/><path class="cls-8" d="M561.54,166.67a11,11,0,0,0-8.11,3.19V167H540.64v45.07h12.79V182.64c0-4.42,1.23-6.39,3.93-6.39,2.54,0,3.77,2,3.77,6.39v29.42h12.78V182.48C573.91,171.58,570.31,166.67,561.54,166.67Z"/><path class="cls-8" d="M599.8,167v2.3c-1.8-1.8-4.34-2.71-7.86-2.71-10.33,0-13,7.54-13,21.56s2.7,21.63,13,21.63c3.44,0,6-.9,7.86-2.71V209c0,8-1,10.57-6.88,10.57a30.77,30.77,0,0,1-8.85-1.48l-1.47,9a46.26,46.26,0,0,0,12.45,1.88c11.55,0,17.54-4.67,17.54-18.6V167ZM596,201c-3,0-4.18-3.11-4.18-12.7S593,175.6,596,175.6s4.18,3.19,4.18,12.7S599.07,201,596,201Z"/></svg>