<?xml version="1.0" encoding="utf-8"?>
<!-- Generator: Adobe Illustrator 20.0.0, SVG Export Plug-In . SVG Version: 6.00 Build 0)  -->
<svg version="1.1" id="Layer_1" xmlns="http://www.w3.org/2000/svg" xmlns:xlink="http://www.w3.org/1999/xlink" x="0px" y="0px"
	 viewBox="0 0 1242 2208" style="enable-background:new 0 0 1242 2208;" xml:space="preserve">
<style type="text/css">
	.st0{fill:#FFFFFF;}
	.st1{fill:url(#SVGID_1_);}
	.st2{opacity:0.11;}
	.st3{clip-path:url(#SVGID_3_);}
	.st4{font-family:'Arial-BoldMT';}
	.st5{font-size:95.4px;}
	.st6{font-size:94.88px;}
	.st7{clip-path:url(#SVGID_5_);}
	.st8{opacity:0.18;}
	.st9{fill:url(#SVGID_6_);}
	.st10{fill:url(#SVGID_7_);}
	.st11{fill:url(#SVGID_8_);}
	.st12{fill:url(#SVGID_9_);}
	.st13{fill:url(#SVGID_10_);}
	.st14{fill:url(#SVGID_11_);}
	.st15{fill:url(#SVGID_12_);}
	.st16{fill:url(#SVGID_13_);}
	.st17{fill:url(#SVGID_14_);}
	.st18{fill:url(#SVGID_15_);}
	.st19{fill:url(#SVGID_16_);}
	.st20{fill:url(#SVGID_17_);}
</style>
<rect x="-1.7" class="st0" width="1258.3" height="2224.6"/>
<circle class="st0" cx="112.2" cy="108.8" r="75.2"/>
<linearGradient id="SVGID_1_" gradientUnits="userSpaceOnUse" x1="5310.6719" y1="2015.0608" x2="5663.8618" y2="1178.4407" gradientTransform="matrix(-1 0 0 -1 5816.6899 2208)">
	<stop  offset="0" style="stop-color:#008CCF"/>
	<stop  offset="0.13" style="stop-color:#1999D6"/>
	<stop  offset="0.41" style="stop-color:#47B1E3"/>
	<stop  offset="0.66" style="stop-color:#6AC2ED"/>
	<stop  offset="0.86" style="stop-color:#7ECDF3"/>
	<stop  offset="1" style="stop-color:#86D1F5"/>
</linearGradient>
<path class="st1" d="M969.5-10.4c51-44.4,81,308-68.7,666.2c-231.3,553.4-797.6,815-900.8,856L-1.7-2.4L969.5-10.4z"/>
<g class="st2">
	<g>
		<defs>
			<path id="SVGID_2_" d="M969.3,11.5c51-44.4,81.2,292.3-68.5,650.6C669.5,1215.4,103.2,1477,0,1518L2.6,6.2L969.3,11.5z"/>
		</defs>
		<clipPath id="SVGID_3_">
			<use xlink:href="#SVGID_2_"  style="overflow:visible;"/>
		</clipPath>
		<g class="st3">
			<path class="st0" d="M433,753.2c-13.7-9.4-27.4-17.8-40-27.5c-12.2-9.4-23.7-19.5-34.6-30.4c-30.3-30.7-53.8-65.9-67.1-107.1
				c-4.9-15.1-8.1-30.9-10.6-46.7c-2.3-14-3.3-28.1-3.1-42.2c0.6-28.6,6.4-56.2,18.8-82.4c10.4-22,23.2-42.1,40.9-58.8
				c15.7-14.9,33.5-26.9,53.7-34.6c13.9-5.3,28.1-10.3,42.4-14.4c8.4-2.4,17.5-3.1,26.3-3.8c9.9-0.8,19.9-1.2,29.9-1
				c22.1,0.5,44,4.1,65.1,10.6c9.7,3,19,7.1,28.7,10c5.1,1.5,6.6,4.1,6.1,9c-1,9.3-1.5,18.7-2.2,27.9c-10.5-3.1-20.7-6.2-31-9
				c-18.6-5-37.7-7.3-56.9-5.8c-25.2,2-49.7,9.9-71.3,23c-12.1,7.3-23.2,16-33.2,26c-13.3,13.3-23.4,29.5-29.6,47.3
				c-4.5,12.8-8.7,26-10.9,39.3c-1.8,11.1-1,22.8-0.4,34.2c1.1,23,7.5,45,16.3,66.2c6.6,15.8,15.8,30.2,26.4,43.6
				c7,8.8,14.7,17.2,22.4,25.5c3.7,4,8.1,7.2,12,10.9c1.3,1.1,2.1,2.7,2.3,4.4c0.1,27.7,0.1,55.4,0.1,83.1
				C433.4,751.4,433.3,752.3,433,753.2z"/>
			<path class="st0" d="M327.2,804c-6.8-1-12.1-1.7-17.5-2.5c-13-2-26-4-39.1-5.9c-12.4-1.8-24.8-3.5-37.3-5
				c-7.1-0.9-14.4-1.2-21.5-2.3c-2.3-0.4-4.5-1.6-6-3.4c-25-33.4-44.5-70.6-57.9-110.1c-6.8-20.2-11.9-41-15.4-62
				c-3.9-23.7-5.1-47.7-3.7-71.6c2-37,9.7-73,24.2-107.4c10.2-24.7,23.9-47.8,40.7-68.6c20.7-25.5,45.4-46.5,73.5-63.5
				c23.6-14.5,49.1-25.7,75.8-33.2l15.8,17.9c-10.7,7.2-21.7,14.1-32.2,21.7c-20.7,14.9-39.8,31.9-56.9,50.9
				c-15,16.5-28.4,34.5-40,53.5c-14.9,24.8-25.2,51.4-31.9,79.6c-5,21.2-7,43-5.9,64.7c0.8,18.3,5.3,35.9,10.5,53.4
				c14.3,48.5,37.2,94.1,67.7,134.4c13.4,17.7,28.8,33.7,44.8,49.1C318.4,797,322.3,799.9,327.2,804z"/>
			<path class="st0" d="M848.1,676.3c-9.2,15.7-18.1,31.5-27.7,46.9c-10.4,16.8-22.9,32.1-37.3,45.6c-8.7,8.1-18.9,14.4-30,18.8
				c-17.8,7.1-35.4,14.5-53.6,20.7c-19.6,6.6-39.7,11.6-60.5,12.8c-3.3,0.2-5.4,1.7-7.1,4.5c-11.6,18.2-22.8,36.7-35.3,54.3
				c-10.5,15-21.8,29.3-34,42.9c-19.7,21.9-39.9,43.4-61,64c-15.3,14.9-32.3,28-48.5,41.9c-1.1,1-2.2,2-3.5,3.2
				c-0.3-0.6-0.7-1-0.7-1.4c0-16.7-0.1-33.3,0-50c0.1-1.5,0.9-2.9,2.2-3.8c21.1-12.4,41-26.8,59.2-43.2c13.4-12.2,27-24.2,39.3-37.5
				c20.7-22.2,38.9-46.6,54.3-72.8c15.5-26.5,28.1-54.1,37-83.5c3-10,5.5-20.2,8.2-30.3c10,1.9,19-0.3,28.6-6.5
				c-1.5,7.2-2.4,13.2-3.9,19c-2.8,10.6-6.1,21.1-9,31.7c-0.4,1.5,0.6,3.5,0.9,5.2c1.6-0.8,3.7-1.3,4.6-2.6
				c19.3-25.8,42.8-46.9,71.8-61.2c16.6-8.2,34.5-13.5,52.9-15.6c17.2-2,34.4-3.6,51.6-5.4L848.1,676.3z"/>
			<path class="st0" d="M537.5,303.4l-41.6-6V178.9h-13.3v118.2l-42,3.1v-4.9c0-35.8,0.3-71.7-0.2-107.5c-0.1-10,1.8-20,5.5-29.3
				c13.6-36,27.1-72.1,40.6-108.1c0.6-1.7,1.5-3.3,2.7-5.8c4.2,11.1,8.1,21.5,12,31.9c11.6,31.1,23.2,62.1,34.9,93.2
				c0.9,2.3,1.4,4.8,1.5,7.4c0.1,41.1,0.1,82.2,0.1,123.4C537.7,301.4,537.6,302.4,537.5,303.4z"/>
			<path class="st0" d="M442.1,401.4c26.2,2.2,52,8.2,76.5,17.9c24.3,9.5,46.1,24.3,64,43.3c19.1,20.1,34.6,43.3,45.9,68.6
				c1.9,4.2,4.2,5.3,8.5,3.4c12.7-5.5,27.5,0.3,33,13c1.6,3.8,2.3,7.9,2,12c-1,13.1-7.7,20.4-21.3,23.8c-9.9,2.5-23.5-4.9-27.1-14.7
				c-1.4-4-4-5.2-7.3-6.7c-25.8-11.1-51.9-21.8-77.3-33.7c-16-7.5-31.7-16.2-43.9-29.6c-15.8-17.6-28.6-37.6-38-59.3
				C451.7,427.1,447.2,414.4,442.1,401.4z"/>
			<path class="st0" d="M659.2,408.6c3.6-8.8,7.5-18.3,11.5-28.4c2.1,1.3,4.1,2.8,6,4.4c16.8,16.1,32.6,33.1,45.7,52.6
				c19.3,28.9,33.1,60.1,40.2,94.1c1.9,9.3,2.5,18.9,3.2,28.4s1.5,18.9,1,28.3c-1.6,30.4-7.1,60-19.6,87.9c-0.6,1.4-1.1,2.8-1.7,4.2
				c-1.9,5.2-5.8,9.4-10.8,11.7c-14.1,7-27.1,16.1-38.5,27c-6.6,6.2-13.2,12.5-20.1,19c1.9-8.1,3.6-16.1,5.7-24s4.3-16,6.7-23.9
				c2.1-7.2,1.8-14.9-0.8-22c-1.8-5.2-0.8-11,2.6-15.3c13.7-18.2,23.6-38.9,29.1-61c4.5-17.5,6-35.6,4.4-53.6
				c-3.6-38.2-17.2-72.8-41.5-102.9C675.2,426.2,667.2,417.8,659.2,408.6z"/>
			<path class="st0" d="M661.7,525.4c-7.3-3-14.1-4.2-21.3-2.3c-2.5,0.7-4,0.2-5.1-3c-15.2-42.4-36.4-81.8-62.3-118.5
				c-7.6-10.8-16.6-20.7-24.6-31.3c-1.9-2.5-2.4-5.9-3.5-8.9l1.5-1c5.4,4.3,11.2,8.2,16,13.1c12.9,13.3,25.3,27.2,38.1,40.7
				c1.1,1.1,3.1,1.4,4.7,2c0.5-1.6,1.8-3.5,1.5-4.9c-5.8-24.6-6.9-49.7-5.8-74.8c1.1-24.4,7.9-47.5,21.2-68.1
				c8.6-13.3,19-25.5,28.6-38.1c1-1,2-2,3.1-2.9c3.1,9.2,6.6,17.8,8.9,26.7c4.2,16.4,8,33,11.3,49.6c4.6,22.7,1.5,44.9-6.3,66.6
				c-9.7,27.7-22.1,54.4-37,79.7c-1.7,2.9-2.2,5.2-0.5,8.2C643,479.4,653.5,501.9,661.7,525.4z"/>
			<path class="st0" d="M440.3,593.3c6.5-1.3,12.5-3.1,18.5-3.7c14.7-1.4,29.5-3,44.3-3c30.4,0.1,57.9,9.6,82.5,27.9
				c16.3,12.3,31.6,25.9,45.6,40.8c2.7,2.9,4.4,3,7.4,0.2c8.1-7.5,20.2-9,29.8-3.6c8.9,5.1,14.9,16.5,12.8,25.9
				c-3,12.9-8.4,18.4-21.3,21.7c-9.1,2.4-21.1-3.7-26.3-12.9c-1.6-2.8-3.2-4.3-6.5-4.3c-13.7-0.2-27.5,0-41.1-1.1
				c-24.2-1.9-48.3-4.9-70.7-14.8c-9.7-4.5-18.8-10.4-26.7-17.5c-17.2-15.2-32-32.8-45.1-51.7C442.7,596,441.8,595.1,440.3,593.3z"
				/>
			<path class="st0" d="M314.8,149.4c7.6,2.2,14.2,3.8,20.7,5.9c26.4,8.7,51.1,22,72.8,39.5c6.9,5.5,13.4,11.4,19.5,17.7
				c2.2,2.5,3.4,5.6,3.5,8.9c0.3,23.6,0.1,47.2,0.2,70.9c0,3.6-0.6,5.2-4.7,6c-10.1,2-20,4.9-30.1,7.3c-2,0.5-4.7,0.5-6.2-0.5
				c-17.3-11.9-34-25.1-45-43.2c-7.6-12.5-12.5-26.9-16.8-41c-4.8-15.4-7.9-31.3-11.2-47.1C316,166.1,315.8,158.2,314.8,149.4z"/>
			<path class="st0" d="M319,206.5c2.8,9.1,5.8,18.2,8.3,27.5c0.2,0.9-1.9,3.1-3.3,3.7c-18.4,7.9-37.2,14.9-55.2,23.7
				c-24.4,12-47.3,27-68.1,44.5c-34.5,28.8-63.1,64-84.5,103.5C96.6,445,82.6,483.3,74.6,523.1c-2.1,10.6-3.4,21.4-5.2,32.1
				c-0.2,0.8-0.5,1.5-0.8,2.2c-7.5-47.8,2.4-142.5,60.2-221C176.9,271.2,240.2,227.7,319,206.5z"/>
			<path class="st0" d="M544.9,785.2V712c7.6,0,15-0.2,22.3,0c16.6,0.5,32.6-2.6,48.4-7.3c2.8-0.8,4.4-0.4,6.6,1.5
				c5.6,4.7,11.5,8.9,18.7,14.3c-6.3,17.6-13.1,36.6-19.8,55.7c-1.5,4.1-5,3.6-8.1,4.3C590.7,785.6,568.1,786,544.9,785.2z"/>
			<path class="st0" d="M482.1,580.1l-41.1,6.3V418c5.6,12.2,10.8,25.3,17.5,37.6s14.7,23.8,22.1,35.8c0.8,1.3,1.8,2.9,1.8,4.4
				c0.1,27.7,0,55.4,0,83.1C482.3,579.3,482.2,579.7,482.1,580.1z"/>
			<path class="st0" d="M440.5,1276.4c0-14.3-0.1-28.5,0.1-42.8c0.3-1.6,1.2-2.9,2.5-3.7c30.7-18.4,61.4-36.6,92.2-54.8
				c1.4-0.8,2.9-1.4,4.8-2.3c0.2,1.7,0.4,3,0.4,4.3c0,12.2,0.2,24.4-0.1,36.7c-0.1,2.2-1.6,5.4-3.4,6.5
				c-31.7,19-63.5,37.7-95.3,56.4C441.6,1276.8,441.4,1276.7,440.5,1276.4z"/>
			<path class="st0" d="M380.6,1101.2v-19.8h218.9v19.8H380.6z"/>
			<path class="st0" d="M599.5,1128.8H380.7v-19.8h218.8V1128.8z"/>
			<path class="st0" d="M540.5,1138.2c0,7.1,0.1,13.5-0.1,19.9c0,1.2-1.4,2.7-2.6,3.4c-31.3,18.6-62.7,37.2-94.1,55.7
				c-0.8,0.5-1.8,0.8-3.2,1.5c0-15.3,0-30,0.1-44.7c0-1.1,1.4-2.6,2.5-3.2c17.5-10.5,35-20.9,52.6-31.3c0.9-0.7,2-1.1,3.2-1.2
				C512.5,1138.2,526,1138.2,540.5,1138.2z"/>
			<path class="st0" d="M537.7,583.9l-41.6-4.5v-70.3c5.1,3.6,9.9,7.5,15.1,10.6c7.5,4.6,15.4,8.7,23,13.2c1.5,0.9,3.3,2.8,3.3,4.3
				C537.8,552.7,537.7,568.3,537.7,583.9z"/>
			<path class="st0" d="M537.5,354.3v66.5c-6.3-2.6-12.3-5.3-18.5-7.7c-6.5-2.5-13-4.9-19.7-7c-2.7-0.9-3.7-2-3.7-4.9
				c0.1-14.5,0.2-28.9,0-43.3c0-4,2-5,5.2-4.9C513,353.4,525,353.9,537.5,354.3z"/>
			<path class="st0" d="M632.4,241.5c-4.2,6.1-8.2,11.6-11.8,17.4c-2.1,3.4-4.1,1.7-6.4,0.8c-16.3-6.4-32.5-12.9-48.9-19.1
				c-5.9-2.2-12.1-3.6-18.3-5.4v-27C576.5,216.5,605.1,227.6,632.4,241.5z"/>
			<path class="st0" d="M482.3,355.8V401l-41.6-6.8c0-7.3-0.1-14.5,0.1-21.8c0-1.1,0.6-2.2,1.5-2.9
				C454.9,363.5,467.9,358.6,482.3,355.8z"/>
			<path class="st0" d="M677,579.3c2.1,23.2,4.3,46.8,6.4,70.4l-1.5,0.7c-7-6.6-15.2-10.5-24.6-11.1c-1.2-15.8-2.5-31.3-3.6-45.6
				L677,579.3z"/>
			<path class="st0" d="M784.6,815.4c-2.3-6.3-4.7-11.5-6-17c-1.5-6.2-4.3-10.2-12.9-10c22.6-12.5,37.5-30.5,51.9-49.2
				C810.6,766.1,799.5,791.9,784.6,815.4z"/>
			<path class="st0" d="M826,592c6.3,25.1,6,50.8,4.6,76.8c-3.1,0.2-5.5,0.3-7.8,0.6s-4.6,0.7-6.2,0.9
				C819.7,643.9,822.9,617.8,826,592z"/>
			<path class="st0" d="M1625.9,18.4c-69.3-37.2-139.1,34.9-177.8,84.5c-47,60.2-82.1,128.5-112.6,198.3
				c-31.3,71.5-58.3,144.9-90.1,216.2c-17.1,38.3-35.7,75.8-56,112.5c-18-150.4-82.1-284.5-191.8-399.8
				C866,91.6,702.5,17.1,511.6,9.2C309.9,0.9,133.5,67-12.7,206.5c-138.1,131.8-212.3,295.2-219.9,486
				c-8.1,201.2,57.8,377.3,197,523c120.3,125.9,265.6,196.7,429.8,216.2c-4.4,7.4-8.7,15-12.9,22.6c-17.8,32.7-34.6,67.7-63,92.7
				c-56.6,49.8-144.8,33.2-199.4,87.4c-11.1,10.9-19.2,24.4-23.6,39.3c-2,7.1,9,10.1,11,3c9.7-33.7,41.4-53.9,72.7-65.4
				c35.2-13,73.1-16.7,107.7-31.5c62.5-26.8,88-90.9,120.3-146.7c22.6,2.3,45.5,3.6,68.8,4c194.9-2.4,360.8-67,498.4-198.7
				s211.9-294.6,219.8-485c1.5-34.6,0.6-69.2-2.5-103.7c10.7-18.9,21-38,30.9-57.4c34.4-67.6,62.3-138.1,90.8-208.3
				c28.8-70.9,58.7-141.8,98.3-207.5c19.7-32.7,41.9-63.9,67.2-92.5c24-27.2,54-53.2,90.2-61.7c17.5-4.1,35.3-2.5,51.2,6
				C1626.6,31.8,1632.4,21.9,1625.9,18.4z M-27.7,1199C-153.6,1065.4-217,904.7-216.3,721.2c0.8-199.7,75-370,220.2-507
				C136.9,88.9,296.9,25.4,479.5,25.5c200.8,0.1,372,74.6,509.8,220.6c108.2,114.7,168.9,250.5,185.2,410.1
				c-7.7,13.2-15.5,26.3-23.5,39.2c-2.8-109.7-33-220.2-93.4-321.4C978.7,241.5,866,148,721.7,92.9c-69.4-26.5-141.3-39.9-216.4-42
				l9.7,25c188.1,12,344.6,86.7,464.4,231.7C1084,434.1,1131.1,578,1124.8,736.2c-62.8,94.1-136,180.8-218.2,258.4
				c-7.1-8.1-14.3-16-21.2-24.2c-12.8-15.2-25.5-30.5-37.9-46c-13.5-17-26.7-34.2-39.6-51.6c-17.2-22.9-30.2-48.7-38.5-76.1
				c-3.8,0.3-7.5,0.5-11.2,1c-6.3,0.8-12.8,0.9-18.8,2.8c-19.3,6.1-38.2,13.5-57.6,19.2c-12.3,3.6-25.1,5.5-37.8,7.3
				c-4.1,0.6-6.6,1.5-8.9,5c-11.6,18.1-23.2,36.2-35.3,53.9c-17.9,26-38.6,49.7-60.5,72.3c-17.9,18.5-37,35.8-56.1,53.1
				c-10.5,9.6-22,18.2-33.1,27.2c-1.4,1.1-4.5,2.2-4.9,1.8c-1.4-1.7-2.3-3.8-2.5-6c-0.2-17,0.1-34-0.2-51c-0.1-6,1.1-9.6,7-13.1
				c30.2-17.9,57.5-39.8,82.1-64.7c14.9-15.1,28.5-31.5,41.9-48c8.1-10,14.7-21.1,22-31.8l-0.9-1.2L537.9,840
				c-0.1-0.9-0.2-1.7-0.2-2.5c-0.1-44.4-0.1-88.7-0.2-133.1c0-7,0.1-13.9,0.2-20.9c0-2.5-0.7-3.7-3.6-4.4c-6-1.5-11.8-3.4-17.5-5.8
				c-7-2.9-13.8-6.4-21-9.8V887h-13.1v-6.4c0-74.3,0-148.6,0.1-222.8c0-4.1-1.3-6.8-4.1-9.7c-8.3-8.8-16.3-18-24.3-27.2
				c-4.4-5.1-8.6-10.4-13.6-16.5v235.8c-9-2.5-17.5-5.2-26.2-7.4c-22-5.5-43.9-11.2-66-15.8c-19.4-4.1-39-7.1-58.6-10.3
				c-13.8-2.3-27.7-4.2-41.6-6c-12-1.6-24-2.7-36-4.1c-2.2-0.2-3.4,0.2-4.2,2.9c-6,19.4-14.1,37.9-25.4,54.8
				c-9.6,14.5-19.7,28.8-30.3,42.7c-14,18.3-28.5,36.2-43.1,54c-11,13.3-22.6,26.1-33.8,39.1c-2.4,2.8-4.7,5.8-7.9,9.8
				c9.2-0.5,16.9-1.4,24.7-1.4c37.3,0.2,74.7,0.5,112.1,1c6.1,0.1,12.1,0.6,18.2,1c18.2,1,36.4,1.9,54.6,3.1
				c11.9,0.8,23.8,1.5,35.6,3.2c15.2,2.2,30.2,5.1,45.3,8c26.8,5.3,53.1,12.8,78.5,22.7c3.5,1.3,4.4,3.2,4.3,6.6
				c-0.2,8.8-0.1,17.6-0.1,26.5h97c0-5.4-0.1-10.3,0-15.2c0.1-5.4-1.5-12.2,1.1-15.8s9.6-4.8,14.8-6.6
				c35.5-12.3,71.8-21.3,109.2-25.5c20.2-2.3,40.4-4.3,60.6-6c12.4-1.1,24.9-1.5,37.4-2.1c11.3-0.5,22.7-1,34-1
				c29.4-0.1,58.8-0.1,88.2,0c3.9,0,7.7,0.8,11.6,0.9c2.2,0.1,4.4,0.1,6.7,0.1c-6.7,6.2-13.4,12.4-20.2,18.5
				c-36.9,0-73.8,0.3-110.7,1c-17.5,0.3-35,1.6-52.5,3c-15.5,1.3-31.1,2.6-46.5,5.2c-22.5,3.8-45.1,7.6-67.1,13.4
				c-18.2,4.8-35.8,12.5-53.5,19.1c-1.6,0.6-2.9,1.9-4.3,2.9c1,0.6,2.3,0.8,3.4,0.4c13.7-3.5,27.2-7.9,41.1-10.4
				c22.5-4.1,45.2-7.3,67.9-10.3c17.5-2.3,35-3.8,52.6-5.1c15.2-1.1,30.4-2,45.6-2c27-0.1,54,0.4,81,0.9c7.2,0.2,14.4,0.4,21.7,0.6
				c-8.7,7.5-17.4,14.9-26.2,22.2c-61.8,51.2-128.1,94.9-195.6,138.1c-33.7,21.5-66.5,43.9-97.5,68.5c0.1-10.4,0-20.8,0-31.3
				c-0.1-1.1-0.3-2.1-0.7-3.2c-0.9,0.4-1.5,0.6-2,0.9c-16.4,9.7-32.8,19.3-49.2,29c-14.5,8.6-29,17.3-43.5,26
				c-1.7,1-4.3,2.6-4.4,4.1c-0.5,6.3-0.2,12.7-0.2,19.4c14.3,0,27.8,0,41.4,0c1.1-0.1,2.2-0.5,3.2-1.1l13.6-8
				c-7.2,6.7-14.3,13.6-21.2,20.7H373.2l18.3,18.4c-91.5-13.4-175.6-45.5-252.2-96.3C61.7,1193.1-1.8,1127.9-51.2,1049
				c3.7-0.6,6.6-1.2,9.6-1.5c14-1.4,28.1-2.9,42.1-4.1c17.9-1.5,35.9-2.8,53.8-4.1c11.4-0.8,22.9-1.5,34.3-2
				c18.4-0.8,36.9-2,55.3-1.9c36.4,0.2,72.9,1,109.3,2c14.8,0.4,29.6,1.6,44.3,3c17.3,1.7,34.7,3.5,51.9,6.2
				c18.1,2.8,36.1,6.4,54.1,10.2c9.3,2,18.4,5.1,27.6,7.7c-0.4-1.4-1.5-2.6-2.8-3.2c-7.3-3.3-14.5-6.8-22-9.7
				c-45.3-17.4-92.8-24.5-140.6-29.5c-13.9-1.5-27.9-2.3-41.8-3.1c-13.2-0.7-26.4-0.8-39.6-1.1c-9.2-0.2-18.4-0.3-27.5-0.2
				c-24.4,0.3-48.8,0.6-73.3,1.2c-17.6,0.4-35.1,1.3-52.7,2c-1.5,0-2.9-0.1-4.4-0.3c1.5-1.9,2.6-3.2,3.4-4.6
				c3.1-5.3,6.5-10.5,9.1-16c2.1-4.6-0.1-7.7-5.1-7.5c-4.3,0.2-8.8,0.6-12.7,2.1c-18.3,7.3-33.4,19.6-48.5,31.8
				c-8.3,6.8-16.4,13.9-24.7,21c-15.8-24.9-29.7-51.1-41.4-78.2c-20.7-47.2-36.3-96-44.1-147c-3.8-25.1-6.8-50.5-9-75.8
				c-1.3-14.6-0.5-29.4-0.2-44.1c0.3-15,1-30,2.1-45c1-13.4,2-26.8,4.2-40c3.4-19.8,7.4-39.5,12.1-59.1c9.7-41.2,24.3-80.7,42.4-119
				c16.5-34.8,36.2-68,58.7-99.2c17.7-24.5,36.8-48,58.1-69.4c14.7-14.8,29.8-29.2,45.8-42.6c17.7-14.9,36.1-29.1,55.1-42.3
				c45.4-31.5,94.6-56,146.8-74.2c26-9.1,52.4-16.8,79.4-21.9c13.4-2.5,26.9-5,40.4-7c11.9-1.8,24-2.9,36-4.1
				c8.4-0.8,16.8-1.3,25.1-2.1c1.1-0.1,2.7-0.5,3-1.3c3.1-7.8,6.1-15.7,9.4-24.5c-121.8,3.8-233.9,36.9-335.7,101.7
				C7.1,234.8-84.5,348.2-135.2,492.8c-100,285.2,2.1,608,270.7,779c90,57.2,192.5,91.7,298.8,100.4c-10.7,14-20.8,28.4-30.2,43.3
				C236.6,1398.5,91.8,1325.8-27.7,1199z M493.9,1322.1c4-4,8.1-8,12.3-11.9h34.1V1289l-31.2,18.4c27.3-25.2,56.4-48.4,87.1-69.2
				c66.3-45.2,135.5-85.6,199.3-134.4c27.7-21.2,54.7-43.3,80.8-66.4c6.8,0.3,13.7,0.5,20.6,0.8c8.3,0.3,16.5,0.6,24.8,1
				c5.4,0.3,10.8,0.6,16.1,1.1c15.1,1.3,30.1,2.6,45.2,4c9.2,0.9,18.3,2,27.5,2.9c5.6,0.5,11.2,0.8,17.9,1.3
				c-1.4-1.6-2.8-3.1-4.3-4.5c-14.8-11.9-29.6-23.9-44.6-35.5c-9-7-18.8-13-30.1-15.5c-3.7-0.8-8.9-0.5-11.7,1.6
				c-3.8,2.8-0.4,7.2,1.4,10.4c2.9,5.2,6.5,10.1,10.5,16.4c-6.6-0.5-12.3-1.2-18-1.5c-11.3-0.5-22.6-1.3-33.9-1.7
				C975,947.5,1044.6,869,1105.6,784c6.1-8.5,12-17,17.9-25.5c-1.1,15.7-2.7,31.5-4.9,47.5c-9,66.9-29.8,130.5-60,190.9
				c-91.9,184-267.1,312.3-470.3,344.4l-1.3-1.7c6-5.6,11.9-11.2,18.5-17.4L493.9,1322.1z M1178.1,705.1
				c3.5,201.9-67.9,380.9-220.1,525.1c-133.3,126.2-293.9,189.7-477.4,189.3c-21.6,0-42.8-1-63.7-2.7c1.5-2.4,3-4.7,4.6-7
				c8.4-12.6,17.3-24.8,26.6-36.5c365.1,22.5,679.4-255.3,701.8-620.5c0.7-12,1.2-24,1.2-36.1c8.6-13.4,16.9-27,25.1-40.8
				C1177,685.6,1177.6,695.3,1178.1,705.1L1178.1,705.1z"/>
			<path class="st0" d="M270.1,744.6c-30.5-40.4-53.4-85.9-67.7-134.4c-5.2-17.5-9.7-35.2-10.5-53.4c-1.1-21.7,0.9-43.5,5.9-64.7
				c6.7-28.1,17-54.8,31.9-79.6c11.6-19.1,25-37,40-53.5c17.1-18.9,36.2-35.9,56.9-50.8c10.5-7.6,21.5-14.5,32.2-21.7L343,268.5
				c-26.7,7.5-52.2,18.6-75.9,33.1c-28.1,17-52.8,38-73.5,63.5c-16.8,20.8-30.5,43.9-40.7,68.6c-14.4,34.4-22.1,70.4-24.2,107.4
				c-1.5,23.9-0.2,48,3.7,71.6c3.5,21,8.6,41.8,15.4,62c13.4,39.5,32.9,76.7,57.9,110.2c1.5,1.8,3.7,3,6,3.4
				c7.1,1,14.4,1.4,21.5,2.3c12.5,1.6,24.9,3.2,37.3,5c13,1.9,26.1,3.9,39.1,5.9c5.3,0.8,10.7,1.5,17.5,2.5
				c-4.9-4.1-8.8-7-12.2-10.3C298.9,778.3,283.5,762.4,270.1,744.6z"/>
			<path class="st0" d="M482.3,355.8c-14.4,2.8-27.4,7.7-40,13.7c-0.9,0.7-1.5,1.7-1.5,2.9c-0.1,7.3-0.1,14.5-0.1,21.8l41.6,6.8
				V355.8z"/>
			<path class="st0" d="M534.2,532.9c-7.6-4.5-15.5-8.5-23-13.2c-5.2-3.2-10-7-15.1-10.6v70.3l41.6,4.5c0-15.6,0.1-31.2-0.2-46.8
				C537.5,535.7,535.7,533.8,534.2,532.9z"/>
			<path class="st0" d="M482.4,578.8c0-27.7,0.1-55.4,0-83.1c0-1.5-1-3.1-1.8-4.4c-7.4-11.9-15.5-23.4-22.1-35.8
				S446.6,430.1,441,418v168.4l41.1-6.3C482.2,579.7,482.3,579.3,482.4,578.8z"/>
			<path class="st0" d="M495.7,357.9c0.2,14.4,0.1,28.9,0,43.3c0,2.9,1,4,3.7,4.9c6.6,2.1,13.2,4.5,19.7,7c6.2,2.4,12.2,5,18.5,7.7
				v-66.5c-12.5-0.4-24.6-0.9-36.7-1.3C497.6,352.9,495.6,353.9,495.7,357.9z"/>
			<path class="st0" d="M627.1,682.3c3.3,0.1,4.9,1.5,6.5,4.3c5.2,9.2,17.1,15.2,26.3,12.9c13-3.4,18.4-8.8,21.3-21.7
				c2.2-9.4-3.9-20.8-12.8-25.9c-9.7-5.4-21.7-4-29.8,3.6c-3,2.8-4.6,2.7-7.4-0.2c-14-14.9-29.3-28.5-45.6-40.8
				c-24.6-18.2-52.1-27.7-82.5-27.9c-14.8-0.1-29.6,1.6-44.3,3c-6,0.6-11.9,2.3-18.5,3.7c1.5,1.7,2.4,2.7,3.2,3.8
				c13.1,18.9,27.9,36.5,45.1,51.7c8,7.2,17,13.1,26.7,17.5c22.3,10,46.5,12.9,70.7,14.8C599.7,682.3,613.4,682.1,627.1,682.3z"/>
			<path class="st0" d="M696.3,718.9c11.4-10.9,24.4-20,38.5-27c5-2.3,8.8-6.5,10.7-11.7c0.5-1.4,1.1-2.8,1.7-4.2
				c12.5-28,18-57.6,19.6-87.9c0.5-9.4-0.3-18.9-1-28.3s-1.3-19.1-3.2-28.4c-7.1-34-20.9-65.2-40.2-94.1
				c-13-19.5-28.9-36.4-45.7-52.6c-1.9-1.6-3.9-3.1-6-4.4c-4.1,10-8,19.6-11.5,28.4c8,9.1,16,17.6,23.3,26.7
				c24.3,30,37.8,64.6,41.5,102.9c1.6,18,0.1,36.1-4.4,53.6c-5.5,22.1-15.4,42.8-29.1,61c-3.4,4.3-4.4,10.1-2.6,15.3
				c2.6,7.1,2.9,14.8,0.8,22c-2.3,7.9-4.6,15.9-6.7,23.9s-3.8,15.9-5.7,24C683.1,731.4,689.7,725.2,696.3,718.9z"/>
			<path class="st0" d="M200.6,305.9c20.8-17.5,43.7-32.5,68.1-44.5c18-8.8,36.8-15.7,55.2-23.7c1.5-0.6,3.6-2.8,3.3-3.7
				c-2.5-9.2-5.5-18.4-8.3-27.5c-78.7,21.2-142,64.7-190.1,130c-57.8,78.5-67.7,173.2-60.2,221c0.3-0.7,0.6-1.5,0.8-2.2
				c1.7-10.7,3-21.5,5.2-32.1c8-39.8,22.1-78.1,41.6-113.7C137.5,369.8,166.1,334.7,200.6,305.9z"/>
			<path class="st0" d="M677,579.3l-23.2,14.4c1.1,14.3,2.3,29.8,3.6,45.6c9.4,0.6,17.6,4.5,24.6,11.1l1.5-0.7
				C681.3,626.1,679.2,602.5,677,579.3z"/>
			<path class="st0" d="M637,534.5c-4.3,1.9-6.6,0.8-8.5-3.4c-11.3-25.3-26.8-48.5-45.9-68.6c-17.9-19-39.7-33.7-64-43.3
				c-24.5-9.7-50.3-15.7-76.5-17.9c5.1,13,9.6,25.7,15,37.9c9.4,21.7,22.2,41.7,38,59.3c12.2,13.4,27.8,22.1,43.9,29.6
				c25.5,11.9,51.5,22.6,77.3,33.7c3.3,1.4,5.9,2.7,7.3,6.7c3.5,9.8,17.2,17.1,27.1,14.7c13.6-3.4,20.3-10.7,21.3-23.8
				c1.1-13.8-9.2-25.9-23-27C644.9,532.2,640.8,532.8,637,534.5z"/>
			<path class="st0" d="M765.8,788.4c8.6-0.2,11.4,3.8,12.9,10c1.3,5.5,3.7,10.7,6,17c14.9-23.6,26-49.3,33-76.2
				C803.3,757.9,788.3,775.9,765.8,788.4z"/>
			<path class="st0" d="M614.2,259.7c2.3,0.9,4.3,2.6,6.4-0.8c3.6-5.8,7.7-11.3,11.8-17.4c-27.3-13.9-55.9-25-85.4-33.3v27
				c6.2,1.8,12.5,3.2,18.3,5.4C581.7,246.8,597.9,253.3,614.2,259.7z"/>
			<path class="st0" d="M684.9,301.5c12.1,9.4,24.3,18.7,35.5,29.1c17.7,16.3,33.9,34.1,48.5,53.2c29,38,51.1,79.6,67.5,124.4
				c8.1,22.2,15.1,44.8,18.4,68.4c2.4,17.1,4.5,34.2,5.9,51.4c0.7,11.3,0.7,22.6,0.1,33.9c-0.6,12.8-0.8,25.7-3.3,38.2
				c-4.1,20.9-8.9,41.7-15,62.2c-8.7,29.5-22.5,56.9-38.9,82.9c-0.8,1.3-1.9,3.4-1.4,4.3c4.1,6.8,8.6,13.4,14.2,21.8
				c0.7-1.5,1.4-2.9,2.2-4.3c15.6-22.5,28.7-46.6,39.2-71.8c9.5-23.1,16.8-47.1,21.9-71.5c4.3-20.5,6.9-41.3,7.6-62.3
				c0.5-14.2-0.2-28.4-1-42.6c-0.5-11.2-1.5-22.4-3.1-33.5c-3.9-24.9-9.9-49.4-17.9-73.3c-11.4-34.5-26.6-67.6-45.2-98.7
				c-15.2-25.4-33-49.2-53.2-70.8c-18.8-20.1-38.9-39-61.3-55.3c-10.7-7.8-21.7-15.2-32.5-22.8l-0.7,1.1c2,8.4,4.5,16.7,5.7,25.2
				C678.6,295.6,680.9,298.4,684.9,301.5z"/>
			<path class="st0" d="M600.9,336.4c-1.1,25.1,0,50.1,5.8,74.8c0.3,1.4-1,3.3-1.5,4.9c-1.6-0.6-3.7-0.9-4.7-2
				c-12.8-13.5-25.2-27.3-38.1-40.7c-4.8-4.9-10.6-8.8-16-13.1l-1.5,1c1.1,3,1.7,6.5,3.5,8.9c8,10.6,17,20.5,24.6,31.3
				c25.9,36.8,47.1,76.1,62.3,118.5c1.1,3.2,2.6,3.6,5.1,3c7.2-1.9,14-0.6,21.3,2.3c-8.2-23.5-18.7-46-31.4-67.4
				c-1.8-3-1.2-5.3,0.5-8.2c14.9-25.3,27.3-52,37-79.7c7.8-21.7,10.9-43.8,6.3-66.6c-3.3-16.6-7.2-33.2-11.3-49.6
				c-2.3-8.9-5.8-17.5-8.9-26.7c-1.1,0.9-2.1,1.8-3.1,2.9c-9.6,12.6-20.1,24.8-28.6,38.1C608.9,288.8,602,312,600.9,336.4z"/>
			<path class="st0" d="M621.2,776.2c6.7-19.1,13.5-38.1,19.8-55.7c-7.2-5.4-13.2-9.6-18.7-14.3c-2.2-1.9-3.8-2.3-6.6-1.5
				c-15.8,4.7-31.8,7.7-48.4,7.3c-7.3-0.2-14.7,0-22.3,0v73.2c23.2,0.8,45.8,0.4,68.1-4.7C616.2,779.8,619.7,780.3,621.2,776.2z"/>
			<path class="st0" d="M440.5,187.8c0.4,35.8,0.2,71.7,0.2,107.5v4.9l42-3.1V178.9h13.3v118.5l41.6,6c0.1-1,0.2-2,0.2-3
				c0-41.1,0-82.2-0.1-123.4c-0.1-2.5-0.6-5-1.5-7.4c-11.6-31.1-23.2-62.2-34.9-93.2c-3.9-10.4-7.8-20.8-12-31.9
				c-1.1,2.5-2,4.1-2.7,5.8c-13.5,36-27,72.1-40.6,108.1C442.3,167.8,440.5,177.8,440.5,187.8z"/>
			<path class="st0" d="M820.4,723.2c9.6-15.4,18.5-31.2,27.7-46.8l-1.5-2.4c-17.2,1.8-34.4,3.4-51.6,5.4
				c-18.4,2.1-36.3,7.4-52.9,15.6c-29,14.3-52.5,35.4-71.8,61.2c-1,1.3-3.1,1.8-4.6,2.6c-0.3-1.8-1.3-3.7-0.9-5.2
				c2.8-10.6,6.2-21,9-31.7c1.5-5.8,2.5-11.8,3.9-19c-9.6,6.2-18.6,8.4-28.6,6.5c-2.7,10.1-5.2,20.3-8.2,30.3
				c-8.9,29.3-21.5,57-37,83.5c-15.4,26.2-33.6,50.6-54.3,72.8c-12.3,13.2-25.9,25.3-39.3,37.5c-18.2,16.3-38.1,30.8-59.2,43.2
				c-1.2,0.9-2,2.3-2.2,3.8c-0.1,16.7-0.1,33.3,0,49.9c0,0.4,0.4,0.8,0.7,1.4c1.3-1.2,2.4-2.2,3.5-3.2c16.2-13.9,33.3-27,48.5-41.9
				c21.1-20.6,41.3-42.1,61-64c12.2-13.6,23.5-27.9,34-42.9c12.4-17.6,23.6-36.1,35.3-54.3c1.8-2.7,3.8-4.3,7.1-4.5
				c20.8-1.3,41-6.2,60.5-12.8c18.1-6.1,35.8-13.5,53.6-20.7c11.1-4.3,21.3-10.7,30-18.8C797.5,755.3,810,740,820.4,723.2z"/>
			<path class="st0" d="M826,592c-3.1,25.8-6.3,51.9-9.5,78.3c1.6-0.2,3.9-0.6,6.2-0.9s4.7-0.3,7.8-0.6
				C832,642.8,832.3,617.1,826,592z"/>
			<path class="st0" d="M328.8,220.8c4.4,14.1,9.3,28.5,16.8,41c10.9,18,27.6,31.2,45,43.2c1.5,1,4.2,1,6.2,0.5
				c10-2.3,20-5.3,30.1-7.3c4.1-0.8,4.7-2.4,4.7-6c-0.1-23.6,0.1-47.2-0.2-70.9c-0.1-3.3-1.4-6.4-3.5-8.9
				c-6.1-6.3-12.7-12.2-19.5-17.7c-21.7-17.4-46.4-30.8-72.8-39.5c-6.4-2.1-13-3.8-20.7-5.9c1,8.8,1.2,16.7,2.8,24.4
				C320.8,189.5,324,205.4,328.8,220.8z"/>
			<path class="st0" d="M431.2,663c-3.9-3.8-8.3-7-12-10.9c-7.7-8.3-15.4-16.6-22.4-25.5c-10.6-13.4-19.8-27.7-26.4-43.6
				c-8.8-21.2-15.2-43.1-16.3-66.2c-0.6-11.4-1.4-23.1,0.4-34.2c2.2-13.4,6.4-26.5,10.9-39.3c6.2-17.8,16.3-34,29.6-47.3
				c10-10,21.1-18.7,33.2-26c21.6-13.1,46-21,71.2-23c19.2-1.6,38.3,0.7,56.9,5.8c10.3,2.8,20.5,5.9,31,9c0.7-9.2,1.3-18.5,2.2-27.9
				c0.5-5-1-7.5-6.1-9c-9.7-2.9-19-7.1-28.7-10c-21.1-6.5-43-10.1-65.1-10.6c-10-0.2-20,0.2-29.9,1c-8.8,0.7-17.8,1.4-26.3,3.8
				c-14.4,4-28.5,9-42.4,14.4c-20.2,7.8-38,19.8-53.7,34.6c-17.7,16.7-30.5,36.9-40.9,58.8c-12.4,26.2-18.1,53.8-18.8,82.4
				c-0.2,14.1,0.8,28.3,3.1,42.2c2.5,15.7,5.7,31.5,10.6,46.7c13.4,41.2,36.8,76.5,67.1,107.1c10.8,10.9,22.4,21,34.6,30.4
				c12.6,9.8,26.3,18.2,40,27.5c0.2-0.9,0.4-1.8,0.5-2.7c0-27.7,0.1-55.4-0.1-83.1C433.2,665.7,432.4,664.1,431.2,663z"/>
			<path class="st0" d="M440.5,1218.7c1.5-0.7,2.4-1,3.2-1.5c31.4-18.5,62.8-37.1,94.1-55.7c1.2-0.7,2.5-2.2,2.6-3.4
				c0.2-6.4,0.1-12.8,0.1-19.9c-14.5,0-28.1,0-41.6,0.1c-1.1,0.1-2.2,0.5-3.2,1.2c-17.5,10.4-35.1,20.8-52.6,31.3
				c-1.1,0.7-2.5,2.1-2.5,3.2C440.5,1188.7,440.5,1203.4,440.5,1218.7z"/>
			<path class="st0" d="M474.8,1138.6h-34v21.2l34.6-20.5L474.8,1138.6z"/>
			<path class="st0" d="M431.1,190.5l-17.7,1.4l17.7,15.9V190.5z"/>
			<path class="st0" d="M540.2,1172.8c-1.9,0.9-3.5,1.4-4.8,2.3c-30.8,18.2-61.5,36.5-92.2,54.8c-1.3,0.8-2.3,2.2-2.5,3.7
				c-0.2,14.2-0.1,28.5-0.1,42.8c0.9,0.2,1.1,0.4,1.2,0.3c31.8-18.8,63.6-37.5,95.3-56.4c1.8-1.1,3.3-4.3,3.4-6.5
				c0.3-12.2,0.2-24.4,0.1-36.7C540.6,1175.8,540.3,1174.6,540.2,1172.8z"/>
			<rect x="380.7" y="1108.9" class="st0" width="218.8" height="19.8"/>
			<rect x="380.6" y="1081.4" class="st0" width="218.9" height="19.8"/>
			<path class="st0" d="M475.4,1139.3l-34.6,20.5v-21.2h34L475.4,1139.3z"/>
			<path class="st0" d="M413.4,191.9l17.7-1.4v17.3L413.4,191.9z"/>
		</g>
	</g>
</g>
<image style="overflow:visible;enable-background:new    ;" width="2142" height="2140" xlink:href="89B7D9B1B5A20608.png"  transform="matrix(7.000000e-02 0 0 7.000000e-02 38.35 35.04)">
</image>
<text transform="matrix(1 0 0 1 901.85 302.14)" class="st0 st4 st5">  </text>
<text transform="matrix(1 0 0 1 902.35 300.27)" class="st0 st4 st6">  </text>
<g>
	<defs>
		<rect id="SVGID_4_" x="0.7" width="1241.3" height="2208"/>
	</defs>
	<clipPath id="SVGID_5_">
		<use xlink:href="#SVGID_4_"  style="overflow:visible;"/>
	</clipPath>
	<g class="st7">
		<g class="st8">
			
				<linearGradient id="SVGID_6_" gradientUnits="userSpaceOnUse" x1="7.19" y1="316.4102" x2="417.77" y2="316.4102" gradientTransform="matrix(1 0 0 -1 0 2208)">
				<stop  offset="0" style="stop-color:#008CCF"/>
				<stop  offset="0.13" style="stop-color:#1999D6"/>
				<stop  offset="0.41" style="stop-color:#47B1E3"/>
				<stop  offset="0.66" style="stop-color:#6AC2ED"/>
				<stop  offset="0.86" style="stop-color:#7ECDF3"/>
				<stop  offset="1" style="stop-color:#86D1F5"/>
			</linearGradient>
			<path class="st9" d="M263.6,1685.7l50.7,20.3c-1.9,10.6-4,20.8-5.4,31.2c-0.3,2.3,0.8,6,2.6,7.3c16.7,12.1,31.6,26.6,44.1,43
				c1.4,1.8,5,2.9,7.4,2.6c8.7-1.4,17.4-3.5,26-5.5c3.3-0.8,5.6-0.7,7.1,3.1c5.7,13.8,11.6,27.5,17.7,41.2c1.6,3.6,0.8,5.3-2.3,7.3
				c-8.7,5.9-17.2,12.1-26,18.3c4.9,22,5.4,44.7,1.5,66.9c-0.3,1.5,1.7,4,3.3,5.1c8.9,6,18,11.8,27.5,17.9l-20.3,50.8
				c-10.1-1.9-19.9-3.6-29.7-5.6c-4-0.8-6.9-0.5-9.5,3.3c-11.4,16.6-25.7,31.2-42,43c-3.1,2.3-4,4.3-3,8.1c2.5,10.2,4.5,20.4,6.8,31
				l-49.6,21.4c-6.3-8.9-12.4-17.4-18.3-26c-2.1-3-3.9-4.2-8-3.3c-19.2,4.3-39.1,4.7-58.5,1c-4.5-0.9-7.3,0.2-9.8,4.3
				c-5.1,8.4-10.8,16.4-16.6,25.2l-50.8-20.3c2-11,4.1-21.5,5.7-32c0.2-2.3-0.7-4.5-2.4-6.1c-17.1-12.4-32.3-27.2-45-44.1
				c-1.1-1.4-4.3-2.3-6.3-2c-8.5,1.5-16.9,3.4-25.3,5.4c-4.5,1.1-7.1,0.5-9.1-4.4c-5.9-14.7-12.4-29.1-18.8-44
				c8.8-6.2,17.6-12.1,25.9-18.5c1.9-1.5,3.8-5,3.3-7.1c-4.2-20-4-40-0.9-60c0.7-4.7-0.8-6.7-4.3-8.8c-7.3-4.6-14.6-9.4-21.6-14.4
				c-1.4-1-2.8-4-2.3-5.4c6.1-15.9,12.6-31.6,19.1-47.7c10,1.9,19.6,3.7,29.2,5.7c4.5,0.9,7.6,0.2,10.5-4.1
				c11.1-16,24.8-30.1,40.6-41.6c3.7-2.7,5-5.3,3.7-9.9c-2.3-8.3-3.6-16.9-5.7-25.2c-0.9-3.5-0.2-5,3.1-6.4
				c15-6.3,30-12.9,45.6-19.6c5.5,8.2,11.1,16.1,16.2,24.4c2.7,4.3,5.1,5.8,10.7,4.6c17.9-4,36.4-4.3,54.4-1
				c6.4,1.2,10.2-0.2,13.6-6C252.8,1700.9,258.3,1693.6,263.6,1685.7z M122.5,1720.4c1.9,9.8,3.9,19.4,5.4,29.1c0.3,1.9-1,5-2.6,6
				c-22.2,13.7-39.6,32-53.1,54.1c-2.3,3.8-4.8,4.4-8.5,3.6c-7.5-1.6-15.2-2.7-22.6-4.7c-4.5-1.2-6.3,0.2-7.7,4.2
				c-1.6,4.9-3.6,9.6-5.8,14.2c-1.8,3.6-1.4,5.7,2.3,7.9c7.3,4.2,14.3,8.9,21.1,13.8c1.8,1.7,2.8,4.1,2.6,6.6
				c-4.7,25.6-5.5,51.1,1.2,76.5c1,3.8,0,5.9-3.3,8c-8,5.1-15.8,10.6-23.6,16c3.2,7,6.3,13,8.7,19.3c1.6,4.3,4.2,4.9,8,4.1
				c7.8-1.7,15.6-3,23.3-5c3.6-0.9,5.4,0.2,7.4,3.2c3.8,5.9,7.9,11.6,12.3,17.1c12.7,15.9,28.2,28.5,45.9,38.7l-6.6,33.6l24.4,10
				c5.6-8.6,10.8-17,16.5-24.9c1.3-1.8,5.1-3.4,7.2-2.9c25,5.7,50.9,5.3,75.7-1.1c4.4-1.1,6.3,0,8.4,3.3
				c5.1,7.8,10.4,15.4,15.9,23.4l24.3-11.1c-2-10.5-4-20.1-5.6-29.7c-0.3-1.7,0.7-4.7,2-5.5c22.9-13.7,40-32.9,53.9-55.2
				c2.2-3.6,4.6-3.9,8.1-3.1c7.7,1.8,15.5,3.5,23.3,4.8c1.9,0.3,5.2-0.4,5.8-1.7c3.4-7.1,6.1-14.4,9.1-21.8
				c-8.7-5.7-16.6-11.1-24.8-16.2c-3.2-2-4.2-3.8-3.3-7.8c5.2-25.3,5.6-50.6-1-75.8c-1-3.8,0-5.9,3.2-8c8-5.1,15.8-10.7,23.6-16
				c-3.1-6.9-6.2-13-8.6-19.3c-1.7-4.6-4.4-5.1-8.6-4c-7.5,1.9-15,3.4-22.6,4.5c-2.3,0.3-6-1.2-7.2-3.1
				c-13.8-22.4-32.3-39.8-54.7-53.5c-1.6-1-3-4.4-2.7-6.4c1.5-9.8,3.5-19.5,5.4-29.4l-24.2-9.9c-5.3,8.1-10.8,15.7-15.4,23.8
				c-2.6,4.6-5.6,5.1-10.4,4.1c-23.2-5-46.5-5.5-69.5,0.4c-7.4,1.9-11.3,0.5-15.1-6.1c-4-6.9-8.7-16.8-14.7-18.1
				c-6.4-1.4-14.6,5.6-22.1,9C123.1,1719.5,123,1719.8,122.5,1720.4z"/>
			
				<linearGradient id="SVGID_7_" gradientUnits="userSpaceOnUse" x1="407.26" y1="410.97" x2="593.14" y2="410.97" gradientTransform="matrix(1 0 0 -1 0 2208)">
				<stop  offset="0" style="stop-color:#008CCF"/>
				<stop  offset="0.13" style="stop-color:#1999D6"/>
				<stop  offset="0.41" style="stop-color:#47B1E3"/>
				<stop  offset="0.66" style="stop-color:#6AC2ED"/>
				<stop  offset="0.86" style="stop-color:#7ECDF3"/>
				<stop  offset="1" style="stop-color:#86D1F5"/>
			</linearGradient>
			<path class="st10" d="M407.3,1628.6l10.5-14c51.4,39.1,87.8,88.7,110.7,148.2s28.8,120.9,17.5,185.5l37.8-24.2l9.2,14.7l-62,40.8
				l-40.7-62.1l13.7-9.2l23,35.3c14.4-12.4,5.7-120-14.5-173.1C491,1713.6,455.8,1666.7,407.3,1628.6z"/>
			
				<linearGradient id="SVGID_8_" gradientUnits="userSpaceOnUse" x1="-123.12" y1="517.8547" x2="130.11" y2="517.8547" gradientTransform="matrix(1 0 0 -1 0 2208)">
				<stop  offset="0" style="stop-color:#008CCF"/>
				<stop  offset="0.13" style="stop-color:#1999D6"/>
				<stop  offset="0.41" style="stop-color:#47B1E3"/>
				<stop  offset="0.66" style="stop-color:#6AC2ED"/>
				<stop  offset="0.86" style="stop-color:#7ECDF3"/>
				<stop  offset="1" style="stop-color:#86D1F5"/>
			</linearGradient>
			<path class="st11" d="M-107.6,1848.4c-1.8,0.1-3.6,0.1-5.3,0c-3.4-0.5-6.8-1.1-10.2-1.7c3.7-78,63.2-219.9,219.5-280l-39.6-20.1
				l7.9-14.9l65.5,32.7L97.4,1631l-14.9-7.9l19.4-39.1C10,1613.5-93.6,1712.6-107.6,1848.4z"/>
			
				<linearGradient id="SVGID_9_" gradientUnits="userSpaceOnUse" x1="-29.81" y1="42.833" x2="339.22" y2="42.833" gradientTransform="matrix(1 0 0 -1 0 2208)">
				<stop  offset="0" style="stop-color:#008CCF"/>
				<stop  offset="0.13" style="stop-color:#1999D6"/>
				<stop  offset="0.41" style="stop-color:#47B1E3"/>
				<stop  offset="0.66" style="stop-color:#6AC2ED"/>
				<stop  offset="0.86" style="stop-color:#7ECDF3"/>
				<stop  offset="1" style="stop-color:#86D1F5"/>
			</linearGradient>
			<path class="st12" d="M335.6,2184.8l3.6,15.5c-128.6,44.8-245,23.9-351.9-61.1c0.5,7.6,1.1,14.7,1.3,21.7s0.1,14,0.1,21.6
				l-16.3,1.6c-0.7-25-1.5-49.4-2.2-74.6l74.3-2.3c0.4,5.6,0.7,10.8,1.1,17.1l-44.3,2.6c47.2,40.5,99.7,65.5,159.1,75.9
				C220.1,2213.2,278.2,2207.4,335.6,2184.8z"/>
			
				<linearGradient id="SVGID_10_" gradientUnits="userSpaceOnUse" x1="307.26" y1="637.455" x2="329.13" y2="637.455" gradientTransform="matrix(1 0 0 -1 0 2208)">
				<stop  offset="0" style="stop-color:#008CCF"/>
				<stop  offset="0.13" style="stop-color:#1999D6"/>
				<stop  offset="0.41" style="stop-color:#47B1E3"/>
				<stop  offset="0.66" style="stop-color:#6AC2ED"/>
				<stop  offset="0.86" style="stop-color:#7ECDF3"/>
				<stop  offset="1" style="stop-color:#86D1F5"/>
			</linearGradient>
			<path class="st13" d="M307.3,1575.9l5.9-16.2l16,5.8c-2.1,5.6-3.9,10.6-5.9,16L307.3,1575.9z"/>
			
				<linearGradient id="SVGID_11_" gradientUnits="userSpaceOnUse" x1="354.62" y1="28.4651" x2="377.52" y2="28.4651" gradientTransform="matrix(1 0 0 -1 0 2208)">
				<stop  offset="0" style="stop-color:#008CCF"/>
				<stop  offset="0.13" style="stop-color:#1999D6"/>
				<stop  offset="0.41" style="stop-color:#47B1E3"/>
				<stop  offset="0.66" style="stop-color:#6AC2ED"/>
				<stop  offset="0.86" style="stop-color:#7ECDF3"/>
				<stop  offset="1" style="stop-color:#86D1F5"/>
			</linearGradient>
			<path class="st14" d="M362.6,2190.9c-2.8-5.2-5.2-9.6-8-14.7l14.7-8l8.2,14.7L362.6,2190.9z"/>
			
				<linearGradient id="SVGID_12_" gradientUnits="userSpaceOnUse" x1="376.93" y1="604.205" x2="399.93" y2="604.205" gradientTransform="matrix(1 0 0 -1 0 2208)">
				<stop  offset="0" style="stop-color:#008CCF"/>
				<stop  offset="0.13" style="stop-color:#1999D6"/>
				<stop  offset="0.41" style="stop-color:#47B1E3"/>
				<stop  offset="0.66" style="stop-color:#6AC2ED"/>
				<stop  offset="0.86" style="stop-color:#7ECDF3"/>
				<stop  offset="1" style="stop-color:#86D1F5"/>
			</linearGradient>
			<path class="st15" d="M390.6,1615.2l-13.7-7.7l8-15.1l15,9.1L390.6,1615.2z"/>
			
				<linearGradient id="SVGID_13_" gradientUnits="userSpaceOnUse" x1="418.39" y1="70.95" x2="441.22" y2="70.95" gradientTransform="matrix(1 0 0 -1 0 2208)">
				<stop  offset="0" style="stop-color:#008CCF"/>
				<stop  offset="0.13" style="stop-color:#1999D6"/>
				<stop  offset="0.41" style="stop-color:#47B1E3"/>
				<stop  offset="0.66" style="stop-color:#6AC2ED"/>
				<stop  offset="0.86" style="stop-color:#7ECDF3"/>
				<stop  offset="1" style="stop-color:#86D1F5"/>
			</linearGradient>
			<path class="st16" d="M418.4,2135.3l12.5-10.2c3.5,4.2,6.8,8.1,10.3,12.3l-12.4,11.6C425.5,2144.6,422.3,2140.4,418.4,2135.3z"/>
			
				<linearGradient id="SVGID_14_" gradientUnits="userSpaceOnUse" x1="342.28" y1="623.7" x2="364.96" y2="623.7" gradientTransform="matrix(1 0 0 -1 0 2208)">
				<stop  offset="0" style="stop-color:#008CCF"/>
				<stop  offset="0.13" style="stop-color:#1999D6"/>
				<stop  offset="0.41" style="stop-color:#47B1E3"/>
				<stop  offset="0.66" style="stop-color:#6AC2ED"/>
				<stop  offset="0.86" style="stop-color:#7ECDF3"/>
				<stop  offset="1" style="stop-color:#86D1F5"/>
			</linearGradient>
			<path class="st17" d="M365,1581.3l-7.9,13.7l-14.8-7l6.5-14.4L365,1581.3z"/>
			
				<linearGradient id="SVGID_15_" gradientUnits="userSpaceOnUse" x1="387.04" y1="48.98" x2="409.96" y2="48.98" gradientTransform="matrix(1 0 0 -1 0 2208)">
				<stop  offset="0" style="stop-color:#008CCF"/>
				<stop  offset="0.13" style="stop-color:#1999D6"/>
				<stop  offset="0.41" style="stop-color:#47B1E3"/>
				<stop  offset="0.66" style="stop-color:#6AC2ED"/>
				<stop  offset="0.86" style="stop-color:#7ECDF3"/>
				<stop  offset="1" style="stop-color:#86D1F5"/>
			</linearGradient>
			<path class="st18" d="M410,2161.4l-13.7,9l-9.3-13.6l13.7-9.1L410,2161.4z"/>
			
				<linearGradient id="SVGID_16_" gradientUnits="userSpaceOnUse" x1="26.5744" y1="316.42" x2="395.95" y2="316.42" gradientTransform="matrix(1 0 0 -1 0 2208)">
				<stop  offset="0" style="stop-color:#008CCF"/>
				<stop  offset="0.13" style="stop-color:#1999D6"/>
				<stop  offset="0.41" style="stop-color:#47B1E3"/>
				<stop  offset="0.66" style="stop-color:#6AC2ED"/>
				<stop  offset="0.86" style="stop-color:#7ECDF3"/>
				<stop  offset="1" style="stop-color:#86D1F5"/>
			</linearGradient>
			<path class="st19" d="M122.5,1720.4c0.5-0.6,0.6-0.8,0.8-0.9c7.4-3.4,15.7-10.4,22.1-9c6,1.4,10.7,11.2,14.7,18.1
				c3.8,6.6,7.8,8,15.1,6.1c23-5.9,46.3-5.3,69.5-0.4c4.7,1,7.7,0.5,10.4-4.1c4.7-8,10.1-15.7,15.4-23.8l24.2,9.9
				c-1.9,9.9-4,19.6-5.4,29.4c-0.3,2,1.1,5.4,2.7,6.4c22.4,13.6,40.9,31,54.7,53.5c1.1,1.9,4.9,3.4,7.2,3.1
				c7.6-1.1,15.2-2.6,22.6-4.5c4.2-1,6.9-0.6,8.6,4c2.4,6.3,5.5,12.4,8.6,19.3c-7.9,5.3-15.6,10.9-23.6,16c-3.2,2.1-4.2,4.2-3.2,8
				c6.5,25.2,6.1,50.5,1,75.8c-0.8,4.1,0.2,5.8,3.3,7.8c8.1,5.1,16,10.4,24.8,16.2c-3,7.4-5.7,14.7-9.1,21.8c-0.6,1.2-3.9,2-5.8,1.7
				c-7.8-1.3-15.6-3-23.3-4.8c-3.5-0.8-5.9-0.4-8.1,3.1c-13.9,22.3-31,41.6-53.9,55.2c-1.3,0.8-2.3,3.8-2,5.5
				c1.6,9.7,3.6,19.3,5.6,29.7l-24.3,11.1c-5.5-8-10.9-15.6-15.9-23.4c-2.2-3.3-4.1-4.4-8.4-3.3c-24.8,6.4-50.7,6.8-75.7,1.1
				c-2.1-0.5-5.9,1.1-7.2,2.9c-5.7,7.9-10.9,16.3-16.5,24.9l-24.4-10l6.6-33.6c-17.7-10.2-33.2-22.8-45.9-38.7
				c-4.3-5.5-8.5-11.2-12.3-17.1c-1.9-3-3.8-4.1-7.4-3.2c-7.7,1.9-15.5,3.3-23.3,5c-3.9,0.8-6.4,0.2-8-4.1
				c-2.3-6.3-5.5-12.4-8.7-19.3c7.9-5.3,15.6-10.9,23.6-16c3.2-2.1,4.3-4.2,3.3-8c-6.7-25.4-5.9-50.9-1.2-76.5
				c0.2-2.5-0.8-4.9-2.6-6.6c-6.8-5-13.8-9.6-21.1-13.9c-3.7-2.2-4.1-4.2-2.3-7.9c2.3-4.6,4.2-9.4,5.9-14.2c1.4-4,3.1-5.5,7.7-4.2
				c7.4,2,15.1,3.2,22.6,4.7c3.8,0.8,6.2,0.2,8.6-3.6c13.5-22.1,30.9-40.4,53.1-54.1c1.6-1,2.9-4.1,2.6-6
				C126.4,1739.8,124.3,1730.2,122.5,1720.4z M209.5,2007.4c65.9,0.1,118.3-50.9,118.8-115.5c0.4-64.5-51.5-117.1-115.9-117.5
				c-0.3,0-0.6,0-0.9,0c-64.7-0.1-117.9,52.1-118.2,115.8C93,1955.1,144.7,2007.3,209.5,2007.4L209.5,2007.4z"/>
			
				<linearGradient id="SVGID_17_" gradientUnits="userSpaceOnUse" x1="93.2792" y1="317.1801" x2="328.2628" y2="317.1801" gradientTransform="matrix(1 0 0 -1 0 2208)">
				<stop  offset="0" style="stop-color:#008CCF"/>
				<stop  offset="0.13" style="stop-color:#1999D6"/>
				<stop  offset="0.41" style="stop-color:#47B1E3"/>
				<stop  offset="0.66" style="stop-color:#6AC2ED"/>
				<stop  offset="0.86" style="stop-color:#7ECDF3"/>
				<stop  offset="1" style="stop-color:#86D1F5"/>
			</linearGradient>
			<path class="st20" d="M209.5,2007.3c-64.7-0.1-116.4-52.2-116.2-117.2c0.2-63.7,53.5-115.9,118.2-115.8
				c64.5,0,116.8,52.2,116.8,116.7c0,0.3,0,0.6,0,0.9C327.8,1956.5,275.4,2007.4,209.5,2007.3z M310.8,1891.9
				c0.4-55.4-42.8-99.2-98.6-100c-55.3-0.7-100.8,43.1-101.3,97.6c-0.5,56.9,42.9,101.6,99,102.1
				C265.5,1992,310.3,1947.8,310.8,1891.9L310.8,1891.9z"/>
		</g>
	</g>
</g>
</svg>
