<svg id="Layer_1" data-name="Layer 1" xmlns="http://www.w3.org/2000/svg" xmlns:xlink="http://www.w3.org/1999/xlink" viewBox="0 0 1847.31 674.65"><defs><style>.cls-1,.cls-5{fill:none;}.cls-2{opacity:0.11;}.cls-3{clip-path:url(#clip-path);}.cls-4,.cls-6,.cls-7{fill:#fff;}.cls-5{stroke:#fff;stroke-linecap:round;stroke-miterlimit:10;stroke-width:3.69px;}.cls-6{font-size:268.48px;}.cls-6,.cls-7{font-family:AlmoniTzarDL4.0AAA-Bold, "Almoni Tzar DL 4.0 AAA";font-weight:700;}.cls-7{font-size:267.04px;}</style><clipPath id="clip-path"><path class="cls-1" d="M-498.3,69c51-44.37,81.22,292.33-68.48,650.57-231.26,553.41-797.59,814.95-900.78,856l2.63-1511.83Z"/></clipPath></defs><g class="cls-2"><g class="cls-3"><path class="cls-4" d="M158.36,75.93C89,38.73,19.27,110.85-19.43,160.45-66.44,220.71-101.49,289-132,358.72c-31.34,71.52-58.29,144.88-90.11,216.2q-25.6,57.41-56,112.5C-296.18,537-360.28,403-469.94,287.63-601.58,149.17-765,74.61-956,66.74c-201.75-8.31-378.14,57.84-524.3,197.34-138.09,131.79-212.26,295.18-219.91,486-8.06,201.22,57.85,377.27,197,523,120.28,125.94,265.6,196.76,429.84,216.2q-6.64,11.18-12.87,22.6c-17.77,32.71-34.6,67.66-63,92.66-56.62,49.78-144.79,33.21-199.43,87.44a90.55,90.55,0,0,0-23.56,39.28c-2,7.1,9,10.13,11.06,3,9.7-33.68,41.42-53.9,72.65-65.41,35.17-13,73.08-16.68,107.67-31.51,62.47-26.77,88-90.91,120.33-146.7q33.87,3.45,68.78,4c194.9-2.43,360.84-67,498.39-198.69s211.92-294.68,219.78-485.07a780.88,780.88,0,0,0-2.5-103.69q16.06-28.38,30.88-57.42c34.42-67.6,62.3-138.09,90.82-208.3C-125.58,370.57-95.69,299.65-56,234c19.74-32.67,41.88-63.9,67.16-92.51,24-27.17,54.05-53.25,90.24-61.72,17.52-4.1,35.27-2.5,51.2,6C159.07,89.31,164.87,79.42,158.36,75.93ZM-1495.29,1256.55c-125.87-133.58-189.27-294.29-188.58-477.74.76-199.68,75-370,220.25-507C-1330.67,146.42-1170.7,82.9-988,83c200.82.13,372,74.58,509.79,220.65C-370,418.39-309.34,554.13-293.06,713.78q-11.46,19.8-23.52,39.25c-2.81-109.67-33.05-220.21-93.38-321.45-79-132.49-191.64-226-335.86-281.14-69.4-26.52-141.35-39.94-216.41-42l9.69,25c188.11,11.94,344.65,86.69,464.43,231.72,104.5,126.52,151.63,270.41,145.3,428.63A1501.44,1501.44,0,0,1-561,1052.15c-7.11-8.06-14.33-16-21.24-24.24-12.76-15.22-25.52-30.45-37.87-46q-20.21-25.47-39.62-51.56a243.27,243.27,0,0,1-38.47-76.14c-3.85.33-7.52.53-11.16,1-6.3.8-12.84.93-18.81,2.82-19.3,6.11-38.22,13.49-57.63,19.2-12.25,3.6-25.07,5.46-37.75,7.31-4.06.6-6.63,1.46-8.91,5-11.59,18.1-23.16,36.23-35.33,53.94-17.86,26-38.59,49.71-60.47,72.28-17.9,18.48-37,35.8-56.06,53.14-10.53,9.6-21.95,18.23-33.08,27.16-1.35,1.09-4.52,2.25-4.89,1.8a10.57,10.57,0,0,1-2.46-6c-.18-17,.06-34-.19-51-.09-6,1.09-9.6,7-13.12,30.19-17.89,57.46-39.82,82.1-64.7,14.91-15.06,28.49-31.5,41.89-47.95,8.11-10,14.72-21.14,22-31.77l-.9-1.19-56.81,15.45c-.07-.85-.21-1.67-.21-2.49q-.1-66.54-.17-133.08c0-7,.07-13.93.17-20.9,0-2.54-.74-3.72-3.58-4.42A124.56,124.56,0,0,1-950.94,731c-7-2.89-13.78-6.37-21-9.77V944.57h-13.12V938.2q0-111.41.1-222.82c0-4.1-1.34-6.78-4.08-9.69-8.33-8.84-16.31-18-24.3-27.18-4.43-5.08-8.61-10.38-13.64-16.48V897.86c-9-2.54-17.54-5.2-26.23-7.36-22-5.45-43.86-11.15-66-15.84-19.4-4.11-39-7.12-58.6-10.34-13.84-2.27-27.73-4.23-41.63-6.05-12-1.56-24-2.73-36-4.07-2.22-.24-3.35.16-4.2,2.9-6,19.39-14.14,37.89-25.34,54.81-9.63,14.56-19.73,28.84-30.34,42.7-14,18.29-28.46,36.21-43.11,54-11,13.29-22.55,26.07-33.81,39.12-2.43,2.81-4.68,5.79-7.88,9.78,9.2-.53,16.94-1.39,24.68-1.36q56,.29,112.06,1c6.07.07,12.13.63,18.2,1,18.18,1,36.38,1.91,54.55,3.12,11.9.79,23.84,1.53,35.63,3.21,15.17,2.17,30.24,5.07,45.29,8a467.48,467.48,0,0,1,78.53,22.68c3.53,1.35,4.41,3.16,4.32,6.64-.22,8.78-.07,17.56-.07,26.53h97c0-5.36-.07-10.26,0-15.16.11-5.39-1.53-12.15,1.09-15.78s9.57-4.76,14.76-6.56c35.5-12.32,71.81-21.27,109.19-25.51q30.27-3.43,60.63-6c12.43-1.08,24.92-1.54,37.4-2.08,11.34-.49,22.69-1,34-1,29.4-.14,58.81-.08,88.21,0,3.87,0,7.73.75,11.6.88,2.2.07,4.4.08,6.68.08q-10,9.35-20.16,18.5-55.33,0-110.67,1c-17.51.33-35,1.61-52.49,3-15.53,1.25-31.11,2.59-46.45,5.16-22.51,3.78-45.1,7.62-67.12,13.45-18.26,4.83-35.76,12.54-53.55,19.08-1.59.58-2.88,1.94-4.31,2.94a3.93,3.93,0,0,0,3.38.44c13.7-3.52,27.24-7.87,41.11-10.4,22.52-4.09,45.2-7.35,67.9-10.29,17.47-2.26,35.06-3.79,52.63-5.09,15.17-1.12,30.39-2,45.6-2,27-.07,54,.39,81,.94,7.22.15,14.44.38,21.65.62q-12.94,11.23-26.14,22.18c-61.79,51.15-128.14,94.89-195.6,138-33.65,21.54-66.53,43.9-97.51,68.48.09-10.42,0-20.85,0-31.27a17.17,17.17,0,0,0-.67-3.16c-.9.41-1.48.63-2,.93q-24.63,14.49-49.23,29-21.8,12.9-43.49,26c-1.72,1-4.28,2.59-4.39,4.07-.49,6.34-.21,12.73-.21,19.41,14.27,0,27.82,0,41.37,0a6.74,6.74,0,0,0,3.19-1.07l13.65-8Q-979.66,1369-990,1379.66h-104.29l18.27,18.37q-137.3-20.12-252.23-96.32-116.36-76.74-190.45-195.15c3.68-.59,6.63-1.22,9.62-1.52,14-1.41,28.06-2.88,42.11-4.06,17.94-1.51,35.89-2.83,53.84-4.11,11.44-.81,22.89-1.52,34.34-2,18.43-.8,36.87-2,55.29-1.94,36.45.22,72.9,1,109.34,2,14.8.4,29.6,1.61,44.34,3,17.33,1.68,34.67,3.5,51.86,6.16,18.12,2.81,36.14,6.42,54.09,10.22,9.32,2,18.39,5.11,27.58,7.72a5.34,5.34,0,0,0-2.81-3.22c-7.29-3.31-14.51-6.82-22-9.68-45.29-17.37-92.77-24.48-140.64-29.54-13.88-1.47-27.84-2.36-41.79-3.06-13.19-.67-26.4-.82-39.61-1.08-9.17-.17-18.35-.27-27.52-.15-24.43.3-48.86.59-73.28,1.18-17.57.43-35.13,1.33-52.7,2-1.22,0-2.46-.16-4.36-.29a56.7,56.7,0,0,0,3.41-4.61c3.11-5.3,6.5-10.48,9.06-16,2.1-4.56-.11-7.68-5.09-7.48-4.28.17-8.82.57-12.74,2.13-18.27,7.31-33.38,19.61-48.46,31.84-8.35,6.77-16.37,13.93-24.69,21a565.3,565.3,0,0,1-41.45-78.15c-20.67-47.16-36.29-96-44.07-147-3.83-25.13-6.82-50.44-9-75.78-1.28-14.6-.53-29.41-.19-44.11.34-15,1-30,2.08-45,1-13.37,2-26.82,4.23-40q5.12-29.73,12.09-59.14c9.73-41.19,24.25-80.73,42.42-118.94a633,633,0,0,1,58.72-99.22c17.71-24.51,36.82-47.93,58.17-69.36,14.69-14.75,29.8-29.2,45.75-42.57,17.74-14.87,36.11-29.11,55.12-42.3,45.43-31.5,94.56-56,146.78-74.21,26-9.06,52.35-16.83,79.44-21.88,13.42-2.51,26.85-5,40.35-7,11.93-1.76,24-2.88,36-4.11,8.37-.85,16.77-1.35,25.15-2.11,1.06-.1,2.71-.54,3-1.26,3.14-7.81,6-15.71,9.36-24.46-121.78,3.83-233.82,36.89-335.67,101.77-129.11,82.24-220.75,195.64-271.43,340.2-100,285.19,2.12,608,270.69,779a656.58,656.58,0,0,0,298.8,100.4q-16,21-30.19,43.33C-1231,1456.07-1375.8,1383.36-1495.29,1256.55Zm521.65,123.11q6.06-6,12.28-11.9h34.14v-21.17L-958.4,1365a738,738,0,0,1,87.13-69.18c66.27-45.23,135.45-85.58,199.29-134.37q41.57-31.79,80.81-66.39c6.86.26,13.71.53,20.57.77,8.27.3,16.54.63,24.81,1q8.07.41,16.13,1.09c15.06,1.29,30.13,2.59,45.18,4,9.17.86,18.32,2,27.49,2.87,5.58.53,11.19.83,17.92,1.32a53.43,53.43,0,0,0-4.32-4.49c-14.83-11.89-29.56-23.92-44.63-35.5-9-7-18.82-13-30.09-15.56-3.7-.82-8.88-.47-11.71,1.61-3.83,2.82-.39,7.2,1.4,10.39,2.93,5.23,6.45,10.14,10.49,16.38-6.63-.55-12.3-1.2-18-1.47-11.29-.54-22.58-1.27-33.87-1.67A1515.28,1515.28,0,0,0-361.95,841.56q9.09-12.67,17.9-25.54-1.67,23.54-4.87,47.46c-9,66.91-29.75,130.5-60,190.92a634.94,634.94,0,0,1-117.43,163.51,634.77,634.77,0,0,1-163,119.2,631.43,631.43,0,0,1-189.82,61.64l-1.29-1.68,18.48-17.41Zm684.15-617c3.5,201.93-67.93,380.95-220.14,525.06C-642.89,1413.91-803.56,1477.44-987,1477q-32.37-.08-63.71-2.72,2.25-3.55,4.57-7,12.64-18.9,26.66-36.49A661.12,661.12,0,0,0-526.61,1253.7,662.21,662.21,0,0,0-316.38,774.21q12.87-20.18,25.09-40.76Q-290.17,747.94-289.49,762.66Z"/></g></g><line class="cls-5" x1="11.79" y1="378.11" x2="1835.52" y2="378.11"/><path class="cls-4" d="M479.86,156.12H462.44V305.76H412.66V156.12H366v-37H479.86Z"/><path class="cls-4" d="M501,305.76V119.1h49.77V305.76Z"/><path class="cls-4" d="M689.21,268.73v37h-116v-37h50.39V156.12H573.18v-37H673.35V268.73Z"/><path class="cls-4" d="M700.41,228.91V119.1h49.77V228.91Z"/><path class="cls-4" d="M906.66,119.1V229.23c0,50.39-19,64.7-60.66,75.28l-66.57,16.8-10.27-35.46,21.78-5.6L772.27,119.1h49.78l15.86,149c15.25-4,19-10.89,19-30.48V119.1Z"/><path class="cls-4" d="M1128.78,191.27V305.76H1079V182.87c0-20.22-3.42-26.75-19-26.75h-8.39V305.76H982.87V267.49h21.47V156.12h-14v-37h76.53C1112.6,119.1,1128.78,135,1128.78,191.27Z"/><path class="cls-4" d="M1144,305.76v-37h12.75c12.76,0,16.18-5.59,16.18-21.77V156.12h-19.6v-37h69.37V256.29c0,36.4-12.44,49.47-45.73,49.47Z"/><path class="cls-4" d="M1379.82,189.72v116h-49.77V188.16c0-26.13-4.67-32-20.84-32h-8.72V305.76h-49.77V119.1h70C1363,119.1,1379.82,134.65,1379.82,189.72Z"/><path class="cls-4" d="M1542.52,191.27V305.76h-49.78V182.87c0-20.22-3.42-26.75-19-26.75h-8.4V305.76h-68.75V267.49h21.46V156.12h-14v-37h76.53C1526.34,119.1,1542.52,135,1542.52,191.27Z"/><text class="cls-6" transform="translate(1715.95 601.61)"><tspan xml:space="preserve">  </tspan></text><text class="cls-7" transform="translate(1717.38 596.33)"><tspan xml:space="preserve">  </tspan></text></svg>