<svg id="Layer_1" data-name="Layer 1" xmlns="http://www.w3.org/2000/svg" xmlns:xlink="http://www.w3.org/1999/xlink" viewBox="0 0 70.05 125.73"><defs><style>.cls-1{fill:url(#linear-gradient);}.cls-2{fill:url(#linear-gradient-2);}</style><linearGradient id="linear-gradient" y1="44.33" x2="70.05" y2="44.33" gradientUnits="userSpaceOnUse"><stop offset="0" stop-color="#008ccf"/><stop offset="0.56" stop-color="#4eb4e5"/><stop offset="1" stop-color="#86d1f5"/></linearGradient><linearGradient id="linear-gradient-2" x1="21.83" y1="112.93" x2="47.52" y2="112.93" xlink:href="#linear-gradient"/></defs><path class="cls-1" d="M35,88.64c-2.24,0-4.48,0-6.72,0-2.55,0-3.55-1-3.57-3.49-.05-6.3-.1-12.56,2.09-18.64C29.13,60,33.17,54.73,38.07,50c2.15-2.07,4.32-4.13,6.39-6.29,3.77-3.95,5.08-8.76,4.59-14.1a7.8,7.8,0,0,0-4.61-6.79,22.12,22.12,0,0,0-18.11-.09c-3,1.26-4.54,3.8-4.92,7-.29,2.48-.41,5-.67,7.45-.23,2.2-1.23,3.12-3.46,2.93-4.9-.42-9.79-1-14.68-1.46A2.55,2.55,0,0,1,0,36c.13-7.67,1-15.17,5.48-21.76C10.43,6.92,17.44,2.7,26,1.05,36.87-1.08,47.45-.21,57.07,5.9,64.4,10.55,68.43,17.48,69.61,26c1.83,13.18-2.06,24.45-11.73,33.68-2,1.93-4,4-6,5.87A18.23,18.23,0,0,0,45.59,80c0,1.8.06,3.61,0,5.42-.1,2.17-1.1,3.17-3.28,3.24C39.86,88.69,37.43,88.63,35,88.64Z"/><path class="cls-2" d="M34,100.17c6.82-.57,12.77,4.81,13.45,12.15.6,6.57-5,12.84-11.88,13.38-7.07.55-13.06-4.73-13.73-12.09C21.26,106.85,26.76,100.78,34,100.17Z"/></svg>