<svg id="Layer_1" data-name="Layer 1" xmlns="http://www.w3.org/2000/svg" viewBox="0 0 651.69 238.4"><defs><style>.cls-1{fill:none;stroke:#fff;stroke-linecap:round;stroke-miterlimit:10;stroke-width:3.69px;}.cls-2{fill:#fff;}.cls-3{fill:#f7ae6d;}.cls-4{fill:#40b2a7;}.cls-5{fill:#ee726d;}.cls-6{fill:#edda9d;}.cls-7{fill:#8ccdc8;}.cls-8{fill:#f29597;}</style></defs><line class="cls-1" x1="1.85" y1="134.52" x2="649.85" y2="134.52"/><path class="cls-2" d="M54.51,44.49H71.64v36.7c0,20.78-6.74,29.62-28.07,29.62H11.29L7.42,44.49H24.55l3,53.17h12.6c12.49,0,14.37-4.75,14.37-17.8Zm-6.3,0H32V84.62H48.21Zm32.27,39H98.17v-39H80.48Zm60.91-39h-35.6V57.65H123.7v40H105.79v13.15H147V97.66h-5.63Zm25.42,0h-15V57.65h7.84c8.51,0,10.39,2,10.39,10.94V86.72c0,9-1.88,10.94-10.39,10.94h-7.84v13.15h15c13.92,0,20.89-4.86,20.89-22.77V67.26C187.7,49.36,180.73,44.49,166.81,44.49Zm57.81,42.12c0,7-1.33,9.39-6.75,10.83l-5.63-52.95H194.55l6.63,57.26-7.73,2,3.64,12.6,23.66-6c14.81-3.76,21.55-8.84,21.55-26.75V44.49H224.62Zm48.08-3.1h17.68v-39H272.7Zm38.24-39H297V57.65h9.28c6.85,0,8.73,3.53,8.73,13.7v39.46h17.69V70.69C332.72,51.9,329.29,44.49,310.94,44.49Zm31.39,66.32H360V44.49H342.33Zm27.19-53.16h28.3V89.81c0,6.41-1.44,7.85-5.53,7.85h-1v13.15h5.19c12.6,0,19-6.08,19-19.78V44.49h-46Zm.22,67.53h17.69V69.47H369.74ZM472.1,44.49H444.91V57.65h5V97.22h-7.63v13.59h24.43V57.65h3c5.52,0,6.74,2.32,6.74,9.5v43.66H494.1V70.14C494.1,50.13,488.35,44.49,472.1,44.49Zm30.73,13.16h7V89.92c0,5.75-1.21,7.74-5.75,7.74h-4.53v13.15h11.72c11.83,0,16.25-4.64,16.25-17.57V44.49H502.83ZM562.3,44.49H537.43v66.32h17.68V57.65h3.1c5.74,0,7.4,2.1,7.4,11.38v41.78H583.3V69.58C583.3,50,577.33,44.49,562.3,44.49Zm56.81,0H591.92V57.65h5V97.22h-7.63v13.59h24.43V57.65h3c5.52,0,6.74,2.32,6.74,9.5v43.66h17.69V70.14C641.11,50.13,635.36,44.49,619.11,44.49Z"/><path class="cls-3" d="M70.91,194.25V176c0-14.34,5.44-20.35,18-20.35s18.13,6,18.13,20.35v18.29c0,14.41-5.44,20.43-18.13,20.43S70.91,208.66,70.91,194.25Zm22.66,1.64V174.31c0-6.59-1.24-8.9-4.62-8.9s-4.53,2.31-4.53,8.9v21.58c0,6.59,1.24,9,4.53,9S93.57,202.48,93.57,195.89Z"/><path class="cls-3" d="M146.54,168.63v45.31H133.69v-2.56a10.87,10.87,0,0,1-8,3.05c-8.23,0-12.6-4.61-12.6-16.64V168.63h12.85V198.2c0,4.53,1.32,6.43,3.79,6.43,2.88,0,4-2,4-6.51V168.63Z"/><path class="cls-3" d="M174.13,204.46v9.48h-4.78c-10.54,0-14.16-3.13-14.16-12.86V177.44h-3.88v-8.81h3.88V156.27H168v12.36h5.68v8.81H168V200.1c0,3.29.74,4.36,3.87,4.36Z"/><path class="cls-4" d="M229.49,185.1c0,24.06-4.53,28.84-20.59,28.84H194.81V156.27H208.9C225,156.27,229.49,161.13,229.49,185.1Zm-13.18,0c0-16.72-.91-19-7.17-19H208v38.06h1.15C215.4,204.13,216.31,201.83,216.31,185.1Z"/><path class="cls-4" d="M234.52,191.36c0-16.39,4.86-23.31,17.13-23.31S269,175,269,191.36,264,214.6,251.65,214.6,234.52,207.67,234.52,191.36Zm21.17,0c0-10.46-.91-13.92-4-13.92-3,0-4,3.46-4,13.92s1,13.84,4,13.84C254.78,205.2,255.69,201.91,255.69,191.36Z"/><path class="cls-4" d="M273.32,191.36c0-16.39,4.86-23.31,17.13-23.31s17.3,6.92,17.3,23.31-4.94,23.24-17.3,23.24S273.32,207.67,273.32,191.36Zm21.17,0c0-10.46-.91-13.92-4-13.92-3,0-3.95,3.46-3.95,13.92s1,13.84,3.95,13.84C293.58,205.2,294.49,201.91,294.49,191.36Z"/><path class="cls-4" d="M313.43,168.63h12.12v9.3l.08.09c1.48-5.44,4.28-9.39,10.95-9.39h.83v12.11h-.83c-6.17,0-10.46,2.22-10.46,12.93l.17,20.27H313.43Z"/><path class="cls-5" d="M388.07,166.4h-10v47.54H364.92V166.4H355V156.27h33.12Z"/><path class="cls-5" d="M389.22,168.63h12.11v9.3l.09.09c1.48-5.44,4.28-9.39,10.95-9.39h.83v12.11h-.83c-6.18,0-10.46,2.22-10.46,12.93l.17,20.27H389.22Z"/><path class="cls-5" d="M446.07,185.43v28.51H433.3v-4c-1.73,3-4.61,4.29-8.65,4.29-6.51,0-10.79-4.45-11-12-.25-9.72,6.26-16.73,19.61-20.19-.42-3.79-1.57-4.61-4.78-4.61-3.87,0-7.58.91-11.62,1.81l-1.73-8.81a65.84,65.84,0,0,1,15.24-2.31C440.05,168.13,446.07,172.25,446.07,185.43Zm-12.69,12v-6.92c-5.44,2.31-7.08,5.68-7.08,9.31,0,3,1.31,4.28,3.46,4.28C432.31,204.13,433.38,201.91,433.38,197.46Z"/><path class="cls-5" d="M452.33,163.6V152.15h12.85V163.6Zm12.85,50.34H452.33V168.63h12.85Z"/><path class="cls-5" d="M505.54,184.2v29.74H492.69V184.36c0-4.45-1.23-6.43-3.79-6.43-2.72,0-3.95,2-3.95,6.43v29.58H472.1V168.63H485v2.88a11,11,0,0,1,8.15-3.21C501.92,168.3,505.54,173.24,505.54,184.2Z"/><path class="cls-5" d="M511.8,163.6V152.15h12.86V163.6Zm12.86,50.34H511.8V168.63h12.86Z"/><path class="cls-5" d="M565,184.2v29.74H552.17V184.36c0-4.45-1.24-6.43-3.79-6.43-2.72,0-4,2-4,6.43v29.58H531.57V168.63h12.86v2.88a11,11,0,0,1,8.15-3.21C561.4,168.3,565,173.24,565,184.2Z"/><path class="cls-5" d="M603.9,168.63v43.58c0,14-6,18.7-17.63,18.7a46.44,46.44,0,0,1-12.52-1.9l1.49-9.06a31,31,0,0,0,8.89,1.48c5.93,0,6.92-2.63,6.92-10.62v-1.9c-1.89,1.81-4.45,2.72-7.91,2.72-10.38,0-13.09-7.66-13.09-21.75s2.71-21.67,13.09-21.67c3.55,0,6.1.91,7.91,2.72v-2.3Zm-12.44,21.42c0-9.56-1.07-12.77-4.2-12.77s-4.2,3.21-4.2,12.77,1.15,12.76,4.2,12.76S591.46,199.68,591.46,190.05Z"/><path class="cls-6" d="M92.25,154.05c-12.54,0-18,6-18,20.24v18.19c0,14.34,5.41,20.32,18,20.32s18-6,18-20.32V174.29C110.27,160,104.87,154.05,92.25,154.05Zm4.59,40.07c0,6.55-1.23,8.93-4.59,8.93s-4.51-2.38-4.51-8.93V172.65c0-6.56,1.23-8.85,4.51-8.85s4.59,2.29,4.59,8.85ZM136.74,167h12.78v45.07H136.74v-2.54a10.8,10.8,0,0,1-8,3c-8.19,0-12.54-4.59-12.54-16.55V167H129v29.42c0,4.51,1.31,6.39,3.77,6.39,2.86,0,3.93-2,3.93-6.47ZM177,202.64v9.42h-4.75c-10.49,0-14.1-3.11-14.1-12.78V175.76h-3.85V167h3.85V154.7h12.79V167h5.65v8.77h-5.65V198.3c0,3.27.73,4.34,3.85,4.34Z"/><path class="cls-7" d="M211.55,154.7h-14v57.36h14c16,0,20.48-4.75,20.48-28.68S227.52,154.7,211.55,154.7Zm.24,47.61h-1.14V164.45h1.14c6.23,0,7.13,2.3,7.13,18.93S218,202.31,211.79,202.31Zm42.28-35.89c-12.21,0-17,6.88-17,23.19s4.83,23.11,17,23.11,17.21-6.89,17.21-23.11S266.36,166.42,254.07,166.42Zm0,37c-2.95,0-3.93-3.28-3.93-13.77s1-13.85,3.93-13.85c3.11,0,4,3.44,4,13.85S257.18,203.38,254.07,203.38Zm38.59-37c-12.21,0-17,6.88-17,23.19s4.83,23.11,17,23.11,17.21-6.89,17.21-23.11S305,166.42,292.66,166.42Zm0,37c-3,0-3.93-3.28-3.93-13.77s1-13.85,3.93-13.85c3.12,0,4,3.44,4,13.85S295.78,203.38,292.66,203.38ZM339.37,167v12h-.82c-6.15,0-10.41,2.21-10.41,12.86l.16,20.16H315.52V167h12.05v9.26l.08.09c1.47-5.41,4.26-9.35,10.9-9.35Z"/><path class="cls-8" d="M356.82,154.7h32.94v10.08h-9.92v47.28H366.73V164.78h-9.91ZM403,176.34l-.08-.09V167H390.9v45.07h12.79l-.17-20.16c0-10.65,4.26-12.86,10.41-12.86h.82V167h-.82C407.29,167,404.5,170.93,403,176.34Zm44.41,7.37v28.35h-12.7v-3.93c-1.72,3-4.59,4.26-8.6,4.26-6.47,0-10.74-4.43-11-12-.25-9.67,6.23-16.64,19.5-20.08-.41-3.77-1.56-4.59-4.75-4.59-3.85,0-7.54.9-11.56,1.8l-1.72-8.76a65.61,65.61,0,0,1,15.16-2.3C441.46,166.5,447.44,170.6,447.44,183.71Zm-12.62,5.08c-5.4,2.29-7,5.65-7,9.26,0,2.95,1.31,4.26,3.44,4.26,2.54,0,3.6-2.21,3.6-6.64Zm18.85,23.27h12.78V167H453.67Zm0-50.06h12.78V150.61H453.67Zm40.56,4.67a11,11,0,0,0-8.12,3.19V167H473.33v45.07h12.78V182.64c0-4.42,1.23-6.39,3.94-6.39,2.54,0,3.77,2,3.77,6.39v29.42H506.6V182.48C506.6,171.58,503,166.67,494.23,166.67ZM512.82,162h12.79V150.61H512.82Zm0,50.06h12.79V167H512.82Zm40.56-45.39a11,11,0,0,0-8.11,3.19V167H532.49v45.07h12.78V182.64c0-4.42,1.23-6.39,3.93-6.39,2.54,0,3.77,2,3.77,6.39v29.42h12.79V182.48C565.76,171.58,562.15,166.67,553.38,166.67Zm51,.32v43.35c0,13.93-6,18.6-17.54,18.6a46.32,46.32,0,0,1-12.45-1.88l1.48-9a30.7,30.7,0,0,0,8.84,1.48c5.9,0,6.89-2.62,6.89-10.57v-1.89c-1.89,1.81-4.43,2.71-7.87,2.71-10.32,0-13-7.62-13-21.63s2.71-21.56,13-21.56c3.52,0,6.06.91,7.87,2.71V167ZM592.06,188.3c0-9.51-1.07-12.7-4.18-12.7s-4.18,3.19-4.18,12.7,1.15,12.7,4.18,12.7S592.06,197.89,592.06,188.3Z"/></svg>