<svg id="Layer_1" data-name="Layer 1" xmlns="http://www.w3.org/2000/svg" viewBox="0 0 682.41 231.82"><defs><style>.cls-1{fill:#f7ae6d;}.cls-2{fill:#40b2a7;}.cls-3{fill:#ee726d;}.cls-4{fill:#edda9d;}.cls-5{fill:#7fcad2;}.cls-6{fill:#f29597;}.cls-7{fill:#8ccdc8;}.cls-8{fill:none;stroke:#fff;stroke-linecap:round;stroke-miterlimit:10;stroke-width:3.69px;}</style></defs><path class="cls-1" d="M113.34,25,101.46,94.26h-20l-6-39.2-6,39.2h-20L37.61,25H55.23L60,71.19,68.2,25H82.75L91,71.19,95.72,25Z"/><path class="cls-1" d="M152.14,82.08V94.26H118.29V25h33.45V37.14H134.52v15H149V63.87H134.52V82.08Z"/><path class="cls-1" d="M159.27,25H175.1V82.08h17.52V94.26H159.27Z"/><path class="cls-1" d="M196.29,70.6V48.72c0-17.32,6.34-24.54,21.58-24.54,15.44,0,21.68,7,21.68,27.71H223.31c0-12-1.38-15.84-5.44-15.84s-5.35,2.78-5.35,10.69V72.58c0,7.92,1.29,10.79,5.35,10.79s5.44-4.06,5.44-16h16.24c0,20.79-6.24,27.82-21.68,27.82C202.63,95.15,196.29,87.82,196.29,70.6Z"/><path class="cls-1" d="M246.23,70.6v-22c0-17.22,6.53-24.44,21.68-24.44s21.78,7.22,21.78,24.44v22c0,17.32-6.54,24.55-21.78,24.55S246.23,87.92,246.23,70.6Zm27.22,2V46.65c0-7.92-1.48-10.7-5.54-10.7s-5.44,2.78-5.44,10.7V72.58c0,7.92,1.48,10.79,5.44,10.79S273.45,80.5,273.45,72.58Z"/><path class="cls-1" d="M360.56,25V94.26H344.72V43.38l-8,33.26H322l-8-33.26V94.26H298.1V25h24.15l7,31.18L336.4,25Z"/><path class="cls-1" d="M403.91,82.08V94.26H370.06V25h33.46V37.14H386.29v15h14.45V63.87H386.29V82.08Z"/><path class="cls-2" d="M465.72,37.14h-12V94.26H437.9V37.14h-12V25h39.79Z"/><path class="cls-2" d="M469.68,70.6v-22c0-17.22,6.54-24.44,21.68-24.44s21.78,7.22,21.78,24.44v22c0,17.32-6.53,24.55-21.78,24.55S469.68,87.92,469.68,70.6Zm27.22,2V46.65c0-7.92-1.48-10.7-5.54-10.7s-5.44,2.78-5.44,10.7V72.58c0,7.92,1.48,10.79,5.44,10.79S496.9,80.5,496.9,72.58Z"/><path class="cls-3" d="M576.29,37.14h-12V94.26H548.47V37.14h-12V25h39.8Z"/><path class="cls-3" d="M626.47,25V94.26H610.63V64.07H597.86V94.26H582V25h15.83V51.89h12.77V25Z"/><path class="cls-3" d="M669.82,82.08V94.26H636V25h33.46V37.14H652.21v15h14.45V63.87H652.21V82.08Z"/><path class="cls-4" d="M116,22.67,104.14,92h-20l-6-39.2-6,39.2h-20L40.3,22.67H57.91L62.67,68.9l8.21-46.23H85.43L93.65,68.9,98.4,22.67Z"/><path class="cls-4" d="M154.82,79.78V92H121V22.67h33.45V34.84H137.2V49.79h14.45V61.57H137.2V79.78Z"/><path class="cls-4" d="M162,22.67h15.83V79.78h17.53V92H162Z"/><path class="cls-4" d="M199,68.3V46.43c0-17.33,6.34-24.55,21.58-24.55,15.44,0,21.68,7,21.68,27.71H226c0-12-1.38-15.83-5.44-15.83s-5.34,2.77-5.34,10.69V70.28c0,7.92,1.28,10.79,5.34,10.79S226,77,226,65h16.24c0,20.79-6.24,27.82-21.68,27.82C205.31,92.85,199,85.52,199,68.3Z"/><path class="cls-4" d="M248.91,68.3v-22c0-17.23,6.54-24.45,21.68-24.45s21.78,7.22,21.78,24.45v22c0,17.32-6.54,24.55-21.78,24.55S248.91,85.62,248.91,68.3Zm27.22,2V44.35c0-7.92-1.48-10.69-5.54-10.69s-5.44,2.77-5.44,10.69V70.28c0,7.92,1.48,10.79,5.44,10.79S276.13,78.2,276.13,70.28Z"/><path class="cls-4" d="M363.24,22.67V92H347.4V41.08l-8,33.26H324.63l-8-33.26V92H300.78V22.67h24.15l7,31.18,7.13-31.18Z"/><path class="cls-4" d="M406.59,79.78V92H372.74V22.67H406.2V34.84H389V49.79h14.45V61.57H389V79.78Z"/><path class="cls-5" d="M468.4,34.84h-12V92H440.59V34.84h-12V22.67H468.4Z"/><path class="cls-5" d="M472.37,68.3v-22c0-17.23,6.53-24.45,21.67-24.45s21.78,7.22,21.78,24.45v22c0,17.32-6.53,24.55-21.78,24.55S472.37,85.62,472.37,68.3Zm27.22,2V44.35c0-7.92-1.49-10.69-5.55-10.69s-5.44,2.77-5.44,10.69V70.28c0,7.92,1.48,10.79,5.44,10.79S499.59,78.2,499.59,70.28Z"/><path class="cls-6" d="M579,34.84H567V92H551.15V34.84h-12V22.67H579Z"/><path class="cls-6" d="M629.15,22.67V92H613.31V61.77H600.55V92H584.71V22.67h15.84V49.59h12.76V22.67Z"/><path class="cls-6" d="M672.51,79.78V92H638.65V22.67h33.46V34.84H654.89V49.79h14.45V61.57H654.89V79.78Z"/><path class="cls-1" d="M85.1,186.15V167.23c0-14.82,5.62-21,18.66-21s18.74,6.22,18.74,21v18.92c0,14.91-5.62,21.13-18.74,21.13S85.1,201.06,85.1,186.15Zm23.43,1.7V165.53c0-6.82-1.28-9.2-4.77-9.2s-4.69,2.38-4.69,9.2v22.32c0,6.82,1.28,9.29,4.69,9.29S108.53,194.67,108.53,187.85Z"/><path class="cls-1" d="M163.32,159.65v46.86H150v-2.64a11.24,11.24,0,0,1-8.27,3.15c-8.52,0-13-4.77-13-17.21V159.65H142v30.59c0,4.68,1.36,6.64,3.92,6.64,3,0,4.09-2,4.09-6.73v-30.5Z"/><path class="cls-1" d="M191.86,196.71v9.8h-4.94c-10.9,0-14.65-3.24-14.65-13.29V168.77h-4v-9.12h4V146.87h13.29v12.78h5.88v9.12h-5.88V192.2c0,3.41.76,4.51,4,4.51Z"/><path class="cls-2" d="M249.13,176.69c0,24.88-4.69,29.82-21.31,29.82H213.25V146.87h14.57C244.44,146.87,249.13,151.9,249.13,176.69Zm-13.64,0c0-17.3-.93-19.68-7.41-19.68h-1.19v39.36h1.19C234.56,196.37,235.49,194,235.49,176.69Z"/><path class="cls-2" d="M254.32,183.17c0-17,5-24.12,17.73-24.12s17.89,7.16,17.89,24.12-5.11,24-17.89,24S254.32,200,254.32,183.17Zm21.9,0c0-10.82-.93-14.4-4.17-14.4-3.07,0-4.09,3.58-4.09,14.4s1,14.31,4.09,14.31C275.29,197.48,276.22,194.07,276.22,183.17Z"/><path class="cls-2" d="M294.55,183.17c0-17,5-24.12,17.72-24.12s17.89,7.16,17.89,24.12-5.11,24-17.89,24S294.55,200,294.55,183.17Zm21.89,0c0-10.82-.93-14.4-4.17-14.4-3.07,0-4.09,3.58-4.09,14.4s1,14.31,4.09,14.31C315.51,197.48,316.44,194.07,316.44,183.17Z"/><path class="cls-2" d="M336,159.65h12.53v9.63l.08.08c1.54-5.62,4.43-9.71,11.33-9.71h.86v12.52H360c-6.39,0-10.82,2.31-10.82,13.38l.17,21H336Z"/><path class="cls-3" d="M413.16,157.35H402.85v49.16H389.21V157.35H378.9V146.87h34.26Z"/><path class="cls-3" d="M414.53,159.65h12.52v9.63l.09.08c1.53-5.62,4.43-9.71,11.33-9.71h.85v12.52h-.85c-6.39,0-10.82,2.31-10.82,13.38l.17,21H414.53Z"/><path class="cls-3" d="M473.35,177v29.48H460.14v-4.09c-1.79,3.07-4.77,4.43-8.94,4.43-6.74,0-11.17-4.6-11.42-12.44-.26-10,6.47-17.29,20.28-20.87-.43-3.92-1.62-4.77-4.95-4.77-4,0-7.83.93-12,1.87l-1.79-9.12a68.55,68.55,0,0,1,15.76-2.38C467.13,159.14,473.35,163.4,473.35,177Zm-13.12,12.44v-7.16c-5.63,2.39-7.33,5.88-7.33,9.63,0,3.07,1.36,4.43,3.58,4.43C459.12,196.37,460.23,194.07,460.23,189.47Z"/><path class="cls-3" d="M480,154.45V142.61h13.29v11.84Zm13.29,52.06H480V159.65h13.29Z"/><path class="cls-3" d="M535,175.75v30.76H521.75V175.92c0-4.6-1.28-6.64-3.92-6.64-2.81,0-4.09,2-4.09,6.64v30.59H500.45V159.65h13.29v3a11.44,11.44,0,0,1,8.43-3.32C531.29,159.31,535,164.42,535,175.75Z"/><path class="cls-3" d="M541.59,154.45V142.61h13.29v11.84Zm13.29,52.06H541.59V159.65h13.29Z"/><path class="cls-3" d="M596.63,175.75v30.76H583.34V175.92c0-4.6-1.28-6.64-3.92-6.64-2.81,0-4.09,2-4.09,6.64v30.59H562V159.65h13.29v3a11.46,11.46,0,0,1,8.44-3.32C592.88,159.31,596.63,164.42,596.63,175.75Z"/><path class="cls-3" d="M636.85,159.65v45.07c0,14.49-6.22,19.34-18.23,19.34a47.87,47.87,0,0,1-13-2l1.53-9.37a32.05,32.05,0,0,0,9.2,1.54c6.14,0,7.16-2.73,7.16-11v-2c-2,1.88-4.6,2.82-8.18,2.82-10.74,0-13.55-7.93-13.55-22.5s2.81-22.41,13.55-22.41c3.66,0,6.3.94,8.18,2.82v-2.39ZM624,181.8c0-9.88-1.1-13.2-4.34-13.2s-4.35,3.32-4.35,13.2,1.2,13.21,4.35,13.21S624,191.77,624,181.8Z"/><path class="cls-4" d="M88.61,184.32V165.5c0-14.74,5.59-20.93,18.56-20.93s18.64,6.19,18.64,20.93v18.82c0,14.83-5.59,21-18.64,21S88.61,199.15,88.61,184.32Zm23.3,1.69v-22.2c0-6.78-1.27-9.15-4.74-9.15s-4.66,2.37-4.66,9.15V186c0,6.78,1.27,9.24,4.66,9.24S111.91,192.79,111.91,186Z"/><path class="cls-4" d="M166.41,158v46.61H153.19V202a11.17,11.17,0,0,1-8.22,3.13c-8.48,0-13-4.74-13-17.12V158h13.22v30.43c0,4.66,1.36,6.61,3.9,6.61,3,0,4.07-2,4.07-6.7V158Z"/><path class="cls-4" d="M194.8,194.83v9.74h-4.91c-10.85,0-14.58-3.22-14.58-13.22V167h-4V158h4V145.25h13.22V158h5.85V167h-5.85v23.31c0,3.39.76,4.49,4,4.49Z"/><path class="cls-7" d="M251.75,174.91c0,24.75-4.66,29.66-21.18,29.66h-14.5V145.25h14.5C247.09,145.25,251.75,150.25,251.75,174.91Zm-13.56,0c0-17.2-.93-19.58-7.37-19.58h-1.19v39.16h1.19C237.26,194.49,238.19,192.11,238.19,174.91Z"/><path class="cls-7" d="M256.93,181.35c0-16.86,5-24,17.62-24s17.8,7.12,17.8,24-5.09,23.9-17.8,23.9S256.93,198.13,256.93,181.35Zm21.78,0c0-10.76-.94-14.32-4.16-14.32-3.05,0-4.07,3.56-4.07,14.32s1,14.24,4.07,14.24C277.77,195.59,278.71,192.2,278.71,181.35Z"/><path class="cls-7" d="M296.93,181.35c0-16.86,5-24,17.63-24s17.79,7.12,17.79,24-5.08,23.9-17.79,23.9S296.93,198.13,296.93,181.35Zm21.78,0c0-10.76-.93-14.32-4.15-14.32-3.06,0-4.07,3.56-4.07,14.32s1,14.24,4.07,14.24C317.78,195.59,318.71,192.2,318.71,181.35Z"/><path class="cls-7" d="M338.2,158h12.46v9.58l.08.08C352.27,162,355.15,158,362,158h.84v12.46H362c-6.36,0-10.77,2.29-10.77,13.31l.17,20.84H338.2Z"/><path class="cls-6" d="M414.9,155.67H404.65v48.9H391.09v-48.9H380.83V145.25H414.9Z"/><path class="cls-6" d="M416.27,158h12.46v9.58l.08.08c1.52-5.59,4.41-9.66,11.27-9.66h.85v12.46h-.85c-6.35,0-10.76,2.29-10.76,13.31l.17,20.84H416.27Z"/><path class="cls-6" d="M474.77,175.25v29.32H461.64V200.5c-1.79,3.06-4.75,4.41-8.9,4.41-6.7,0-11.11-4.57-11.36-12.37-.25-10,6.44-17.21,20.17-20.76-.42-3.9-1.61-4.75-4.91-4.75-4,0-7.8.93-11.95,1.86l-1.79-9.06a68,68,0,0,1,15.68-2.38C468.58,157.45,474.77,161.69,474.77,175.25Zm-13,12.37V180.5c-5.59,2.38-7.29,5.85-7.29,9.58,0,3,1.36,4.41,3.56,4.41C460.62,194.49,461.72,192.2,461.72,187.62Z"/><path class="cls-6" d="M481.28,152.79V141H494.5v11.78Zm13.22,51.78H481.28V158H494.5Z"/><path class="cls-6" d="M536,174v30.59H522.81V174.15c0-4.58-1.27-6.61-3.9-6.61-2.79,0-4.07,2-4.07,6.61v30.42H501.62V158h13.22v3a11.36,11.36,0,0,1,8.39-3.31C532.3,157.62,536,162.71,536,174Z"/><path class="cls-6" d="M542.55,152.79V141h13.22v11.78Zm13.22,51.78H542.55V158h13.22Z"/><path class="cls-6" d="M597.29,174v30.59H584.07V174.15c0-4.58-1.27-6.61-3.9-6.61-2.79,0-4.06,2-4.06,6.61v30.42H562.89V158h13.22v3a11.34,11.34,0,0,1,8.39-3.31C593.56,157.62,597.29,162.71,597.29,174Z"/><path class="cls-6" d="M637.3,158v44.83c0,14.41-6.19,19.24-18.14,19.24a47.74,47.74,0,0,1-12.88-1.95l1.52-9.32a31.83,31.83,0,0,0,9.16,1.52c6.1,0,7.11-2.71,7.11-10.93V199.4c-1.94,1.87-4.57,2.8-8.13,2.8-10.68,0-13.47-7.88-13.47-22.37s2.79-22.29,13.47-22.29c3.64,0,6.27.93,8.13,2.79V158Zm-12.8,22c0-9.83-1.1-13.14-4.32-13.14s-4.33,3.31-4.33,13.14,1.19,13.13,4.33,13.13S624.5,189.91,624.5,180Z"/><line class="cls-8" x1="32.57" y1="121.76" x2="680.57" y2="121.76"/></svg>