<svg id="Layer_1" data-name="Layer 1" xmlns="http://www.w3.org/2000/svg" viewBox="0 0 595.07 330.86"><defs><style>.cls-1{fill:#1d1d1b;}.cls-2{fill:none;stroke:#1d1d1b;stroke-miterlimit:10;}</style></defs><path class="cls-1" d="M468.44,40.67h-4.29l-5.8-12.79c-1,.36-1.23,1.23-1.23,2.78v10h-4.33V31.81c0-4.13,1.23-6,4.33-6.75l-3.74-8.22h4.29L463,28.63c1-.47,1.32-1.27,1.32-3V16.84h4.29V24.5c0,4.69-1.51,6.12-4.37,6.87Zm3.06-3.42v3.42h13.78l-4.17-9.77c2.74-.48,4.84-1.91,4.84-6.4V16.84h-4.41V25c0,1.79-.59,2.46-1.78,2.78l-4.69-11h-4.53l8.82,20.41Zm22.88-20.41H490V40.67h4.41Zm8.74,0h-4.41V30.46h4.41Zm26,23.83H515V16.84h7.55c5,0,6.59,2.22,6.59,8.22Zm-4.21-15.73c0-3.73-.83-4.89-3.18-4.89H519.2v17.4h5.72Zm23.6-.44V16.84h-4.29v8.81c0,1.71-.28,2.51-1.31,3l-5.33-11.79h-4.28L537,25.06c-3.1.79-4.33,2.62-4.33,6.75v8.86H537v-10c0-1.55.2-2.42,1.23-2.78l5.8,12.79h4.29l-4.21-9.3C547,30.62,548.52,29.19,548.52,24.5ZM306.58,40.67l-6.16-14.34L306,12.86h-4.92l-3.14,9.42-3.14-9.42H289.9l5.56,13.47L289.3,40.67h4.89L298,30l3.73,10.65ZM94,40.67H98.4v-11l5.92-16.77H99.56L96.22,24.94,92.84,12.86H88.08L94,29.63ZM476.58,93.26v-11l5.92-16.76h-4.77L474.4,77.53,471,65.46h-4.77l5.92,16.76v11Zm13.23-11v11h4.41v-11l5.91-16.76h-4.76L492,77.53l-3.37-12.07h-4.77Zm17.64,0v11h4.4v-11l5.92-16.76H513l-3.34,12.07-3.38-12.07h-4.76Zm19.86-4.69-3.38-12.07h-4.77l5.92,16.76v11h4.41v-11l5.92-16.76h-4.77Zm-44.63,44.61h-4.93l-3.14,9.41-3.13-9.41h-4.89l5.56,13.46L466,149.94h4.89l3.77-10.64,3.74,10.64h4.88l-6.15-14.34Zm11.64,27.8v-11l5.91-16.76h-4.76l-3.34,12.08-3.38-12.08H484l5.92,16.76v11Zm17.63,0v-11l5.92-16.76H513.1l-3.33,12.08-3.38-12.08h-4.76l5.91,16.76v11Zm15.45-15.72L524,122.14h-4.77l5.92,16.76v11h4.41v-11l5.92-16.76h-4.77Zm-44.74,44.09h-4.93l-3.14,9.41-3.13-9.41h-4.89l5.56,13.47L466,206.11h4.88l3.77-10.64,3.74,10.64h4.88l-6.15-14.33Zm17.67,0h-4.92l-3.14,9.41-3.14-9.41h-4.88l5.56,13.47-6.16,14.33h4.89l3.77-10.64L496,206.11h4.89l-6.16-14.33ZM512,206.11v-11l5.92-16.76h-4.77l-3.33,12.08-3.38-12.08h-4.76l5.91,16.76v11Zm15.45-15.72-3.37-12.08h-4.77l5.92,16.76v11h4.41v-11l5.92-16.76h-4.77Zm-44.78,42.05h-4.93l-3.14,9.41-3.13-9.41h-4.89l5.56,13.46L466,260.24h4.88l3.77-10.64,3.74,10.64h4.88l-6.15-14.34Zm17.67,0h-4.92l-3.14,9.41-3.14-9.41h-4.88l5.56,13.46-6.16,14.34h4.89l3.77-10.64L496,260.24h4.89l-6.16-14.34Zm17.68,0h-4.92l-3.14,9.41-3.14-9.41H501.9l5.56,13.46-6.15,14.34h4.88L510,249.6l3.73,10.64h4.89l-6.16-14.34Zm11.64,27.8v-11l5.92-16.76h-4.77l-3.34,12.07-3.37-12.07H519.3l5.92,16.76v11Zm-47.27,29.39h-4.93L474.3,299l-3.14-9.41h-4.89l5.56,13.47-6.15,14.33h4.88l3.78-10.64,3.73,10.64H483L476.8,303.1Zm17.67,0h-4.92L492,299l-3.14-9.41H484l5.56,13.47-6.16,14.33h4.89L492,306.79l3.74,10.64h4.88l-6.16-14.33Zm17.68,0h-4.92L509.65,299l-3.14-9.41h-4.88l5.56,13.47L501,317.43h4.89l3.77-10.64,3.73,10.64h4.89l-6.16-14.33Zm17.68,0h-4.93L527.32,299l-3.13-9.41H519.3l5.56,13.47-6.15,14.33h4.88l3.77-10.64,3.74,10.64H536l-6.15-14.33ZM281.24,140.93a15.68,15.68,0,0,1,2.22-8l5.8-10.76h4.81l-5.76,10.49a5.63,5.63,0,0,1,1.7-.24c3.54,0,6.2,2.94,6.2,8.54,0,6-2.66,9.25-7.51,9.25S281.24,147,281.24,140.93Zm4.33.08c0,3.89,1,6,3.13,6s3.18-2.06,3.18-6-1-5.88-3.18-5.88S285.57,137.19,285.57,141Zm21-19.19c5.2,0,7.31,2.39,7.31,8.15V142c0,5.8-2.11,8.22-7.31,8.22s-7.35-2.42-7.35-8.22V130C299.23,124.21,301.34,121.82,306.58,121.82Zm0,3.26c-2.07,0-2.86,1.27-2.86,4.41v13c0,3.17.79,4.49,2.86,4.49s2.82-1.32,2.82-4.49v-13C309.4,126.35,308.6,125.08,306.58,125.08Zm-12,66.26h-4.17v6h-4.72l5.76-19h-4.37l-6,19.82v2.62h9.25v5.36h4.21v-5.36h1.83v-3.41h-1.83Zm19-5.2v12.07c0,5.8-2.11,8.22-7.31,8.22S299,204,299,198.21V186.14c0-5.76,2.11-8.15,7.35-8.15S313.61,180.38,313.61,186.14Zm-4.49-.48c0-3.14-.79-4.41-2.82-4.41s-2.86,1.27-2.86,4.41v13c0,3.17.8,4.49,2.86,4.49s2.82-1.32,2.82-4.49Zm-20.5,49.92c2,0,2.7,1.19,2.74,3.33,0,2.35-1,4.81-2.89,8.5L282,260.24h14.06v-3.41h-7.27l3.94-8.35c1.5-3.29,3-6.27,3-9.53,0-4.29-2.38-6.83-7-6.83-4.37,0-7.62,2-7.11,9.06H286C285.8,237.17,286.68,235.58,288.62,235.58Zm10.29,16.76V240.26c0-5.76,2.11-8.14,7.35-8.14s7.31,2.38,7.31,8.14v12.08c0,5.8-2.11,8.22-7.31,8.22S298.91,258.14,298.91,252.34Zm4.49.47c0,3.18.8,4.49,2.86,4.49s2.82-1.31,2.82-4.49v-13c0-3.14-.79-4.41-2.82-4.41s-2.86,1.27-2.86,4.41ZM269.68,307H279.8v-3.22H269.68Zm22.48-4.57c2.5-.76,3.57-3,3.57-6,0-4.33-2.3-7.07-7-7.07-4.33,0-7.07,2.82-6.75,8.42h4.25c-.12-3.65.79-5.24,2.58-5.24s2.62,1.43,2.62,4.25-.79,4.41-3.17,4.41h-1.47v3.18h1.55c2.74,0,3.53,1.78,3.53,5,0,3.65-.87,5.2-2.78,5.2s-3-1.71-2.9-5.95H282c-.32,6.51,2.42,9.13,7.11,9.13s7.31-2.74,7.31-8.14C296.37,305.48,294.86,303,292.16,302.38Zm21.73-4.93v12.08c0,5.8-2.11,8.22-7.31,8.22s-7.35-2.42-7.35-8.22V297.45c0-5.76,2.1-8.14,7.35-8.14S313.89,291.69,313.89,297.45ZM309.4,297c0-3.14-.8-4.41-2.82-4.41s-2.86,1.27-2.86,4.41v13c0,3.17.79,4.48,2.86,4.48s2.82-1.31,2.82-4.48ZM87.06,93.58c4.57,0,7.31-2.74,7.31-8.14,0-4.13-1.51-6.63-4.21-7.23,2.5-.76,3.58-3,3.58-6,0-4.33-2.31-7.07-7-7.07-4.33,0-7.07,2.82-6.75,8.42h4.25c-.12-3.65.8-5.24,2.58-5.24s2.63,1.43,2.63,4.25S88.69,77,86.31,77H84.84v3.18h1.55c2.74,0,3.53,1.78,3.53,5,0,3.65-.87,5.2-2.78,5.2s-3-1.71-2.9-6H80C79.63,91,82.37,93.58,87.06,93.58Zm17.52-28.44c5.2,0,7.31,2.38,7.31,8.14V85.36c0,5.8-2.11,8.22-7.31,8.22s-7.35-2.42-7.35-8.22V73.28C97.23,67.52,99.34,65.14,104.58,65.14Zm-2.86,20.7c0,3.17.79,4.48,2.86,4.48s2.82-1.31,2.82-4.48v-13c0-3.14-.79-4.41-2.82-4.41s-2.86,1.27-2.86,4.41ZM68.79,139.46H78.92v-3.22H68.79Zm15.49-8.58c-.16-4,.72-5.6,2.66-5.6s2.7,1.19,2.74,3.33c0,2.35-1,4.81-2.9,8.5l-6.47,12.83H94.37v-3.41H87.1L91,138.19c1.51-3.3,3.06-6.28,3.06-9.54,0-4.29-2.38-6.83-7-6.83-4.37,0-7.62,2-7.11,9.06Zm27.61-.91V142c0,5.8-2.11,8.22-7.31,8.22s-7.35-2.42-7.35-8.22V130c0-5.76,2.11-8.15,7.35-8.15S111.89,124.21,111.89,130Zm-4.49-.48c0-3.14-.8-4.41-2.82-4.41s-2.86,1.27-2.86,4.41v13c0,3.17.79,4.49,2.86,4.49s2.82-1.32,2.82-4.49ZM67.32,195.88H77.45v-3.21H67.32Zm25.58-4.29H88.73v6H84l5.76-19H85.4l-6,19.82V201h9.25v5.36H92.9V201h1.83v-3.42H92.9Zm19-5.2v12.08c0,5.8-2.11,8.22-7.31,8.22s-7.35-2.42-7.35-8.22V186.39c0-5.76,2.11-8.14,7.35-8.14S111.89,180.63,111.89,186.39Zm-4.49-.48c0-3.13-.79-4.4-2.82-4.4s-2.86,1.27-2.86,4.4v13c0,3.18.79,4.49,2.86,4.49s2.82-1.31,2.82-4.49ZM67,249.76H77.09v-3.22H67Zm27.25,1.47c0,6-2.66,9.25-7.51,9.25s-7.46-3.22-7.46-9.25a15.66,15.66,0,0,1,2.22-8l5.8-10.76h4.81l-5.76,10.48a6,6,0,0,1,1.7-.23C91.55,242.69,94.21,245.63,94.21,251.23Zm-4.33.08c0-3.82-1-5.88-3.18-5.88s-3.13,2.06-3.13,5.88,1,5.95,3.13,5.95S89.88,255.2,89.88,251.31Zm22-11.05v12.08c0,5.8-2.11,8.22-7.31,8.22s-7.35-2.42-7.35-8.22V240.26c0-5.76,2.11-8.14,7.35-8.14S111.89,234.5,111.89,240.26Zm-4.49-.47c0-3.14-.8-4.41-2.82-4.41s-2.86,1.27-2.86,4.41v13c0,3.18.79,4.49,2.86,4.49s2.82-1.31,2.82-4.49Z"/><rect class="cls-2" x="0.5" y="0.5" width="594.07" height="329.86"/><line class="cls-2" x1="594.57" y1="275.38" x2="0.5" y2="275.38"/><line class="cls-2" x1="594.57" y1="220.41" x2="0.5" y2="220.41"/><line class="cls-2" x1="594.57" y1="165.43" x2="0.5" y2="165.43"/><line class="cls-2" x1="594.57" y1="110.45" x2="0.5" y2="110.45"/><line class="cls-2" x1="594.57" y1="55.48" x2="0.5" y2="55.48"/><line class="cls-2" x1="198.52" y1="0.5" x2="198.52" y2="330.36"/><line class="cls-2" x1="396.55" y1="0.5" x2="396.55" y2="330.36"/></svg>