<svg id="Layer_1" data-name="Layer 1" xmlns="http://www.w3.org/2000/svg" viewBox="0 0 651.69 238.4"><defs><style>.cls-1{fill:none;stroke:#fff;stroke-linecap:round;stroke-miterlimit:10;stroke-width:3.69px;}.cls-2,.cls-3,.cls-4{fill:#fff;}.cls-3{font-size:95.4px;}.cls-3,.cls-4{font-family:AlmoniTzarDL4.0AAA-Bold, "Almoni Tzar DL 4.0 AAA";font-weight:700;}.cls-4{font-size:94.88px;}</style></defs><line class="cls-1" x1="1.85" y1="134.52" x2="649.85" y2="134.52"/><path class="cls-2" d="M135.89,110.81H118.2V57.65H91.12V44.49h44.77Zm-27-41.34v41.34H91.23V69.47Z"/><path class="cls-2" d="M162.86,57.65h-20V33.44h16.8V44.49h24.1l-15.58,66.32H150.81Z"/><path class="cls-2" d="M205.52,71.35c0-10.17-1.88-13.7-8.73-13.7h-9.28V44.49h13.92c18.35,0,21.78,7.41,21.78,26.2v40.12H205.52Z"/><path class="cls-2" d="M231.83,83.51v-39h17.69v39Z"/><path class="cls-2" d="M303.13,68.7V86.5c0,19.12-5.2,24.31-22.33,24.31H258.91V97.66H277.7c6,0,7.19-2,7.19-10.72V68.26c0-8.84-1-10.83-6.74-10.83H275.6V81.52H258.91v-37H280.8C297.93,44.49,303.13,49.8,303.13,68.7Z"/><path class="cls-2" d="M358.17,82c0,22.22-7.74,28.85-26.53,28.85H314.4l-4.2-66.32h48ZM340.93,57.2h-12.6l2.21,40.9h2c6.74,0,8.4-3.31,8.4-13.26Z"/><path class="cls-2" d="M436.65,70.14v40.67H419V67.15c0-7.18-1.21-9.5-6.74-9.5h-3v53.16H384.81V97.22h7.62V57.65h-5V44.49h27.19C430.9,44.49,436.65,50.13,436.65,70.14Z"/><path class="cls-2" d="M442.07,110.81V97.66h4.53c4.53,0,5.74-2,5.74-7.74V57.65h-7V44.49H470V93.24c0,12.93-4.42,17.57-16.25,17.57Z"/><path class="cls-2" d="M525.85,69.58v41.23H508.17V69c0-9.28-1.66-11.38-7.41-11.38h-3.1v53.16H480V44.49h24.87C519.88,44.49,525.85,50,525.85,69.58Z"/><path class="cls-2" d="M583.66,70.14v40.67H566V67.15c0-7.18-1.21-9.5-6.74-9.5h-3v53.16H531.82V97.22h7.62V57.65h-5V44.49h27.19C577.91,44.49,583.66,50.13,583.66,70.14Z"/><text class="cls-3" transform="translate(607.36 213.93)"><tspan xml:space="preserve">  </tspan></text><text class="cls-4" transform="translate(607.87 212.06)"><tspan xml:space="preserve">  </tspan></text></svg>