<svg id="Layer_1" data-name="Layer 1" xmlns="http://www.w3.org/2000/svg" viewBox="0 0 651.69 238.4"><defs><style>.cls-1{fill:none;stroke:#fff;stroke-linecap:round;stroke-miterlimit:10;stroke-width:3.69px;}.cls-2,.cls-3,.cls-4{fill:#fff;}.cls-3{font-size:95.4px;}.cls-3,.cls-4{font-family:AlmoniTzarDL4.0AAA-Bold, "Almoni Tzar DL 4.0 AAA";font-weight:700;}.cls-4{font-size:94.88px;}</style></defs><line class="cls-1" x1="1.85" y1="134.52" x2="649.85" y2="134.52"/><path class="cls-2" d="M71.64,81.19c0,20.78-6.74,29.62-28.07,29.62H11.29L7.42,44.49H24.55l3,53.17h12.6c12.49,0,14.37-4.75,14.37-17.8V44.49H71.64ZM32,44.49H48.21V84.62H32Z"/><path class="cls-2" d="M80.48,83.51v-39H98.17v39Z"/><path class="cls-2" d="M147,97.66v13.15H105.79V97.66H123.7v-40H105.79V44.49h35.6V97.66Z"/><path class="cls-2" d="M187.7,67.26V88c0,17.91-7,22.77-20.89,22.77h-15V97.66h7.84c8.51,0,10.39-2,10.39-10.94V68.59c0-9-1.88-10.94-10.39-10.94h-7.84V44.49h15C180.73,44.49,187.7,49.36,187.7,67.26Z"/><path class="cls-2" d="M242.3,44.49V83.62c0,17.91-6.74,23-21.55,26.75l-23.66,6-3.64-12.6,7.73-2-6.63-57.26h17.69l5.63,53c5.42-1.44,6.75-3.87,6.75-10.83V44.49Z"/><path class="cls-2" d="M272.7,83.51v-39h17.68v39Z"/><path class="cls-2" d="M315,71.35c0-10.17-1.88-13.7-8.73-13.7H297V44.49h13.92c18.35,0,21.78,7.41,21.78,26.2v40.12H315Z"/><path class="cls-2" d="M342.33,110.81V44.49H360v66.32Z"/><path class="cls-2" d="M415.51,91c0,13.7-6.42,19.78-19,19.78H391.3V97.66h1c4.09,0,5.53-1.44,5.53-7.85V57.65h-28.3V44.49h46ZM387.43,69.47v55.71H369.74V69.47Z"/><path class="cls-2" d="M494.1,70.14v40.67H476.41V67.15c0-7.18-1.22-9.5-6.74-9.5h-3v53.16H442.25V97.22h7.63V57.65h-5V44.49H472.1C488.35,44.49,494.1,50.13,494.1,70.14Z"/><path class="cls-2" d="M499.51,110.81V97.66H504c4.54,0,5.75-2,5.75-7.74V57.65h-7V44.49h24.65V93.24c0,12.93-4.42,17.57-16.25,17.57Z"/><path class="cls-2" d="M583.3,69.58v41.23H565.61V69c0-9.28-1.66-11.38-7.4-11.38h-3.1v53.16H537.43V44.49H562.3C577.33,44.49,583.3,50,583.3,69.58Z"/><path class="cls-2" d="M641.11,70.14v40.67H623.42V67.15c0-7.18-1.22-9.5-6.74-9.5h-3v53.16H589.26V97.22h7.63V57.65h-5V44.49h27.19C635.36,44.49,641.11,50.13,641.11,70.14Z"/><text class="cls-3" transform="translate(607.36 213.94)"><tspan xml:space="preserve">  </tspan></text><text class="cls-4" transform="translate(607.87 212.06)"><tspan xml:space="preserve">  </tspan></text></svg>