<svg id="Layer_1" data-name="Layer 1" xmlns="http://www.w3.org/2000/svg" viewBox="0 0 651.69 238.4"><defs><style>.cls-1{fill:none;stroke:#fff;stroke-linecap:round;stroke-miterlimit:10;stroke-width:3.69px;}.cls-2,.cls-3,.cls-4{fill:#fff;}.cls-3{font-size:95.4px;}.cls-3,.cls-4{font-family:AlmoniTzarDL4.0AAA-Bold, "Almoni Tzar DL 4.0 AAA";font-weight:700;}.cls-4{font-size:94.88px;}</style></defs><line class="cls-1" x1="1.85" y1="134.52" x2="649.85" y2="134.52"/><path class="cls-2" d="M139.55,110.81H121.87V57.65H94.79V44.49h44.76Zm-27-41.34v41.34H94.9V69.47Z"/><path class="cls-2" d="M187.08,57.65h-6.19v53.16H163.21V57.65H146.63V44.49h40.45Z"/><path class="cls-2" d="M194.6,110.81V44.49h17.68v66.32Z"/><path class="cls-2" d="M268.66,82c0,22.22-7.74,28.85-26.53,28.85H224.88l-4.2-66.32h48ZM251.41,57.2h-12.6L241,98.1h2c6.74,0,8.4-3.31,8.4-13.26Z"/><path class="cls-2" d="M321.82,68.7V86.5c0,19.12-5.19,24.31-22.33,24.31H277.61V97.66H296.4c6,0,7.18-2,7.18-10.72V68.26c0-8.84-1-10.83-6.74-10.83H294.3V81.52H277.61v-37h21.88C316.63,44.49,321.82,49.8,321.82,68.7Z"/><path class="cls-2" d="M345.15,71.35c0-10.17-1.88-13.7-8.74-13.7h-9.28V44.49h13.93c18.34,0,21.77,7.41,21.77,26.2v40.12H345.15Z"/><path class="cls-2" d="M441.42,70.14v40.67H423.73V67.15c0-7.18-1.21-9.5-6.74-9.5h-3v53.16H389.58V97.22h7.63V57.65h-5V44.49h27.19C435.67,44.49,441.42,50.13,441.42,70.14Z"/><path class="cls-2" d="M446.84,110.81V97.66h4.53c4.53,0,5.75-2,5.75-7.74V57.65h-7V44.49H474.8V93.24c0,12.93-4.42,17.57-16.25,17.57Z"/><path class="cls-2" d="M530.62,69.58v41.23H512.94V69c0-9.28-1.66-11.38-7.41-11.38h-3.1v53.16H484.75V44.49h24.87C524.65,44.49,530.62,50,530.62,69.58Z"/><path class="cls-2" d="M588.43,70.14v40.67H570.74V67.15c0-7.18-1.21-9.5-6.74-9.5h-3v53.16H536.59V97.22h7.62V57.65h-5V44.49h27.19C582.68,44.49,588.43,50.13,588.43,70.14Z"/><text class="cls-3" transform="translate(607.36 213.94)"><tspan xml:space="preserve">  </tspan></text><text class="cls-4" transform="translate(607.87 212.06)"><tspan xml:space="preserve">  </tspan></text></svg>