<svg id="Layer_1" data-name="Layer 1" xmlns="http://www.w3.org/2000/svg" viewBox="0 0 651.69 238.4"><defs><style>.cls-1{fill:none;stroke:#fff;stroke-linecap:round;stroke-miterlimit:10;stroke-width:3.69px;}.cls-2,.cls-3,.cls-4{fill:#fff;}.cls-3{font-size:95.4px;}.cls-3,.cls-4{font-family:AlmoniTzarDL4.0AAA-Bold, "Almoni Tzar DL 4.0 AAA";font-weight:700;}.cls-4{font-size:94.88px;}</style></defs><line class="cls-1" x1="1.85" y1="134.52" x2="649.85" y2="134.52"/><path class="cls-2" d="M158.5,57.65h-6.19v53.16H134.62V57.65H118V44.49H158.5Z"/><path class="cls-2" d="M165.57,83.51v-39h17.69v39Z"/><path class="cls-2" d="M232.11,97.66v13.15H190.88V97.66h17.91v-40H190.88V44.49h35.59V97.66Z"/><path class="cls-2" d="M296.66,57.65h-6.19v53.16H272.79V57.65H256.21V44.49h40.45Z"/><path class="cls-2" d="M303.73,83.51v-39h17.69v39Z"/><path class="cls-2" d="M400.34,70.14v40.67H382.66V67.15c0-7.18-1.22-9.5-6.75-9.5h-3v53.16H348.5V97.22h7.63V57.65h-5V44.49h27.2C394.59,44.49,400.34,50.13,400.34,70.14Z"/><path class="cls-2" d="M405.76,110.81V97.66h4.53c4.53,0,5.75-2,5.75-7.74V57.65h-7V44.49h24.65V93.24c0,12.93-4.42,17.57-16.24,17.57Z"/><path class="cls-2" d="M489.54,69.58v41.23H471.86V69c0-9.28-1.66-11.38-7.41-11.38h-3.09v53.16H443.67V44.49h24.87C483.57,44.49,489.54,50,489.54,69.58Z"/><path class="cls-2" d="M547.35,70.14v40.67H529.67V67.15c0-7.18-1.22-9.5-6.75-9.5h-3v53.16H495.51V97.22h7.63V57.65h-5V44.49h27.19C541.6,44.49,547.35,50.13,547.35,70.14Z"/><text class="cls-3" transform="translate(607.36 213.93)"><tspan xml:space="preserve">  </tspan></text><text class="cls-4" transform="translate(607.87 212.06)"><tspan xml:space="preserve">  </tspan></text></svg>