<svg id="Layer_1" data-name="Layer 1" xmlns="http://www.w3.org/2000/svg" viewBox="0 0 651.69 238.4"><defs><style>.cls-1{fill:none;stroke:#fff;stroke-linecap:round;stroke-miterlimit:10;stroke-width:3.69px;}.cls-2,.cls-3,.cls-4{fill:#fff;}.cls-3{font-size:95.4px;}.cls-3,.cls-4{font-family:AlmoniTzarDL4.0AAA-Bold, "Almoni Tzar DL 4.0 AAA";font-weight:700;}.cls-4{font-size:94.88px;}</style></defs><line class="cls-1" x1="1.85" y1="134.52" x2="649.85" y2="134.52"/><path class="cls-2" d="M149.94,68.14v40.67H132.25V65.15c0-7.18-1.21-9.5-6.74-9.5h-3v53.16H98.1V95.22h7.62V55.65h-5V42.49h27.19C144.19,42.49,149.94,48.13,149.94,68.14Z"/><path class="cls-2" d="M195.59,55.65H189.4v53.16H171.71V55.65H155.13V42.49h40.46Z"/><path class="cls-2" d="M220.9,55.65h-20V31.44h16.8V42.49h24.1l-15.58,66.32H208.85Z"/><path class="cls-2" d="M293.3,89c0,13.7-6.41,19.78-19,19.78h-5.2V95.66h1c4.09,0,5.52-1.44,5.52-7.85V55.65H247.32V42.49h46ZM265.22,67.47v55.71H247.54V67.47Z"/><path class="cls-2" d="M349.12,70v38.79H324.69V95.66h7.07V64.93c0-7.41-1.43-9.73-6.63-9.73h-1.77l-5.3,53.61H300.92l5.64-53.16h-6V42.49H327C344.25,42.49,349.12,49.68,349.12,70Z"/><path class="cls-2" d="M427.6,68.14v40.67H409.91V65.15c0-7.18-1.21-9.5-6.74-9.5h-3v53.16H375.76V95.22h7.62V55.65h-5V42.49H405.6C421.85,42.49,427.6,48.13,427.6,68.14Z"/><path class="cls-2" d="M433,108.81V95.66h4.54c4.53,0,5.74-2,5.74-7.74V55.65h-7V42.49H461V91.24c0,12.93-4.42,17.57-16.25,17.57Z"/><path class="cls-2" d="M516.8,67.58v41.23H499.11V67c0-9.28-1.65-11.38-7.4-11.38h-3.1v53.16H470.93V42.49H495.8C510.83,42.49,516.8,48,516.8,67.58Z"/><path class="cls-2" d="M574.61,68.14v40.67H556.92V65.15c0-7.18-1.21-9.5-6.74-9.5h-3v53.16H522.77V95.22h7.62V55.65h-5V42.49h27.19C568.86,42.49,574.61,48.13,574.61,68.14Z"/><text class="cls-3" transform="translate(607.36 213.93)"><tspan xml:space="preserve">  </tspan></text><text class="cls-4" transform="translate(607.87 212.06)"><tspan xml:space="preserve">  </tspan></text></svg>